<?xml version="1.0" encoding="UTF-8"?>
<svg width="1200px" height="900px" viewBox="0 0 1200 900" version="1.1" xmlns="http://www.w3.org/2000/svg" xmlns:xlink="http://www.w3.org/1999/xlink">
    <!-- Generator: Sketch 54.1 (76490) - https://sketchapp.com -->
    <title>Artboard</title>
    <desc>Created with Sketch.</desc>
    <defs>
        <radialGradient cx="50%" cy="50%" fx="50%" fy="50%" r="76.3849331%" gradientTransform="translate(0.500000,0.500000),scale(0.750000,1.000000),rotate(91.148668),translate(-0.500000,-0.500000)" id="radialGradient-1">
            <stop stop-color="#425B76" offset="0%"></stop>
            <stop stop-color="#2D3E50" offset="100%"></stop>
        </radialGradient>
    </defs>
    <g id="Artboard" stroke="none" stroke-width="1" fill="none" fill-rule="evenodd">
        <rect id="Rectangle" fill="url(#radialGradient-1)" x="0" y="0" width="1200" height="900"></rect>
        <g id="canvas-logo" transform="translate(300.000000, 351.000000)" fill-rule="nonzero">
            <g id="Canvas_logo" transform="translate(0.000000, 87.500000)">
                <g id="S" transform="translate(522.595694, 0.000000)" fill="#6A78D1">
                    <path d="M75.9976077,68.5747863 C74.1341707,55.2606838 65.2470096,44.0940171 52.9196571,39.0833333 L47.4726874,51.3952991 C55.0697767,54.258547 60.803429,60.8440171 62.3801834,68.7179487 C62.666866,70.292735 62.9535486,71.8675214 62.9535486,73.4423077 C62.9535486,86.4700855 52.3462919,97.0641026 39.3022329,97.0641026 C30.7017544,97.0641026 22.9613238,92.482906 18.6610845,85.0384615 L12.4974083,99.0683761 C19.3777911,106.226496 29.125,110.378205 39.1588915,110.378205 C59.6566986,110.378205 76.2842903,93.7713675 76.2842903,73.2991453 C76.4276316,72.0106838 76.2842903,70.4358974 75.9976077,68.5747863 Z" id="Path"></path>
                    <path d="M37.1521132,0.143162393 C22.1012759,0.143162393 8.77053429,9.01923077 2.89354067,22.9059829 C1.03010367,27.4871795 0.0267145136,32.2115385 0.0267145136,37.2222222 C0.0267145136,52.6837607 9.77392344,66.7136752 24.3947368,72.0106838 L29.8417065,59.6987179 C20.2378389,56.5491453 13.6441388,47.5299145 13.6441388,37.2222222 C13.6441388,32.9273504 14.7908692,28.775641 16.9409888,25.3397436 C21.0978868,18.3247863 28.6949761,13.6004274 37.2954545,13.6004274 C46.1826156,13.6004274 54.2097289,18.4679487 58.3666268,26.3418803 L64.6736443,12.1688034 C57.5065789,4.58119658 47.4726874,0.143162393 37.1521132,0.143162393 Z" id="Path"></path>
                </g>
                <polygon id="A_1_" fill="#00A4BD" points="517.605463 105.367521 480.336722 18.1816239 475.033094 5.58333333 474.746411 5.15384615 474.316388 5.15384615 472.882974 5.15384615 461.559011 5.15384615 460.125598 5.15384615 459.695574 5.15384615 459.552233 5.58333333 415.976475 105.367521 415.546451 106.369658 416.693182 106.369658 429.307217 106.369658 429.880582 106.369658 430.023923 105.940171 467.149322 20.758547 503.558014 105.940171 503.701356 106.369658 504.13138 106.369658 516.888756 106.369658 518.035486 106.369658"></polygon>
                <polygon id="V" fill="#DFE3EB" points="428.733852 5.15384615 415.976475 5.15384615 415.546451 5.15384615 415.40311 5.58333333 378.707735 90.4786325 341.582337 5.58333333 341.438995 5.15384615 341.008971 5.15384615 328.251595 5.15384615 327.104864 5.15384615 327.534888 6.15598291 371.110646 105.940171 371.253987 106.369658 371.827352 106.369658 372.830742 106.369658 384.584729 106.369658 385.588118 106.369658 386.161483 106.369658 386.304825 105.940171 392.181818 92.482906 429.450558 6.15598291 429.880582 5.15384615"></polygon>
                <path d="M313.48744,5.15384615 L301.733453,5.15384615 L301.016746,5.15384615 L301.016746,5.86965812 L301.016746,76.1623932 L301.016746,88.3311966 L233.933014,5.44017094 L233.646332,5.15384615 L233.359649,5.15384615 L227.625997,5.15384615 L218.308812,5.15384615 L216.015351,5.15384615 L215.298644,5.15384615 L215.298644,5.86965812 L215.298644,105.653846 L215.298644,106.369658 L216.015351,106.369658 L227.769338,106.369658 L228.486045,106.369658 L228.486045,105.653846 L228.486045,19.4700855 L298.579944,106.226496 L298.866627,106.512821 L299.153309,106.512821 L301.876794,106.512821 L313.630781,106.512821 L314.347488,106.512821 L314.347488,105.797009 L314.347488,104.938034 L314.347488,90.7649573 L314.347488,5.86965812 L314.347488,5.15384615 L313.48744,5.15384615 Z M233.359649,5.86965812 L301.733453,90.3354701 L233.359649,5.86965812 L233.359649,5.86965812 Z M313.48744,90.6217949 L313.48744,104.794872 L313.48744,105.653846 L313.48744,105.653846 L313.48744,104.794872 L313.48744,90.6217949 L313.48744,5.86965812 L313.48744,5.86965812 L313.48744,90.6217949 Z" id="N" fill="#F2547D"></path>
                <polygon id="A" fill="#00BDA5" points="201.68122 105.367521 163.695774 18.1816239 158.248804 5.58333333 157.962121 5.15384615 157.532097 5.15384615 156.385367 5.15384615 144.774721 5.15384615 143.62799 5.15384615 143.197967 5.15384615 143.054625 5.58333333 99.4788676 105.367521 99.0488437 106.369658 100.052233 106.369658 112.809609 106.369658 113.382974 106.369658 113.526316 105.940171 150.651715 20.9017094 155.955343 33.3568376 187.490431 105.940171 187.777113 106.369658 188.207137 106.369658 200.964514 106.369658 202.111244 106.369658"></polygon>
                <path d="M54.3263557,14.3162393 C65.2202951,14.3162393 75.3975279,18.4679487 83.1379585,26.0555556 L83.8546651,26.7713675 L84.284689,25.7692308 L89.1582935,14.4594017 L89.3016348,14.0299145 L88.8716108,13.7435897 C79.1244019,5.58333333 67.0837321,1.28846154 54.1830144,1.28846154 C24.3680223,1.14529915 0,25.482906 0,55.4038462 C0,85.3247863 24.3680223,109.662393 54.3263557,109.662393 C66.9403907,109.662393 78.8377193,105.510684 88.5849282,97.4935897 L89.0149522,97.207265 L88.7282695,96.7777778 L83.8546651,85.4679487 L83.4246411,84.465812 L82.7079346,85.1816239 C74.967504,92.482906 64.9336124,96.491453 54.3263557,96.491453 C31.678429,96.491453 13.1874003,78.0235043 13.1874003,55.4038462 C13.1874003,32.784188 31.5350877,14.3162393 54.3263557,14.3162393 Z M61.3500797,2.43376068 C63.6435407,2.72008547 65.9370016,3.14957265 68.2304625,3.72222222 C71.24063,4.58119658 74.1074561,5.58333333 76.830941,6.87179487 C74.1074561,5.58333333 71.0972887,4.58119658 68.2304625,3.72222222 C65.9370016,3.14957265 63.6435407,2.72008547 61.3500797,2.43376068 C59.7733254,2.29059829 58.196571,2.1474359 56.6198166,2.0042735 C58.196571,2.0042735 59.7733254,2.1474359 61.3500797,2.43376068 Z M65.7936603,107.65812 C67.2270734,107.371795 68.8038278,106.942308 70.2372408,106.512821 C68.6604864,106.942308 67.2270734,107.371795 65.7936603,107.65812 Z M88.1549043,96.9209402 C85.7181021,98.9252137 83.2812998,100.643162 80.557815,102.074786 C83.2812998,100.643162 85.7181021,98.9252137 88.1549043,96.9209402 L83.2812998,85.6111111 L88.1549043,96.9209402 Z" id="C" fill="#FF8F59"></path>
            </g>
            <g id="HubSpot_logo" transform="translate(188.333333, 0.000000)">
                <g id="Group">
                    <polygon id="Path" fill="#FFFFFF" points="25.3374233 37.2101449 8.30265849 37.2101449 8.30265849 55.2427536 0.143149284 55.2427536 0.143149284 10.8768116 8.30265849 10.8768116 8.30265849 29.4818841 25.3374233 29.4818841 25.3374233 10.8768116 33.4969325 10.8768116 33.4969325 55.2427536 25.3374233 55.2427536"></polygon>
                    <path d="M59.406953,40.9311594 C59.406953,44.6521739 56.400818,47.6576087 52.6789366,47.6576087 C48.9570552,47.6576087 45.9509202,44.6521739 45.9509202,40.9311594 L45.9509202,21.8967391 L38.2208589,21.8967391 L38.2208589,40.9311594 C38.2208589,48.8025362 44.6625767,55.2427536 52.5357873,55.2427536 C60.408998,55.2427536 66.8507157,48.8025362 66.8507157,40.9311594 L66.8507157,21.8967391 L59.1206544,21.8967391 L59.1206544,40.9311594 L59.406953,40.9311594 Z" id="Path" fill="#FFFFFF"></path>
                    <path d="M116.237219,23.9003623 C116.237219,20.0362319 118.813906,18.7481884 121.676892,18.7481884 C123.96728,18.7481884 126.973415,20.4655797 128.977505,22.6123188 L133.98773,16.7445652 C131.411043,13.3097826 126.400818,11.0199275 122.249489,11.0199275 C113.94683,11.0199275 107.93456,15.8858696 107.93456,24.0434783 C107.93456,39.0706522 126.257669,34.3478261 126.257669,42.6485507 C126.257669,45.2246377 123.680982,47.5144928 120.817996,47.5144928 C116.237219,47.5144928 114.805726,45.2246377 112.658487,42.9347826 L107.075665,48.8025362 C110.654397,53.2391304 115.092025,55.3858696 120.388548,55.3858696 C128.261759,55.3858696 134.703476,50.3768116 134.703476,42.7916667 C134.560327,25.9039855 116.237219,31.0561594 116.237219,23.9003623 Z" id="Path" fill="#FFFFFF"></path>
                    <path d="M229.754601,48.0869565 C225.173824,48.0869565 223.885481,46.0833333 223.885481,43.0778986 L223.885481,29.7681159 L230.899796,29.7681159 L230.899796,23.0416667 L223.885481,23.0416667 L223.885481,14.1684783 L216.155419,17.6032609 L216.155419,44.6521739 C216.155419,51.5217391 220.879346,55.0996377 227.464213,55.0996377 C228.466258,55.0996377 229.754601,55.0996377 230.470348,54.8134058 L232.331288,47.8007246 C231.615542,48.0869565 230.613497,48.0869565 229.754601,48.0869565 Z" id="Path" fill="#FFFFFF"></path>
                    <path d="M88.609407,22.182971 C84.7443763,22.182971 82.1676892,23.3278986 79.591002,25.7608696 L79.591002,11.1630435 L71.8609407,11.1630435 L71.8609407,38.2119565 C71.8609407,48.3731884 79.1615542,55.2427536 87.4642127,55.2427536 C96.6257669,55.2427536 104.642127,48.2300725 104.642127,38.6413043 C104.642127,29.3387681 97.198364,22.182971 88.609407,22.182971 Z M88.609407,47.5144928 C83.7423313,47.5144928 79.8773006,43.6503623 79.8773006,38.7844203 C79.8773006,33.9184783 83.7423313,30.0543478 88.609407,30.0543478 C93.4764826,30.0543478 97.3415133,33.9184783 97.3415133,38.7844203 C97.3415133,43.6503623 93.3333333,47.5144928 88.609407,47.5144928 Z" id="Shape" fill="#FFFFFF"></path>
                    <path d="M172.06544,38.3550725 C172.06544,28.9094203 164.04908,21.7536232 154.887526,21.7536232 C146.728016,21.7536232 139.284254,28.6231884 139.284254,38.7844203 L139.284254,65.8333333 L147.014315,65.8333333 L147.014315,51.2355072 C149.591002,53.8115942 152.167689,54.8134058 156.03272,54.8134058 C164.764826,54.8134058 172.06544,47.6576087 172.06544,38.3550725 Z M164.764826,38.2119565 C164.764826,43.0778986 160.899796,46.942029 156.03272,46.942029 C151.165644,46.942029 147.300613,43.0778986 147.300613,38.2119565 C147.300613,33.3460145 151.165644,29.4818841 156.03272,29.4818841 C160.899796,29.4818841 164.764826,33.3460145 164.764826,38.2119565 Z" id="Shape" fill="#FFFFFF"></path>
                    <path d="M196.973415,21.3242754 L196.973415,13.5960145 C198.977505,12.5942029 200.408998,10.5905797 200.408998,8.30072464 L200.408998,8.1576087 C200.408998,4.86594203 197.689162,2.14673913 194.396728,2.14673913 L194.253579,2.14673913 C190.961145,2.14673913 188.241309,4.86594203 188.241309,8.1576087 L188.241309,8.30072464 C188.241309,10.7336957 189.672802,12.7373188 191.676892,13.5960145 L191.676892,21.3242754 C188.670757,21.7536232 185.95092,23.0416667 183.660532,24.9021739 L162.617587,8.44384058 C162.760736,7.87137681 162.903885,7.29891304 162.903885,6.72644928 C162.903885,3.00543478 159.897751,0 156.175869,0 C152.453988,0 149.447853,3.00543478 149.447853,6.72644928 C149.447853,10.4474638 152.453988,13.4528986 156.175869,13.4528986 C157.321063,13.4528986 158.466258,13.1666667 159.468303,12.5942029 L180.368098,28.7663043 C178.650307,31.4855072 177.505112,34.634058 177.505112,38.0688406 C177.505112,41.6467391 178.650307,45.0815217 180.511247,47.8007246 L174.212679,54.0978261 C173.640082,53.9547101 173.210634,53.8115942 172.638037,53.8115942 C169.631902,53.8115942 167.198364,56.2445652 167.198364,59.25 C167.198364,62.2554348 169.631902,64.6884058 172.638037,64.6884058 C175.644172,64.6884058 178.07771,62.2554348 178.07771,59.25 C178.07771,58.6775362 177.93456,58.2481884 177.791411,57.6757246 L184.08998,51.3786232 C186.952965,53.5253623 190.531697,54.8134058 194.396728,54.8134058 C203.701431,54.8134058 211.288344,47.2282609 211.288344,37.9257246 C211.288344,29.625 205.132924,22.6123188 196.973415,21.3242754 Z M194.396728,46.798913 C189.529652,46.798913 185.664622,42.9347826 185.664622,38.0688406 C185.664622,33.2028986 189.529652,29.3387681 194.396728,29.3387681 C199.263804,29.3387681 203.128834,33.2028986 203.128834,38.0688406 C203.128834,42.9347826 199.120654,46.798913 194.396728,46.798913 Z" id="Shape" fill="#FF8F59"></path>
                </g>
            </g>
        </g>
    </g>
</svg>