<?xml version="1.0" encoding="UTF-8"?>
<svg width="341px" height="195px" viewBox="0 0 341 195" version="1.1" xmlns="http://www.w3.org/2000/svg" xmlns:xlink="http://www.w3.org/1999/xlink">
    <!-- Generator: Sketch 55.1 (78136) - https://sketchapp.com -->
    <title>Combined Shape</title>
    <desc>Created with Sketch.</desc>
    <g id="Landing" stroke="none" stroke-width="1" fill="none" fill-rule="evenodd">
        <g id="Pattern-BGs" transform="translate(-876.000000, -828.000000)" fill="#F8F8FF">
            <path d="M1106.62738,828 L1117.76143,828 C1123.14291,828.350758 1128.39659,829.185108 1133.50118,830.471329 L1069.6648,894.307708 C1065.62,898.352503 1059.05648,898.346893 1055.00476,894.295176 C1050.95305,890.24346 1050.94744,883.67994 1054.99223,879.635145 L1106.62738,828 Z M1216.41954,934.828224 L1216.41954,964.173351 L1177.97499,1002.6179 C1173.93019,1006.6627 1167.36668,1006.65709 1163.31496,1002.60537 C1159.26324,998.553654 1159.25763,991.990134 1163.30243,987.945339 L1216.41954,934.828224 Z M1216.41954,985.112793 L1216.41954,1008.19104 L1201.61058,1023 L1172.26546,1023 L1207.28252,987.982933 C1209.76662,985.498836 1213.20072,984.542455 1216.41954,985.112793 Z M1157.3069,1023 L1128.24777,1023 L1141.33118,1009.91659 C1145.37597,1005.87179 1151.93949,1005.8774 1155.99121,1009.92912 C1159.54702,1013.48493 1159.98655,1018.97531 1157.3069,1023 Z M1113.5752,1023 L1087.109,1023 C1087.42225,1020.87779 1088.39493,1018.83515 1090.02733,1017.20274 L1163.26483,943.965243 C1167.30963,939.920448 1173.87315,939.926058 1177.92486,943.977775 C1181.97658,948.029491 1181.98219,954.593011 1177.9374,958.637807 L1113.5752,1023 Z M1067.1052,1023 L1043.68045,1023 L1049.51412,1017.16633 C1053.55891,1013.12153 1060.12243,1013.12714 1064.17415,1017.17886 C1065.81419,1018.8189 1066.7913,1020.87049 1067.1052,1023 Z M1029.00788,1023 L999.662757,1023 L1027.50527,995.157484 C1031.55007,991.112688 1038.11359,991.118299 1042.16531,995.170015 C1046.21702,999.221732 1046.22263,1005.78525 1042.17784,1009.83005 L1029.00788,1023 Z M967.112209,1023 L955.990814,1023 C959.369402,1020.84634 963.72707,1020.84689 967.112208,1023 Z M940.972504,1023 L911.627378,1023 L983.487584,951.139794 C987.532379,947.094999 994.095899,947.100609 998.147616,951.152326 C1002.19933,955.204042 1002.20494,961.767562 998.160147,965.812357 L940.972504,1023 Z M896.954815,1023 L876,1023 C890.201852,1013.22746 906.297913,999.503745 925.022257,980.56252 C928.923746,984.624806 928.879391,991.075423 924.885051,995.069763 L896.954815,1023 Z M1070.63682,836.854668 C1073.63265,840.914113 1073.29718,846.657637 1069.6272,850.327613 L996.389701,923.565114 C992.344905,927.609909 985.781386,927.604299 981.729669,923.552582 C980.608176,922.431089 979.796676,921.117154 979.295261,919.717456 C984.927737,912.891157 990.743237,905.710708 996.751542,898.159235 C1021.5653,866.972328 1046.66438,847.237673 1070.63682,836.854668 Z M1144.58626,834.058808 C1151.26285,836.714602 1157.62978,840.174875 1163.63219,844.358002 L1135.61614,872.374052 C1131.57135,876.418848 1125.00783,876.413237 1120.95611,872.361521 C1116.90439,868.309804 1116.89878,861.746284 1120.94358,857.701489 L1144.58626,834.058808 Z M1171.8955,850.767258 C1177.04491,855.18963 1181.86947,860.181299 1186.32753,865.68032 L1113.68249,938.325398 C1109.63769,942.370193 1103.07417,942.364582 1099.02245,938.312866 C1094.97074,934.26115 1094.96513,927.69763 1099.00992,923.652834 L1171.8955,850.767258 Z M1192.59024,874.090209 C1196.54186,879.867164 1200.13243,886.08943 1203.32442,892.701151 L1179.63383,916.391742 C1175.58904,920.436537 1169.02552,920.430927 1164.9738,916.37921 C1160.92208,912.327494 1160.91647,905.763974 1164.96127,901.719178 L1192.59024,874.090209 Z M1206.79957,900.430504 C1209.70451,907.384575 1212.19012,914.712534 1214.21798,922.357218 L1199.90865,936.666556 C1195.86385,940.711352 1189.30033,940.705741 1185.24861,936.654025 C1181.1969,932.602308 1181.19129,926.038789 1185.23608,921.993993 L1206.79957,900.430505 Z M932.244108,973.133516 C944.703581,960.109252 958.285398,944.866923 973.184022,927.071063 C974.253519,927.56968 975.255791,928.260501 976.138771,929.143481 C980.190487,933.195197 980.196098,939.758717 976.151302,943.803513 L946.856302,973.098513 C942.827386,977.127428 936.299485,977.13768 932.244108,973.133516 Z M1005.49643,973.148639 C1009.54122,969.103843 1016.10474,969.109454 1020.15646,973.16117 C1024.20818,977.212887 1024.21379,983.776407 1020.16899,987.821202 L990.873991,1017.1162 C986.829196,1021.161 980.265676,1021.15539 976.21396,1017.10367 C972.162243,1013.05195 972.156633,1006.48843 976.201428,1002.44364 L1005.49643,973.148639 Z M1098.97233,879.672739 C1103.01712,875.627944 1109.58064,875.633554 1113.63236,879.685271 C1117.68408,883.736987 1117.68969,890.300507 1113.64489,894.345302 L1040.40739,967.582803 C1036.3626,971.627599 1029.79908,971.621988 1025.74736,967.570272 C1021.69564,963.518555 1021.69003,956.955036 1025.73483,952.91024 L1098.97233,879.672739 Z M1033.02098,901.606395 C1037.06578,897.561599 1043.6293,897.56721 1047.68101,901.618926 C1051.73273,905.670643 1051.73834,912.234163 1047.69355,916.278958 L1018.39855,945.573959 C1014.35375,949.618754 1007.79023,949.613144 1003.73851,945.561427 C999.686798,941.509711 999.681187,934.946191 1003.72598,930.901395 L1033.02098,901.606395 Z M1077.03867,945.624085 C1081.08347,941.579289 1087.64699,941.5849 1091.6987,945.636616 C1095.75042,949.688333 1095.75603,956.251852 1091.71124,960.296648 L1062.41624,989.591648 C1058.37144,993.636444 1051.80792,993.630833 1047.7562,989.579117 C1043.70449,985.5274 1043.69888,978.963881 1047.74367,974.919085 L1077.03867,945.624085 Z M1142.99002,923.690429 C1147.03481,919.645633 1153.59833,919.651244 1157.65005,923.70296 C1161.70177,927.754677 1161.70738,934.318197 1157.66258,938.362992 L1084.42508,1011.60049 C1080.38028,1015.64529 1073.81677,1015.63968 1069.76505,1011.58796 C1065.71333,1007.53625 1065.70772,1000.97273 1069.75252,996.92793 L1142.99002,923.690429 Z" id="Combined-Shape"></path>
        </g>
    </g>
</svg>