<?xml version="1.0" encoding="UTF-8"?>
<svg width="612px" height="587px" viewBox="0 0 612 587" version="1.1" xmlns="http://www.w3.org/2000/svg" xmlns:xlink="http://www.w3.org/1999/xlink">
    <!-- Generator: Sketch 55.1 (78136) - https://sketchapp.com -->
    <title>Combined Shape</title>
    <desc>Created with Sketch.</desc>
    <defs>
        <path d="M920.584757,585.687213 L920.584757,599.498616 C919.640372,599.384818 918.696107,599.137828 917.776779,598.747597 L822.436899,558.278219 C817.171423,556.043157 814.717887,549.955465 816.956774,544.68098 C817.576485,543.221031 818.490752,541.976412 819.600695,540.987172 C828.039893,543.652337 836.876013,546.35453 846.128368,549.096502 C877.974583,558.534254 902.519622,571.135618 920.584757,585.687213 Z M920.584757,611.210576 L920.584757,633.752704 L877.013228,615.257687 C871.747751,613.022625 869.294216,606.934934 871.533102,601.660448 C873.771988,596.385962 879.855476,593.922023 885.120952,596.157085 L920.584757,611.210576 Z M920.584757,649.871158 L920.584757,667.423017 C916.352695,664.765045 914.556849,659.348487 916.575442,654.592979 C917.434081,652.570153 918.858188,650.960705 920.584757,649.871158 Z M920.584757,678.836959 L920.584757,701.379071 L852.690053,672.559495 C847.424577,670.324433 844.971041,664.236742 847.209928,658.962256 C849.448814,653.68777 855.532302,651.22383 860.797778,653.458892 L920.584757,678.836959 Z M920.584757,712.650151 L920.584757,735.192278 L897.732394,725.492026 C892.466917,723.256964 890.013382,717.169272 892.252268,711.894787 C894.491154,706.620301 900.574642,704.156361 905.840118,706.391423 L920.584757,712.650151 Z M920.584757,743.799273 L920.584757,746.761236 C915.810708,751.311221 910.659579,755.667511 905.156752,759.792601 L886.528992,751.885586 C881.263516,749.650524 878.80998,743.562832 881.048866,738.288347 C883.287753,733.013861 889.371241,730.549921 894.636717,732.784983 L920.584757,743.799273 Z M895.119146,766.802966 C887.950068,771.465063 880.284799,775.754163 872.168727,779.603206 L817.163477,756.254863 C811.898001,754.019801 809.444465,747.93211 811.683352,742.657624 C813.922238,737.383138 820.005726,734.919198 825.271202,737.15426 L895.119157,766.802958 L895.119146,766.802966 Z M847.855675,789.324239 C841.543378,791.410794 835.027455,793.245733 828.323929,794.805385 L738.263974,756.577203 C732.998498,754.342141 730.544963,748.254449 732.783849,742.979963 C735.022735,737.705478 741.106223,735.241538 746.371699,737.4766 L841.711579,777.945978 C846.250049,779.872444 848.699465,784.661118 847.855664,789.324243 L847.855675,789.324239 Z M809.998353,798.297703 C802.556505,799.411225 794.920105,800.192155 787.108203,800.612348 C787.184381,800.393556 787.26833,800.175809 787.360177,799.959432 C789.599064,794.684946 795.682551,792.221006 800.948028,794.456068 L809.998353,798.297703 Z M773.238381,800.973815 C769.739385,800.969017 766.209027,800.892254 762.648896,800.741181 L726.102387,785.228107 C720.836911,782.993045 718.383375,776.905353 720.622262,771.630867 C722.861148,766.356382 728.944636,763.892442 734.210112,766.127504 L772.346064,782.315255 C777.61154,784.550317 780.065076,790.638008 777.826189,795.912494 C776.873405,798.157114 775.224352,799.892735 773.238381,800.973815 Z M726.774712,796.784555 C722.852507,796.089038 718.903246,795.303254 714.928763,794.424496 C717.188962,793.719438 719.700103,793.781562 722.048525,794.778408 L726.774712,796.784555 Z M701.830516,791.212238 C683.523822,786.280762 664.737328,779.367094 645.643282,770.216749 C648.504303,766.86836 653.30345,765.597855 657.566419,767.407378 L695.702371,783.595129 C699.010299,784.999261 701.208432,787.92392 701.830513,791.212236 Z M635.27074,765.039614 C621.849252,758.072563 608.292669,749.990044 594.659832,740.705124 L628.964455,755.266565 C632.982302,756.972039 635.362889,760.920717 635.270736,765.039612 Z M560.394855,714.889458 C551.218497,707.295819 542.029999,699.131771 532.846969,690.371298 C535.461654,685.991556 540.966577,684.10049 545.786163,686.146283 L583.922115,702.334034 C589.187591,704.569096 591.641127,710.656787 589.40224,715.931273 C587.163354,721.205759 581.079866,723.669699 575.81439,721.434637 L560.39479,714.889405 L560.394855,714.889458 Z M526.540785,684.260172 C522.964869,680.740613 519.390395,677.129643 515.818404,673.425724 L520.248695,675.306271 C523.999259,676.898291 526.323151,680.444987 526.540785,684.260172 Z M498.638963,654.86242 C492.870065,648.372722 487.112065,641.632652 481.369388,634.635673 C483.997654,630.296527 489.475689,628.430713 494.274331,630.467616 L532.410283,646.655367 C537.675759,648.890429 540.129295,654.97812 537.890408,660.252606 C535.651522,665.527092 529.568034,667.991032 524.302558,665.75597 L498.638963,654.86242 Z M457.142934,603.435215 C451.441747,595.685123 445.762212,587.667897 440.108777,579.376964 C439.894849,579.063232 439.681221,578.749744 439.467894,578.4365 C442.269169,576.5844 445.913077,576.12629 449.23199,577.535085 L544.57187,618.004463 C549.837346,620.239525 552.290882,626.327216 550.051995,631.601702 C547.813109,636.876188 541.729621,639.340128 536.464145,637.105066 L457.142928,603.435206 Z M424.179375,555.629817 C417.167399,544.995419 410.521332,534.660846 404.229187,524.619337 L489.995541,561.024995 C495.261018,563.260057 497.714553,569.347748 495.475667,574.622234 C493.236781,579.896719 487.153293,582.360659 481.887817,580.125597 L424.179375,555.629817 Z M396.954707,512.884295 C395.083772,509.832485 393.24662,506.808771 391.442892,503.812949 C391.430488,502.429516 391.695963,501.020626 392.271213,499.66542 C394.5101,494.390935 400.593588,491.926995 405.859064,494.162057 L501.198943,534.631435 C506.464419,536.866497 508.917955,542.954188 506.679069,548.228674 C504.440182,553.503159 498.356694,555.967099 493.091218,553.732037 L397.751339,513.262659 C397.478136,513.146692 397.212504,513.020352 396.954704,512.884293 Z M385.69042,494.161632 C383.426557,490.323835 381.21915,486.533331 379.067395,482.789668 L379.512909,482.978778 C383.988006,484.878344 386.431982,489.56074 385.69042,494.161632 Z M370.702095,467.967735 C365.134515,457.91311 359.988206,448.215376 355.24588,438.86478 L391.674497,454.327874 C396.939973,456.562936 399.393509,462.650627 397.154622,467.925113 C394.915736,473.199599 388.832248,475.663539 383.566772,473.428477 L370.702102,467.967748 L370.702095,467.967735 Z M342.18226,411.776012 C339.836157,406.629346 337.626481,401.601717 335.549608,396.691081 L337.098168,397.348406 C342.363644,399.583468 344.81718,405.671159 342.578294,410.945645 C342.457273,411.230751 342.32502,411.507646 342.182269,411.77603 L342.18226,411.776012 Z M330.009422,383.068348 C326.389663,373.78352 323.276714,364.94942 320.64248,356.550198 C320.647586,356.552361 320.652689,356.554522 320.657792,356.556688 L415.997671,397.026066 C421.263147,399.261128 423.716683,405.348819 421.477797,410.623305 C419.23891,415.897791 413.155422,418.361731 407.889946,416.126669 L330.009422,383.068348 Z M316.887031,343.685032 C314.518038,334.885684 312.717852,326.609282 311.448337,318.834315 L361.421343,340.046598 C366.686819,342.28166 369.140355,348.369351 366.901468,353.643837 C364.662582,358.918322 358.579094,361.382262 353.313618,359.1472 L316.887031,343.685032 Z M309.66772,304.68983 C308.9665,296.525007 308.925889,288.996367 309.489093,282.071875 L374.344565,309.601395 C379.610041,311.836457 382.063577,317.924148 379.82469,323.198634 C377.585804,328.473119 371.502316,330.937059 366.23684,328.701997 L309.66772,304.68983 Z M310.915316,271.406202 C312.322705,264.018897 314.522505,257.442892 317.422408,251.626121 L329.302224,256.668864 C334.5677,258.903926 337.021236,264.991617 334.78235,270.266103 C332.543463,275.540589 326.459976,278.004529 321.194499,275.769467 L310.915315,271.406212 Z M322.860358,242.66339 C327.445308,236.384678 333.056645,231.261047 339.51081,227.18896 L398.667739,252.299587 C403.933215,254.534649 406.386751,260.62234 404.147865,265.896826 C401.908978,271.171312 395.82549,273.635251 390.560014,271.400189 L322.860358,242.66339 Z M368.952791,216.339683 C375.392406,215.196052 382.189237,214.596202 389.259227,214.492719 L477.567242,251.977247 C482.832718,254.212309 485.286254,260.3 483.047367,265.574486 C480.808481,270.848972 474.724993,273.312912 469.459517,271.07785 L374.119638,230.608472 C368.854162,228.37341 366.400626,222.285719 368.639512,217.011233 C368.736806,216.782024 368.84136,216.558122 368.952791,216.339683 Z M437.79845,220.233967 C456.377689,224.517518 475.474228,231.007358 493.976145,239.076288 C491.18579,242.824907 486.106635,244.330941 481.621104,242.426946 L443.485152,226.239195 C440.729737,225.06959 438.744347,222.844977 437.798456,220.233972 Z M501.765908,242.582813 C521.401402,251.699122 540.172911,262.529306 556.709591,274.300118 L507.967258,253.610225 C503.542551,251.732048 501.103481,247.133356 501.765908,242.582813 Z M585.126397,297.6334 C585.230895,297.733943 585.335198,297.834516 585.439303,297.935116 C598.085889,310.155849 607.251551,321.60256 613.982273,332.424116 L562.543587,310.589693 C557.278111,308.354631 554.824575,302.26694 557.063461,296.992454 C559.302348,291.717968 565.385835,289.254028 570.651311,291.489091 L585.126397,297.6334 Z M621.854916,347.036914 C626.041405,356.181874 628.682089,364.886166 630.514257,373.254722 L607.585927,363.522224 C602.320451,361.287162 599.866915,355.19947 602.105802,349.924985 C604.344688,344.650499 610.428176,342.186559 615.693652,344.421621 L621.854921,347.036925 L621.854916,347.036914 Z M632.733088,385.467636 C633.951155,393.571616 634.721575,401.388885 635.793374,409.026047 C635.041549,408.891922 634.293001,408.671895 633.560292,408.360879 L538.220412,367.891501 C532.954936,365.656439 530.5014,359.568748 532.740287,354.294262 C534.979173,349.019776 541.062661,346.555836 546.328137,348.790898 L632.733087,385.467624 L632.733088,385.467636 Z M641.543239,434.054871 C643.299251,438.890277 645.544855,443.699318 648.491761,448.512127 L646.936172,447.851795 C641.670696,445.616733 639.21716,439.529041 641.456047,434.254556 C641.484493,434.187539 641.513561,434.120977 641.543239,434.054871 Z M666.233718,469.431774 C681.780009,483.478917 705.643745,497.916049 742.855109,513.459081 C740.550147,518.598238 734.552623,520.973557 729.352829,518.766375 L634.01295,478.296998 C628.747474,476.061936 626.293938,469.974244 628.532825,464.699759 C630.771711,459.425273 636.855199,456.961333 642.120675,459.196395 L666.233718,469.431774 Z M752.448515,517.372111 C769.191803,524.045358 788.412082,530.928322 810.49324,538.07564 C810.431571,539.254044 810.16651,540.442121 809.678595,541.591576 C807.439709,546.866062 801.356221,549.330002 796.090745,547.09494 L757.954793,530.907189 C752.70999,528.680902 750.25509,522.632177 752.448515,517.372111 Z M792.036883,556.645241 C797.302359,558.880303 799.755895,564.967995 797.517008,570.24248 C795.278122,575.516966 789.194634,577.980906 783.929158,575.745844 L688.589278,535.276466 C683.323802,533.041404 680.870267,526.953713 683.109153,521.679227 C685.348039,516.404741 691.431527,513.940801 696.697003,516.175863 L792.036883,556.645241 Z M713.13738,556.967581 C718.402856,559.202643 720.856392,565.290334 718.617505,570.56482 C716.378619,575.839306 710.295131,578.303245 705.029655,576.068183 L609.689776,535.598806 C604.4243,533.363744 601.970764,527.276052 604.20965,522.001567 C606.448537,516.727081 612.532024,514.263141 617.797501,516.498203 L713.13738,556.967581 Z M668.095039,504.03505 C673.360516,506.270112 675.814051,512.357803 673.575165,517.632289 C671.336279,522.906775 665.252791,525.370715 659.987315,523.135653 L621.851363,506.947902 C616.585887,504.71284 614.132351,498.625148 616.371237,493.350663 C618.610124,488.076177 624.693612,485.612237 629.959088,487.847299 L668.095039,504.03505 Z M767.713708,613.947049 C772.979184,616.182111 775.43272,622.269802 773.193834,627.544288 C770.954947,632.818774 764.87146,635.282714 759.605983,633.047652 L664.266104,592.578274 C659.000628,590.343212 656.547092,584.255521 658.785979,578.981035 C661.024865,573.706549 667.108353,571.242609 672.373829,573.477671 L767.713708,613.947049 Z M643.771865,561.336858 C649.037341,563.57192 651.490877,569.659611 649.251991,574.934097 C647.013104,580.208583 640.929616,582.672523 635.66414,580.437461 L597.528189,564.24971 C592.262712,562.014648 589.809177,555.926956 592.048063,550.65247 C594.286949,545.377985 600.370437,542.914045 605.635913,545.149107 L643.771865,561.336858 Z M779.875295,585.296145 C785.140772,587.531207 787.594307,593.618898 785.355421,598.893384 C783.116535,604.16787 777.033047,606.63181 771.767571,604.396748 L733.631619,588.208997 C728.366143,585.973935 725.912607,579.886243 728.151493,574.611758 C730.39038,569.337272 736.473868,566.873332 741.739344,569.108394 L779.875295,585.296145 Z M688.814206,614.269389 C694.079682,616.504451 696.533217,622.592142 694.294331,627.866628 C692.055445,633.141114 685.971957,635.605053 680.706481,633.369991 L585.366601,592.900614 C580.101125,590.665552 577.647589,584.57786 579.886476,579.303374 C582.125362,574.028889 588.20885,571.564949 593.474326,573.800011 L688.814206,614.269389 Z M755.552121,642.597953 C760.817597,644.833015 763.271133,650.920706 761.032247,656.195192 C758.79336,661.469678 752.709872,663.933618 747.444396,661.698556 L709.308445,645.510805 C704.042968,643.275743 701.589433,637.188051 703.828319,631.913566 C706.067205,626.63908 712.150693,624.17514 717.416169,626.410202 L755.552121,642.597953 Z M796.669238,725.013447 C801.934714,727.248509 804.38825,733.3362 802.149364,738.610686 C799.910477,743.885172 793.82699,746.349112 788.561513,744.11405 L750.425562,727.926299 C745.160086,725.691237 742.70655,719.603545 744.945436,714.32906 C747.184323,709.054574 753.26781,706.590634 758.533286,708.825696 L796.669238,725.013447 Z M866.034753,720.64417 C871.300229,722.879232 873.753765,728.966923 871.514879,734.241409 C869.275992,739.515895 863.192504,741.979834 857.927028,739.744772 L762.587149,699.275395 C757.321673,697.040333 754.868137,690.952641 757.107023,685.678156 C759.34591,680.40367 765.429398,677.93973 770.694874,680.174792 L866.034753,720.64417 Z M732.187132,697.642417 C737.452608,699.877479 739.906144,705.96517 737.667258,711.239656 C735.428371,716.514142 729.344884,718.978082 724.079408,716.74302 L628.739528,676.273642 C623.474052,674.03858 621.020516,667.950889 623.259403,662.676403 C625.498289,657.401917 631.581777,654.937977 636.847253,657.173039 L732.187132,697.642417 Z M653.28763,697.964757 C658.553106,700.199819 661.006642,706.28751 658.767755,711.561996 C656.528869,716.836481 650.445381,719.300421 645.179905,717.065359 L549.840025,676.595981 C544.574549,674.360919 542.121014,668.273228 544.3599,662.998742 C546.598786,657.724257 552.682274,655.260317 557.94775,657.495379 L653.28763,697.964757 Z M608.245289,645.032226 C613.510765,647.267288 615.964301,653.354979 613.725415,658.629465 C611.486528,663.903951 605.403041,666.367891 600.137564,664.132829 L562.001613,647.945078 C556.736137,645.710015 554.282601,639.622324 556.521487,634.347838 C558.760374,629.073353 564.843861,626.609413 570.109337,628.844475 L608.245289,645.032226 Z M707.863958,754.944225 C713.129434,757.179287 715.58297,763.266978 713.344083,768.541464 C711.105197,773.81595 705.021709,776.27989 699.756233,774.044828 L604.416354,733.57545 C599.150878,731.340388 596.697342,725.252697 598.936228,719.978211 C601.175115,714.703725 607.258602,712.239785 612.524079,714.474847 L707.863958,754.944225 Z M720.025545,726.293321 C725.291021,728.528383 727.744557,734.616074 725.505671,739.89056 C723.266784,745.165046 717.183296,747.628986 711.91782,745.393924 L673.781869,729.206173 C668.516392,726.971111 666.062857,720.883419 668.301743,715.608933 C670.540629,710.334448 676.624117,707.870508 681.889593,710.10557 L720.025545,726.293321 Z M677.610804,640.662949 C682.87628,642.898011 685.329816,648.985702 683.09093,654.260188 C680.852043,659.534674 674.768555,661.998613 669.503079,659.763551 L574.1632,619.294174 C568.897724,617.059112 566.444188,610.97142 568.683074,605.696934 C570.921961,600.422449 577.005449,597.958509 582.270925,600.193571 L677.610804,640.662949 Z M744.34872,668.991513 C749.614196,671.226575 752.067731,677.314266 749.828845,682.588752 C747.589959,687.863238 741.506471,690.327178 736.240995,688.092116 L698.105043,671.904365 C692.839567,669.669303 690.386031,663.581611 692.624917,658.307126 C694.863804,653.03264 700.947292,650.5687 706.212768,652.803762 L744.34872,668.991513 Z M901.561329,636.948802 C906.826805,639.183864 909.280341,645.271555 907.041454,650.546041 C904.802568,655.820527 898.71908,658.284467 893.453604,656.049404 L798.113725,615.580027 C792.848249,613.344965 790.394713,607.257273 792.633599,601.982788 C794.872486,596.708302 800.955973,594.244362 806.22145,596.479424 L901.561329,636.948802 Z M856.518989,584.016271 C861.784465,586.251333 864.238,592.339025 861.999114,597.61351 C859.760228,602.887996 853.67674,605.351936 848.411264,603.116874 L810.275312,586.929123 C805.009836,584.694061 802.5563,578.606369 804.795186,573.331884 C807.034073,568.057398 813.117561,565.593458 818.383037,567.82852 L856.518989,584.016271 Z M832.195814,641.318079 C837.46129,643.553141 839.914826,649.640832 837.67594,654.915318 C835.437053,660.189804 829.353565,662.653744 824.088089,660.418682 L785.952138,644.230931 C780.686661,641.995869 778.233126,635.908177 780.472012,630.633692 C782.710898,625.359206 788.794386,622.895266 794.059862,625.130328 L832.195814,641.318079 Z M877.238155,694.25061 C882.503631,696.485672 884.957166,702.573363 882.71828,707.847849 C880.479394,713.122335 874.395906,715.586274 869.13043,713.351212 L773.79055,672.881835 C768.525074,670.646773 766.071538,664.559081 768.310425,659.284596 C770.549311,654.01011 776.632799,651.54617 781.898275,653.781232 L877.238155,694.25061 Z M453.244067,309.279055 C458.509544,311.514117 460.963079,317.601808 458.724193,322.876294 C456.485307,328.15078 450.401819,330.61472 445.136343,328.379658 L349.796463,287.91028 C344.530987,285.675218 342.077451,279.587527 344.316338,274.313041 C346.555224,269.038555 352.638712,266.574615 357.904188,268.809677 L453.244067,309.279055 Z M465.405655,280.628151 C470.671131,282.863213 473.124667,288.950904 470.88578,294.22539 C468.646894,299.499876 462.563406,301.963816 457.29793,299.728754 L419.161978,283.541003 C413.896502,281.305941 411.442966,275.218249 413.681853,269.943764 C415.920739,264.669278 422.004227,262.205338 427.269703,264.4404 L465.405655,280.628151 Z M441.08248,337.929959 C446.347956,340.165021 448.801492,346.252712 446.562606,351.527198 C444.323719,356.801684 438.240232,359.265624 432.974755,357.030562 L394.838804,340.842811 C389.573328,338.607749 387.119792,332.520057 389.358678,327.245571 C391.597565,321.971086 397.681052,319.507146 402.946528,321.742208 L441.08248,337.929959 Z M403.836084,425.67697 C409.10156,427.912032 411.555096,433.999723 409.316209,439.274209 C407.077323,444.548695 400.993835,447.012635 395.728359,444.777573 L357.592407,428.589821 C352.326931,426.354759 349.873395,420.267068 352.112282,414.992582 C354.351168,409.718097 360.434656,407.254157 365.700132,409.489219 L403.836084,425.67697 Z M428.159258,368.375162 C433.424734,370.610224 435.87827,376.697915 433.639384,381.972401 C431.400497,387.246887 425.31701,389.710827 420.051533,387.475765 L381.915582,371.288014 C376.650106,369.052952 374.19657,362.96526 376.435456,357.690774 C378.674343,352.416289 384.75783,349.952349 390.023307,352.187411 L428.159258,368.375162 Z M556.733457,589.353559 C561.998933,591.588621 564.452469,597.676312 562.213583,602.950798 C559.974696,608.225284 553.891208,610.689224 548.625732,608.454162 L510.48978,592.266411 C505.224304,590.031349 502.770769,583.943657 505.009655,578.669171 C507.248541,573.394686 513.332029,570.930746 518.597505,573.165808 L556.733457,589.353559 Z M587.091688,332.280808 C592.357164,334.51587 594.8107,340.603561 592.571814,345.878047 C590.332927,351.152533 584.249439,353.616472 578.983963,351.38141 L483.644084,310.912033 C478.378608,308.676971 475.925072,302.589279 478.163958,297.314794 C480.402845,292.040308 486.486333,289.576368 491.751809,291.81143 L587.091688,332.280808 Z M542.049348,279.348277 C547.314824,281.583339 549.76836,287.671031 547.529473,292.945516 C545.290587,298.220002 539.207099,300.683942 533.941623,298.44888 L495.805671,282.261129 C490.540195,280.026067 488.086659,273.938375 490.325546,268.66389 C492.564432,263.389404 498.64792,260.925464 503.913396,263.160526 L542.049348,279.348277 Z M517.726173,336.650085 C522.991649,338.885147 525.445185,344.972838 523.206299,350.247324 C520.967412,355.52181 514.883925,357.98575 509.618448,355.750688 L471.482497,339.562937 C466.217021,337.327875 463.763485,331.240183 466.002371,325.965698 C468.241258,320.691212 474.324745,318.227272 479.590222,320.462334 L517.726173,336.650085 Z M562.768514,389.582616 C568.03399,391.817678 570.487526,397.905369 568.248639,403.179855 C566.009753,408.454341 559.926265,410.91828 554.660789,408.683218 L459.32091,368.213841 C454.055433,365.978779 451.601898,359.891087 453.840784,354.616602 C456.07967,349.342116 462.163158,346.878176 467.428634,349.113238 L562.768514,389.582616 Z M629.506429,417.91118 C634.771905,420.146242 637.225441,426.233933 634.986555,431.508419 C632.747668,436.782905 626.664181,439.246845 621.398704,437.011783 L583.262753,420.824032 C577.997277,418.58897 575.543741,412.501278 577.782627,407.226793 C580.021514,401.952307 586.105001,399.488367 591.370477,401.723429 L629.506429,417.91118 Z M604.42162,477.007287 C609.687096,479.242349 612.140632,485.33004 609.901746,490.604526 C607.662859,495.879012 601.579371,498.342952 596.313895,496.10789 L500.974016,455.638512 C495.70854,453.40345 493.255004,447.315759 495.49389,442.041273 C497.732777,436.766787 503.816265,434.302847 509.081741,436.537909 L604.42162,477.007287 Z M525.522117,477.329627 C530.787594,479.564689 533.241129,485.65238 531.002243,490.926866 C528.763357,496.201352 522.679869,498.665291 517.414393,496.430229 L422.074513,455.960852 C416.809037,453.72579 414.355501,447.638098 416.594388,442.363612 C418.833274,437.089127 424.916762,434.625187 430.182238,436.860249 L525.522117,477.329627 Z M480.479777,424.397096 C485.745253,426.632158 488.198789,432.719849 485.959902,437.994335 C483.721016,443.268821 477.637528,445.732761 472.372052,443.497699 L434.2361,427.309948 C428.970624,425.074886 426.517089,418.987194 428.755975,413.712708 C430.994861,408.438223 437.078349,405.974283 442.343825,408.209345 L480.479777,424.397096 Z M580.098446,534.309095 C585.363922,536.544157 587.817458,542.631848 585.578571,547.906334 C583.339685,553.18082 577.256197,555.64476 571.990721,553.409698 L476.650842,512.94032 C471.385365,510.705258 468.93183,504.617567 471.170716,499.343081 C473.409602,494.068595 479.49309,491.604655 484.758566,493.839717 L580.098446,534.309095 Z M456.156603,481.698904 C461.422079,483.933966 463.875614,490.021657 461.636728,495.296143 C459.397842,500.570629 453.314354,503.034569 448.048878,500.799507 L409.912926,484.611755 C404.64745,482.376693 402.193914,476.289002 404.432801,471.014516 C406.671687,465.740031 412.755175,463.276091 418.020651,465.511153 L456.156603,481.698904 Z M592.260033,505.658191 C597.525509,507.893253 599.979045,513.980944 597.740158,519.25543 C595.501272,524.529916 589.417784,526.993856 584.152308,524.758794 L546.016356,508.571043 C540.75088,506.335981 538.297344,500.248289 540.536231,494.973804 C542.775117,489.699318 548.858605,487.235378 554.124081,489.47044 L592.260033,505.658191 Z M549.845292,420.027819 C555.110768,422.262881 557.564304,428.350572 555.325417,433.625058 C553.086531,438.899544 547.003043,441.363483 541.737567,439.128421 L446.397688,398.659044 C441.132211,396.423982 438.678676,390.33629 440.917562,385.061805 C443.156448,379.787319 449.239936,377.323379 454.505412,379.558441 L549.845292,420.027819 Z M616.583207,448.356383 C621.848683,450.591445 624.302219,456.679136 622.063333,461.953622 C619.824446,467.228108 613.740959,469.692048 608.475482,467.456986 L570.339531,451.269235 C565.074055,449.034173 562.620519,442.946481 564.859405,437.671996 C567.098292,432.39751 573.181779,429.93357 578.447256,432.168632 L616.583207,448.356383 Z M567.936859,562.959999 C573.202335,565.195061 575.65587,571.282752 573.416984,576.557238 C571.178098,581.831724 565.09461,584.295664 559.829134,582.060602 L521.693182,565.872851 C516.427706,563.637789 513.97417,557.550097 516.213056,552.275611 C518.451943,547.001126 524.535431,544.537186 529.800907,546.772248 L567.936859,562.959999 Z" id="path-1"></path>
    </defs>
    <g id="Landing" stroke="none" stroke-width="1" fill="none" fill-rule="evenodd">
        <g id="Artboard" transform="translate(-309.000000, -214.000000)">
            <mask id="mask-2" fill="white">
                <use xlink:href="#path-1"></use>
            </mask>
            <use id="Combined-Shape" fill="#F8F8FF" xlink:href="#path-1"></use>
        </g>
    </g>
</svg>