<svg id="Layer_1" data-name="Layer 1" xmlns="http://www.w3.org/2000/svg" xmlns:xlink="http://www.w3.org/1999/xlink" viewBox="0 0 610.15 215.4"><defs><style>.cls-1,.cls-14{fill:none;}.cls-2{clip-path:url(#clip-path);}.cls-3{fill:#221f20;}.cls-4{clip-path:url(#clip-path-2);}.cls-5{fill:#3c3c3b;}.cls-6{clip-path:url(#clip-path-5);}.cls-7{fill:#18878a;}.cls-8{clip-path:url(#clip-path-8);}.cls-9{fill:#e0e1db;}.cls-10{clip-path:url(#clip-path-11);}.cls-11{fill:#3b556c;}.cls-12{clip-path:url(#clip-path-14);}.cls-13{fill:#fff;}.cls-14{stroke:#221f20;stroke-miterlimit:10;stroke-width:0.5px;}.cls-15{clip-path:url(#clip-path-17);}.cls-16{clip-path:url(#clip-path-20);}.cls-17{clip-path:url(#clip-path-22);}.cls-18{clip-path:url(#clip-path-24);}.cls-19{clip-path:url(#clip-path-26);}</style><clipPath id="clip-path" transform="translate(5 5)"><rect class="cls-1" width="601" height="206"/></clipPath><clipPath id="clip-path-2" transform="translate(5 5)"><rect class="cls-1" y="0.25" width="84.6" height="84.6"/></clipPath><clipPath id="clip-path-5" transform="translate(5 5)"><rect class="cls-1" x="128.89" y="0.25" width="84.6" height="84.6"/></clipPath><clipPath id="clip-path-8" transform="translate(5 5)"><rect class="cls-1" x="386.66" width="84.6" height="84.6"/></clipPath><clipPath id="clip-path-11" transform="translate(5 5)"><rect class="cls-1" x="515.55" y="0.25" width="84.6" height="84.6"/></clipPath><clipPath id="clip-path-14" transform="translate(5 5)"><rect class="cls-1" x="257.77" y="0.25" width="84.6" height="84.6"/></clipPath><clipPath id="clip-path-17" transform="translate(5 5)"><rect class="cls-1" x="0.25" y="185.25" width="231.1" height="19.9"/></clipPath><clipPath id="clip-path-20" transform="translate(5 5)"><rect class="cls-1" x="231.6" y="185" width="127.2" height="20.4"/></clipPath><clipPath id="clip-path-22" transform="translate(5 5)"><rect class="cls-1" x="358.8" y="185" width="127.2" height="20.4"/></clipPath><clipPath id="clip-path-24" transform="translate(5 5)"><rect class="cls-1" x="486" y="185" width="56.95" height="20.4"/></clipPath><clipPath id="clip-path-26" transform="translate(5 5)"><rect class="cls-1" x="543.2" y="185" width="56.95" height="20.4"/></clipPath></defs><title>mentalligence_colors</title><g class="cls-2"><path class="cls-3" d="M.7,98.81a1.31,1.31,0,0,1,.33,0H2.34a4.47,4.47,0,0,1,1.27.16,2.34,2.34,0,0,1,.83.44,2.09,2.09,0,0,1,.62.93,4.1,4.1,0,0,1,.19,1.25,3.93,3.93,0,0,1-.13,1,1.87,1.87,0,0,1-.48.83,2.23,2.23,0,0,1-.93.57,4.7,4.7,0,0,1-1.53.21H1.46a4.87,4.87,0,0,1-.76-.06Zm1.71,4.6A1.93,1.93,0,0,0,3.82,103a2.11,2.11,0,0,0,.44-1.51,3.32,3.32,0,0,0-.09-.82,1.32,1.32,0,0,0-.31-.6,1.38,1.38,0,0,0-.6-.36,3.16,3.16,0,0,0-.94-.12h-.7v3.84l.44,0Z" transform="translate(5 5)"/><path class="cls-3" d="M8.29,104.09l-.07-.51h0a1.41,1.41,0,0,1-.59.44,1.81,1.81,0,0,1-.75.16,1,1,0,0,1-.79-.29,1,1,0,0,1-.29-.77,1.17,1.17,0,0,1,.14-.59,1.29,1.29,0,0,1,.4-.44,2,2,0,0,1,.63-.27,3,3,0,0,1,.83-.1h.34v-.12a.52.52,0,0,0-.2-.46,1.21,1.21,0,0,0-.65-.14,2.15,2.15,0,0,0-1,.26L6,100.6a2.53,2.53,0,0,1,1.3-.31,1.92,1.92,0,0,1,1.21.33,1.12,1.12,0,0,1,.32.39,1.26,1.26,0,0,1,.12.57v2.51Zm-1.1-.62a1.19,1.19,0,0,0,.51-.12,1.13,1.13,0,0,0,.41-.33v-.73H8a2,2,0,0,0-1,.17.56.56,0,0,0-.3.53A.43.43,0,0,0,7.19,103.47Z" transform="translate(5 5)"/><path class="cls-3" d="M12.16,101.21a.74.74,0,0,0-.25-.11,1.81,1.81,0,0,0-.29,0,.45.45,0,0,0-.26.08.7.7,0,0,0-.18.2,1.22,1.22,0,0,0-.14.28c0,.11-.07.22-.1.33v2.14h-.88v-3.68h.68l0,.77h0c0-.12.11-.22.16-.33a2.11,2.11,0,0,1,.2-.29,1.64,1.64,0,0,1,.26-.2.78.78,0,0,1,.35-.07,1,1,0,0,1,.6.21Z" transform="translate(5 5)"/><path class="cls-3" d="M14.82,101.7l1.57,2.39h-1l-1.19-1.81-.31.31v1.5h-.88V98.17h.88v3.41l1.22-1.17h1Z" transform="translate(5 5)"/><path class="cls-3" d="M23.2,103.65a3.27,3.27,0,0,1-.82.39,3.31,3.31,0,0,1-1,.14,2.83,2.83,0,0,1-1.14-.21,2.29,2.29,0,0,1-.8-.59,2.35,2.35,0,0,1-.47-.85,3.42,3.42,0,0,1-.15-1,3.36,3.36,0,0,1,.17-1.06,2.51,2.51,0,0,1,.5-.87A2.41,2.41,0,0,1,20.3,99a2.93,2.93,0,0,1,1.16-.21,4.38,4.38,0,0,1,.88.09,3.86,3.86,0,0,1,.79.25l-.26.83a3.72,3.72,0,0,0-.63-.27,2.57,2.57,0,0,0-.82-.12,2.17,2.17,0,0,0-.77.13,1.32,1.32,0,0,0-.51.38,1.85,1.85,0,0,0-.28.6,3.7,3.7,0,0,0-.08.79q0,2,1.65,2a1.86,1.86,0,0,0,.47-.05l.38-.11v-1.33h.92Z" transform="translate(5 5)"/><path class="cls-3" d="M26.2,101.21a.74.74,0,0,0-.25-.11,1.81,1.81,0,0,0-.29,0,.45.45,0,0,0-.26.08.7.7,0,0,0-.18.2,1.22,1.22,0,0,0-.14.28c0,.11-.07.22-.1.33v2.14H24.1v-3.68h.68l0,.77h0c.05-.12.11-.22.16-.33a2.11,2.11,0,0,1,.2-.29,1.64,1.64,0,0,1,.26-.2.78.78,0,0,1,.35-.07,1,1,0,0,1,.6.21Z" transform="translate(5 5)"/><path class="cls-3" d="M29.26,104.09l-.07-.51h0a1.41,1.41,0,0,1-.59.44,1.84,1.84,0,0,1-.75.16,1.07,1.07,0,0,1-.8-.29,1,1,0,0,1-.28-.77,1.17,1.17,0,0,1,.14-.59,1.19,1.19,0,0,1,.4-.44,2,2,0,0,1,.63-.27,3,3,0,0,1,.83-.1h.34v-.12a.54.54,0,0,0-.2-.46,1.23,1.23,0,0,0-.65-.14,2.15,2.15,0,0,0-1.05.26L27,100.6a2.52,2.52,0,0,1,1.29-.31,1.93,1.93,0,0,1,1.22.33,1.24,1.24,0,0,1,.32.39,1.26,1.26,0,0,1,.12.57v2.51Zm-1.1-.62a1.19,1.19,0,0,0,.51-.12,1.13,1.13,0,0,0,.41-.33v-.73h-.15a2,2,0,0,0-1,.17.56.56,0,0,0-.3.53A.43.43,0,0,0,28.16,103.47Z" transform="translate(5 5)"/><path class="cls-3" d="M32.53,103l1-2.61h.85l-1.52,3.71a4.53,4.53,0,0,1-.31.63,3.65,3.65,0,0,1-.46.65,2.51,2.51,0,0,1-.61.52,1.25,1.25,0,0,1-.72.22h-.1l-.07,0-.15-.69.05,0h.14a1.53,1.53,0,0,0,.3,0,1,1,0,0,0,.3-.13,1.74,1.74,0,0,0,.5-.51,5.07,5.07,0,0,0,.41-.81l-1.83-3.56h.92Z" transform="translate(5 5)"/><path class="cls-3" d="M3.65,111.52h1l-.08.42h-1l-.21,1h1l-.08.42h-1l-.37,1.78H2.38l.37-1.78h-1l-.37,1.78H.86l.37-1.78H.3l.08-.42h.94l.21-1h-1l.08-.42h1L2,109.86h.51l-.35,1.66h1l.35-1.66H4Zm-1.82,1.37h1l.21-1H2Z" transform="translate(5 5)"/><path class="cls-3" d="M5.53,110.16l.31-.15.35-.13a1.63,1.63,0,0,1,.37-.08l.34,0a1.74,1.74,0,0,1,1.15.35,1.22,1.22,0,0,1,.43,1,1,1,0,0,1-.22.62,1.84,1.84,0,0,1-.54.46,1.53,1.53,0,0,1,.75.48,1.25,1.25,0,0,1,.27.84,1.69,1.69,0,0,1-.12.64,1.55,1.55,0,0,1-.37.52,1.86,1.86,0,0,1-.62.35,2.47,2.47,0,0,1-.86.13,2.63,2.63,0,0,1-.86-.13,2.43,2.43,0,0,1-.7-.36l.16-.54a2.11,2.11,0,0,0,1.37.51,1.43,1.43,0,0,0,1-.3,1.11,1.11,0,0,0,.34-.88.9.9,0,0,0-.31-.72,1.55,1.55,0,0,0-1-.27H6.51V112h.25a1.09,1.09,0,0,0,.78-.25.93.93,0,0,0,.28-.7.84.84,0,0,0-.2-.57A.87.87,0,0,0,7,110.3l-.37,0-.35.08a2.22,2.22,0,0,0-.31.13,1.18,1.18,0,0,0-.25.15Z" transform="translate(5 5)"/><path class="cls-3" d="M9.81,110.16l.31-.15.35-.13a1.63,1.63,0,0,1,.37-.08l.34,0a1.74,1.74,0,0,1,1.15.35,1.22,1.22,0,0,1,.43,1,1,1,0,0,1-.22.62,1.84,1.84,0,0,1-.54.46,1.53,1.53,0,0,1,.75.48,1.25,1.25,0,0,1,.27.84,1.69,1.69,0,0,1-.12.64,1.55,1.55,0,0,1-.37.52,1.86,1.86,0,0,1-.62.35,2.47,2.47,0,0,1-.86.13,2.63,2.63,0,0,1-.86-.13,2.43,2.43,0,0,1-.7-.36l.16-.54a2.11,2.11,0,0,0,1.37.51,1.43,1.43,0,0,0,1-.3,1.11,1.11,0,0,0,.34-.88.9.9,0,0,0-.31-.72,1.55,1.55,0,0,0-1-.27h-.22V112H11a1.09,1.09,0,0,0,.78-.25.93.93,0,0,0,.28-.7.84.84,0,0,0-.2-.57.87.87,0,0,0-.67-.21l-.37,0-.35.08a2.22,2.22,0,0,0-.31.13,1.18,1.18,0,0,0-.25.15Z" transform="translate(5 5)"/><path class="cls-3" d="M14.09,110.16l.31-.15.35-.13a1.63,1.63,0,0,1,.37-.08l.34,0a1.74,1.74,0,0,1,1.15.35,1.22,1.22,0,0,1,.43,1,1,1,0,0,1-.22.62,1.84,1.84,0,0,1-.54.46,1.53,1.53,0,0,1,.75.48,1.25,1.25,0,0,1,.27.84,1.69,1.69,0,0,1-.12.64,1.55,1.55,0,0,1-.37.52,1.86,1.86,0,0,1-.62.35,2.47,2.47,0,0,1-.86.13,2.63,2.63,0,0,1-.86-.13,2.43,2.43,0,0,1-.7-.36l.16-.54a2.11,2.11,0,0,0,1.37.51,1.45,1.45,0,0,0,1-.3,1.11,1.11,0,0,0,.34-.88.9.9,0,0,0-.31-.72,1.55,1.55,0,0,0-1-.27h-.22V112h.25a1.09,1.09,0,0,0,.78-.25.93.93,0,0,0,.28-.7.84.84,0,0,0-.2-.57.87.87,0,0,0-.67-.21l-.37,0-.35.08a2.22,2.22,0,0,0-.31.13,1.18,1.18,0,0,0-.25.15Z" transform="translate(5 5)"/><path class="cls-3" d="M21.42,113.41h-.55v1.68h-.6v-1.68H18v-.56l2.23-3h.64v3h.55Zm-1.15-.56v-2.17l-1.59,2.17Z" transform="translate(5 5)"/><path class="cls-3" d="M22.43,110.16l.31-.15a3,3,0,0,1,.36-.13,1.55,1.55,0,0,1,.36-.08l.35,0a1.73,1.73,0,0,1,1.14.35,1.22,1.22,0,0,1,.43,1,1,1,0,0,1-.22.62,1.61,1.61,0,0,1-.54.46,1.53,1.53,0,0,1,.75.48,1.25,1.25,0,0,1,.27.84,1.69,1.69,0,0,1-.12.64,1.42,1.42,0,0,1-.37.52,1.81,1.81,0,0,1-.61.35,2.57,2.57,0,0,1-.87.13,2.67,2.67,0,0,1-.86-.13,2.57,2.57,0,0,1-.7-.36l.16-.54a2.22,2.22,0,0,0,.63.37,2,2,0,0,0,.75.14,1.46,1.46,0,0,0,1-.3,1.14,1.14,0,0,0,.34-.88.93.93,0,0,0-.31-.72,1.58,1.58,0,0,0-1-.27h-.21V112h.24a1.09,1.09,0,0,0,.78-.25.9.9,0,0,0,.28-.7.84.84,0,0,0-.19-.57.88.88,0,0,0-.67-.21,2.22,2.22,0,0,0-.37,0l-.35.08-.32.13a.9.9,0,0,0-.24.15Z" transform="translate(5 5)"/><path class="cls-3" d="M29.77,113.41h-.55v1.68h-.6v-1.68H26.34v-.56l2.24-3h.64v3h.55Zm-1.15-.56v-2.17L27,112.85Z" transform="translate(5 5)"/><path class="cls-3" d="M.79,120.78H2a3.22,3.22,0,0,1,.79.1,2.09,2.09,0,0,1,.6.29,1.29,1.29,0,0,1,.39.48,1.35,1.35,0,0,1,.14.65,1.48,1.48,0,0,1-.28.9,1.56,1.56,0,0,1-.89.56l2,2.33H4l-2-2.26-.64,0v2.28H.79ZM2,121.3H1.39v2h.66a1.3,1.3,0,0,0,.89-.27,1,1,0,0,0,.3-.8.87.87,0,0,0-.27-.67A1.35,1.35,0,0,0,2,121.3Z" transform="translate(5 5)"/><path class="cls-3" d="M9.54,125.65a3.45,3.45,0,0,1-.82.39,3.33,3.33,0,0,1-1,.14A2.83,2.83,0,0,1,6.55,126a2.25,2.25,0,0,1-.79-.59,2.35,2.35,0,0,1-.47-.85,3.42,3.42,0,0,1-.15-1,3.36,3.36,0,0,1,.16-1.06,2.68,2.68,0,0,1,.5-.87,2.5,2.5,0,0,1,.83-.59,2.91,2.91,0,0,1,1.15-.21,4.43,4.43,0,0,1,.9.09,4,4,0,0,1,.78.25l-.16.58a2.26,2.26,0,0,0-.66-.28,3.24,3.24,0,0,0-.91-.11,2.44,2.44,0,0,0-.91.15,1.55,1.55,0,0,0-.59.44,1.75,1.75,0,0,0-.33.67,3.49,3.49,0,0,0-.1.88,2.51,2.51,0,0,0,.48,1.66,1.8,1.8,0,0,0,1.43.56,2.71,2.71,0,0,0,.66-.08,2.38,2.38,0,0,0,.57-.18v-1.49h.6Z" transform="translate(5 5)"/><path class="cls-3" d="M10.85,120.78h1.23a1.76,1.76,0,0,1,1.14.35,1.23,1.23,0,0,1,.44,1,1.24,1.24,0,0,1-.14.58,1.07,1.07,0,0,1-.41.44,1.49,1.49,0,0,1,.75.5,1.32,1.32,0,0,1,.28.87,1.69,1.69,0,0,1-.12.64,1.55,1.55,0,0,1-.37.52,1.86,1.86,0,0,1-.62.35,2.47,2.47,0,0,1-.86.13c-.26,0-.51,0-.73,0l-.59-.07ZM11.94,123a1.13,1.13,0,0,0,.78-.25.91.91,0,0,0,.27-.7.79.79,0,0,0-.19-.56.88.88,0,0,0-.67-.22h-.68V123h.49Zm.2,2.63a1.43,1.43,0,0,0,1-.3,1.1,1.1,0,0,0,.34-.88.9.9,0,0,0-.31-.72,1.62,1.62,0,0,0-1-.26h-.68v2.13Q11.77,125.66,12.14,125.66Z" transform="translate(5 5)"/><path class="cls-3" d="M18.81,120a4.78,4.78,0,0,0-.56.76,4.48,4.48,0,0,0-.37.8,4.28,4.28,0,0,0-.21.89,7.79,7.79,0,0,0-.06,1c0,.22,0,.46,0,.73a3.87,3.87,0,0,0,.14.84,5.12,5.12,0,0,0,.36.92,4.86,4.86,0,0,0,.66,1l-.3.1a4.79,4.79,0,0,1-1.19-1.6,4.69,4.69,0,0,1-.42-2,4.53,4.53,0,0,1,.42-1.93,5.07,5.07,0,0,1,1.19-1.62Z" transform="translate(5 5)"/><path class="cls-3" d="M19.59,123.55l.3-2.78H22.6v.56H20.39l-.21,1.7c.17,0,.34-.07.52-.09a5,5,0,0,1,.51,0,2.41,2.41,0,0,1,.67.1,1.48,1.48,0,0,1,.52.3,1.19,1.19,0,0,1,.35.47,1.67,1.67,0,0,1,.12.65,2,2,0,0,1-.12.68,1.58,1.58,0,0,1-.36.56,1.86,1.86,0,0,1-.61.38,2.34,2.34,0,0,1-.87.14,2.67,2.67,0,0,1-.86-.13,2.57,2.57,0,0,1-.7-.36l.17-.56a3.69,3.69,0,0,0,.62.38,1.87,1.87,0,0,0,.78.15,1.39,1.39,0,0,0,.95-.3,1.12,1.12,0,0,0,.35-.88,1.31,1.31,0,0,0-.06-.41.69.69,0,0,0-.21-.32,1,1,0,0,0-.39-.21,2.47,2.47,0,0,0-.6-.07,3.9,3.9,0,0,0-.58,0,2.73,2.73,0,0,0-.56.15Z" transform="translate(5 5)"/><path class="cls-3" d="M23.73,121.16l.34-.15.4-.13a1.86,1.86,0,0,1,.41-.08l.41,0a2.08,2.08,0,0,1,.63.09,1.64,1.64,0,0,1,.49.27,1.17,1.17,0,0,1,.32.41,1.27,1.27,0,0,1,.11.52,1.68,1.68,0,0,1-.25.88,4.76,4.76,0,0,1-.62.86c-.25.29-.52.58-.81.86s-.57.58-.82.87H26.9v.56H23.66v-.56a9.48,9.48,0,0,1,.8-.91l.82-.87a5.2,5.2,0,0,0,.64-.84,1.59,1.59,0,0,0,.26-.84,1,1,0,0,0-.05-.3.73.73,0,0,0-.15-.25.76.76,0,0,0-.28-.16,1.35,1.35,0,0,0-.43-.06l-.37,0-.39.09a3,3,0,0,0-.36.13,1.46,1.46,0,0,0-.28.15Z" transform="translate(5 5)"/><path class="cls-3" d="M27.9,126.71l.31-.58H28v-.72h.63v.84l-.58.61Z" transform="translate(5 5)"/><path class="cls-3" d="M29.91,123.55l.3-2.78h2.71v.56H30.71L30.5,123c.17,0,.34-.07.52-.09a5,5,0,0,1,.51,0,2.41,2.41,0,0,1,.67.1,1.48,1.48,0,0,1,.52.3,1.19,1.19,0,0,1,.35.47,1.67,1.67,0,0,1,.12.65,2,2,0,0,1-.12.68,1.58,1.58,0,0,1-.36.56,2,2,0,0,1-.61.38,2.34,2.34,0,0,1-.87.14,2.67,2.67,0,0,1-.86-.13,2.57,2.57,0,0,1-.7-.36l.17-.56a3.69,3.69,0,0,0,.62.38,1.87,1.87,0,0,0,.78.15,1.39,1.39,0,0,0,.95-.3,1.12,1.12,0,0,0,.35-.88,1.31,1.31,0,0,0-.06-.41.69.69,0,0,0-.21-.32,1,1,0,0,0-.39-.21,2.47,2.47,0,0,0-.6-.07,3.9,3.9,0,0,0-.58,0,2.73,2.73,0,0,0-.56.15Z" transform="translate(5 5)"/><path class="cls-3" d="M34.05,121.16l.34-.15.4-.13a1.86,1.86,0,0,1,.41-.08l.41,0a2.08,2.08,0,0,1,.63.09,1.64,1.64,0,0,1,.49.27,1.17,1.17,0,0,1,.32.41,1.27,1.27,0,0,1,.11.52,1.68,1.68,0,0,1-.25.88,4.76,4.76,0,0,1-.62.86c-.25.29-.52.58-.81.86s-.57.58-.82.87h2.56v.56H34v-.56a9.48,9.48,0,0,1,.8-.91l.82-.87a5.2,5.2,0,0,0,.64-.84,1.59,1.59,0,0,0,.26-.84,1,1,0,0,0,0-.3.73.73,0,0,0-.15-.25.76.76,0,0,0-.28-.16,1.35,1.35,0,0,0-.43-.06l-.37,0-.39.09a3,3,0,0,0-.36.13,1.46,1.46,0,0,0-.28.15Z" transform="translate(5 5)"/><path class="cls-3" d="M38.22,126.71l.31-.58h-.2v-.72H39v.84l-.58.61Z" transform="translate(5 5)"/><path class="cls-3" d="M40.23,123.55l.3-2.78h2.71v.56H41l-.21,1.7c.17,0,.34-.07.52-.09a4.75,4.75,0,0,1,.51,0,2.41,2.41,0,0,1,.67.1,1.48,1.48,0,0,1,.52.3,1.19,1.19,0,0,1,.35.47,1.67,1.67,0,0,1,.12.65,2,2,0,0,1-.12.68,1.58,1.58,0,0,1-.36.56,2,2,0,0,1-.61.38,2.34,2.34,0,0,1-.87.14,2.67,2.67,0,0,1-.86-.13,2.57,2.57,0,0,1-.7-.36l.17-.56a3.33,3.33,0,0,0,.62.38,1.87,1.87,0,0,0,.78.15,1.41,1.41,0,0,0,.95-.3,1.12,1.12,0,0,0,.35-.88,1.31,1.31,0,0,0-.06-.41.69.69,0,0,0-.21-.32,1,1,0,0,0-.39-.21,2.47,2.47,0,0,0-.6-.07,3.9,3.9,0,0,0-.58,0,2.73,2.73,0,0,0-.56.15Z" transform="translate(5 5)"/><path class="cls-3" d="M44.37,121.16l.34-.15.4-.13a1.86,1.86,0,0,1,.41-.08l.41,0a2.08,2.08,0,0,1,.63.09,1.64,1.64,0,0,1,.49.27,1.17,1.17,0,0,1,.32.41,1.27,1.27,0,0,1,.11.52,1.68,1.68,0,0,1-.25.88,4.76,4.76,0,0,1-.62.86c-.25.29-.52.58-.81.86s-.57.58-.82.87h2.56v.56H44.3v-.56a9.48,9.48,0,0,1,.8-.91l.82-.87a5.2,5.2,0,0,0,.64-.84,1.59,1.59,0,0,0,.26-.84,1,1,0,0,0,0-.3.73.73,0,0,0-.15-.25.76.76,0,0,0-.28-.16,1.35,1.35,0,0,0-.43-.06l-.37,0-.39.09a3,3,0,0,0-.36.13,1.46,1.46,0,0,0-.28.15Z" transform="translate(5 5)"/><path class="cls-3" d="M48.46,119.92a5.1,5.1,0,0,1,1.2,1.62,4.53,4.53,0,0,1,.42,1.93,4.69,4.69,0,0,1-.42,2,4.81,4.81,0,0,1-1.2,1.6l-.29-.1a5.25,5.25,0,0,0,.65-1,5.12,5.12,0,0,0,.36-.92,4.67,4.67,0,0,0,.15-.84c0-.27,0-.51,0-.73a7.79,7.79,0,0,0-.06-1,6.09,6.09,0,0,0-.21-.89,4.48,4.48,0,0,0-.37-.8,5.48,5.48,0,0,0-.56-.76Z" transform="translate(5 5)"/><path class="cls-3" d="M4.54,132.69a2.37,2.37,0,0,0-.64-.28,2.78,2.78,0,0,0-.85-.11,2.44,2.44,0,0,0-.91.15,1.55,1.55,0,0,0-.59.44,1.75,1.75,0,0,0-.33.67,3.49,3.49,0,0,0-.1.88,2.51,2.51,0,0,0,.48,1.66,1.8,1.8,0,0,0,1.43.56,2.75,2.75,0,0,0,.93-.15,2.06,2.06,0,0,0,.68-.35l.16.54A4.31,4.31,0,0,1,4,137a3.23,3.23,0,0,1-1,.14A2.83,2.83,0,0,1,1.87,137a2.25,2.25,0,0,1-.79-.59,2.35,2.35,0,0,1-.47-.85,3.42,3.42,0,0,1-.15-1,3.36,3.36,0,0,1,.16-1.06,2.68,2.68,0,0,1,.5-.87A2.5,2.5,0,0,1,2,132a2.91,2.91,0,0,1,1.15-.21,4.26,4.26,0,0,1,.86.09,3,3,0,0,1,.74.25Z" transform="translate(5 5)"/><path class="cls-3" d="M6.23,134.47a1.16,1.16,0,0,1,.24-.29,1.65,1.65,0,0,1,.32-.18,2.22,2.22,0,0,1,.37-.09l.38,0a1.75,1.75,0,0,1,.82.17,1.43,1.43,0,0,1,.48.42,1.41,1.41,0,0,1,.24.53,2.49,2.49,0,0,1,.06.5,2,2,0,0,1-.09.59,1.71,1.71,0,0,1-.29.55,1.62,1.62,0,0,1-.53.39,1.87,1.87,0,0,1-.78.15A1.82,1.82,0,0,1,6.6,137,1.52,1.52,0,0,1,6,136.5a2.19,2.19,0,0,1-.3-.78,4.58,4.58,0,0,1-.1-1,6.38,6.38,0,0,1,.09-1.08,2.92,2.92,0,0,1,.32-.93,1.93,1.93,0,0,1,.61-.66,1.72,1.72,0,0,1,1-.25h.3a2,2,0,0,1,.34.06,2,2,0,0,1,.34.12,1.21,1.21,0,0,1,.29.19l-.14.53a1.6,1.6,0,0,0-.57-.31,2,2,0,0,0-.55-.08,1.22,1.22,0,0,0-.69.17,1.27,1.27,0,0,0-.44.45,1.77,1.77,0,0,0-.23.62,3.23,3.23,0,0,0-.07.69v.12a.45.45,0,0,0,0,.11Zm2.29,1a1.86,1.86,0,0,0,0-.42,1,1,0,0,0-.17-.36.88.88,0,0,0-.31-.26,1.16,1.16,0,0,0-.49-.09,1.1,1.1,0,0,0-.88.33,1.33,1.33,0,0,0-.28.84,1.17,1.17,0,0,0,.29.84,1.06,1.06,0,0,0,.82.32,1,1,0,0,0,.78-.32A1.26,1.26,0,0,0,8.52,135.5Z" transform="translate(5 5)"/><path class="cls-3" d="M12.86,134.49a.85.85,0,0,1-.24.29,1.4,1.4,0,0,1-.32.18,2.11,2.11,0,0,1-.36.09l-.39,0a1.71,1.71,0,0,1-.81-.17,1.57,1.57,0,0,1-.49-.42A1.55,1.55,0,0,1,10,134a2,2,0,0,1-.07-.5,2,2,0,0,1,.09-.59,1.56,1.56,0,0,1,.3-.55,1.52,1.52,0,0,1,.53-.39,1.81,1.81,0,0,1,.78-.15,2,2,0,0,1,.85.17,1.42,1.42,0,0,1,.55.51,2.28,2.28,0,0,1,.31.78,5.34,5.34,0,0,1,.1,1,5.49,5.49,0,0,1-.1,1.08,2.69,2.69,0,0,1-.32.93,1.84,1.84,0,0,1-.61.66,1.67,1.67,0,0,1-1,.25h-.29a2.14,2.14,0,0,1-.35-.06,2,2,0,0,1-.34-.12.92.92,0,0,1-.28-.19l.13-.53a1.73,1.73,0,0,0,.58.31,1.86,1.86,0,0,0,.54.08A1.22,1.22,0,0,0,12.6,136a2,2,0,0,0,.23-.62,4,4,0,0,0,.07-.69v-.12s0-.07,0-.11Zm-2.28-1a1.42,1.42,0,0,0,.05.42.86.86,0,0,0,.17.36.8.8,0,0,0,.31.26,1.14,1.14,0,0,0,.48.09,1.08,1.08,0,0,0,.88-.33,1.27,1.27,0,0,0,.28-.84,1.13,1.13,0,0,0-.29-.84,1.16,1.16,0,0,0-1.6,0A1.27,1.27,0,0,0,10.58,133.46Z" transform="translate(5 5)"/><path class="cls-3" d="M19.31,136.34l1.79-4.53h.77v5.28h-.6v-4l-1.61,4h-.72l-1.63-4v4h-.6v-5.28h.81Z" transform="translate(5 5)"/><path class="cls-3" d="M23.28,134.55l.3-2.78h2.71v.56H24.08l-.21,1.7c.17,0,.34-.07.52-.09a4.75,4.75,0,0,1,.51,0,2.28,2.28,0,0,1,.66.1,1.53,1.53,0,0,1,.53.3,1.29,1.29,0,0,1,.35.47,1.67,1.67,0,0,1,.12.65,2,2,0,0,1-.12.68,1.58,1.58,0,0,1-.36.56,1.91,1.91,0,0,1-.62.38,2.25,2.25,0,0,1-.86.14,2.63,2.63,0,0,1-.86-.13,2.57,2.57,0,0,1-.7-.36l.17-.56a3,3,0,0,0,.62.38,1.87,1.87,0,0,0,.78.15,1.41,1.41,0,0,0,.95-.3,1.11,1.11,0,0,0,.34-.88,1.31,1.31,0,0,0-.06-.41.76.76,0,0,0-.2-.32,1,1,0,0,0-.39-.21,2.47,2.47,0,0,0-.6-.07,3.9,3.9,0,0,0-.58.05,2.56,2.56,0,0,0-.56.15Z" transform="translate(5 5)"/><path class="cls-3" d="M30.29,134.49a1.16,1.16,0,0,1-.24.29,1.65,1.65,0,0,1-.32.18,2.22,2.22,0,0,1-.37.09l-.38,0a1.75,1.75,0,0,1-.82-.17,1.43,1.43,0,0,1-.48-.42,1.41,1.41,0,0,1-.24-.53,2.49,2.49,0,0,1-.06-.5,2,2,0,0,1,.09-.59,1.71,1.71,0,0,1,.29-.55,1.62,1.62,0,0,1,.53-.39,1.87,1.87,0,0,1,.78-.15,2,2,0,0,1,.85.17,1.52,1.52,0,0,1,.56.51,2.27,2.27,0,0,1,.3.78,4.64,4.64,0,0,1,.1,1,6.38,6.38,0,0,1-.09,1.08,2.92,2.92,0,0,1-.32.93,1.93,1.93,0,0,1-.61.66,1.72,1.72,0,0,1-1,.25h-.3a2,2,0,0,1-.34-.06,1.7,1.7,0,0,1-.34-.12,1,1,0,0,1-.29-.19l.14-.53a1.6,1.6,0,0,0,.57.31,2,2,0,0,0,.55.08,1.22,1.22,0,0,0,.69-.17A1.27,1.27,0,0,0,30,136a1.77,1.77,0,0,0,.23-.62,3.23,3.23,0,0,0,.07-.69v-.12a.45.45,0,0,0,0-.11Zm-2.29-1a1.86,1.86,0,0,0,.05.42,1,1,0,0,0,.17.36.88.88,0,0,0,.31.26,1.16,1.16,0,0,0,.49.09,1.1,1.1,0,0,0,.88-.33,1.33,1.33,0,0,0,.28-.84,1.17,1.17,0,0,0-.29-.84,1.06,1.06,0,0,0-.82-.32,1,1,0,0,0-.78.32A1.28,1.28,0,0,0,28,133.46Z" transform="translate(5 5)"/><path class="cls-3" d="M32.68,131.81h.71l1.67,2.53,1.62-2.53h.7l-2.05,3.11v2.17h-.6V135Z" transform="translate(5 5)"/><path class="cls-3" d="M37.91,134.55l.3-2.78h2.71v.56H38.71L38.5,134c.17,0,.34-.07.52-.09a4.75,4.75,0,0,1,.51,0,2.28,2.28,0,0,1,.66.1,1.44,1.44,0,0,1,.53.3,1.29,1.29,0,0,1,.35.47,1.67,1.67,0,0,1,.12.65,2,2,0,0,1-.12.68,1.58,1.58,0,0,1-.36.56,1.91,1.91,0,0,1-.62.38,2.25,2.25,0,0,1-.86.14,2.63,2.63,0,0,1-.86-.13,2.57,2.57,0,0,1-.7-.36l.17-.56a3.33,3.33,0,0,0,.62.38,1.87,1.87,0,0,0,.78.15,1.41,1.41,0,0,0,.95-.3,1.12,1.12,0,0,0,.35-.88,1.31,1.31,0,0,0-.06-.41.69.69,0,0,0-.21-.32,1,1,0,0,0-.39-.21,2.47,2.47,0,0,0-.6-.07,3.9,3.9,0,0,0-.58.05,2.73,2.73,0,0,0-.56.15Z" transform="translate(5 5)"/><path class="cls-3" d="M42.7,134.47a.85.85,0,0,1,.24-.29,1.57,1.57,0,0,1,.31-.18,2.49,2.49,0,0,1,.37-.09,2.56,2.56,0,0,1,.39,0,1.71,1.71,0,0,1,.81.17,1.57,1.57,0,0,1,.49.42,1.55,1.55,0,0,1,.23.53,2,2,0,0,1,.07.5,2,2,0,0,1-.09.59,2,2,0,0,1-.3.55,1.52,1.52,0,0,1-.53.39,1.81,1.81,0,0,1-.78.15,1.84,1.84,0,0,1-.85-.17,1.42,1.42,0,0,1-.55-.51,2.2,2.2,0,0,1-.31-.78,5.26,5.26,0,0,1-.1-1,5.49,5.49,0,0,1,.1-1.08,2.69,2.69,0,0,1,.32-.93,1.84,1.84,0,0,1,.61-.66,1.67,1.67,0,0,1,1-.25h.29a2.14,2.14,0,0,1,.35.06,2.3,2.3,0,0,1,.34.12,1.15,1.15,0,0,1,.28.19l-.13.53a1.73,1.73,0,0,0-.58-.31,1.91,1.91,0,0,0-.54-.08,1.22,1.22,0,0,0-1.14.62,2,2,0,0,0-.23.62,4,4,0,0,0-.07.69v.12s0,.07,0,.11Zm2.28,1a1.42,1.42,0,0,0,0-.42.86.86,0,0,0-.17-.36.8.8,0,0,0-.31-.26,1.14,1.14,0,0,0-.48-.09,1.08,1.08,0,0,0-.88.33,1.27,1.27,0,0,0-.28.84,1.13,1.13,0,0,0,.29.84,1.16,1.16,0,0,0,1.6,0A1.26,1.26,0,0,0,45,135.5Z" transform="translate(5 5)"/><path class="cls-3" d="M49.36,134.3a4.63,4.63,0,0,0,.4-.3c.12-.1.26-.23.41-.38a9.64,9.64,0,0,0,.8-.86c.26-.31.51-.63.73-.95h.69q-.2.28-.42.57l-.47.58-.47.54-.45.46-.16.16-.15.14,2.45,2.83H52l-2.14-2.45-.47.36v2.09h-.6v-5.28h.6Z" transform="translate(5 5)"/><path class="cls-3" d="M53.85,134.47a.85.85,0,0,1,.24-.29,1.4,1.4,0,0,1,.32-.18,2.11,2.11,0,0,1,.36-.09,2.56,2.56,0,0,1,.39,0,1.75,1.75,0,0,1,.82.17,1.65,1.65,0,0,1,.48.42,1.55,1.55,0,0,1,.23.53,2,2,0,0,1,.07.5,2,2,0,0,1-.09.59,1.56,1.56,0,0,1-.3.55,1.52,1.52,0,0,1-.53.39,1.81,1.81,0,0,1-.78.15,1.84,1.84,0,0,1-.85-.17,1.49,1.49,0,0,1-.55-.51,2.4,2.4,0,0,1-.31-.78,5.26,5.26,0,0,1-.1-1,6.38,6.38,0,0,1,.1-1.08,2.92,2.92,0,0,1,.32-.93,1.84,1.84,0,0,1,.61-.66,1.69,1.69,0,0,1,1-.25h.3l.34.06a2,2,0,0,1,.34.12,1.15,1.15,0,0,1,.28.19l-.13.53a1.64,1.64,0,0,0-.58-.31,1.86,1.86,0,0,0-.54-.08,1.25,1.25,0,0,0-1.14.62,2.28,2.28,0,0,0-.23.62,4,4,0,0,0-.07.69v.12s0,.07,0,.11Zm2.28,1a1.42,1.42,0,0,0-.05-.42,1,1,0,0,0-.16-.36.92.92,0,0,0-.32-.26,1.14,1.14,0,0,0-.48-.09,1.1,1.1,0,0,0-.88.33,1.27,1.27,0,0,0-.28.84,1.17,1.17,0,0,0,.29.84,1.16,1.16,0,0,0,1.6,0A1.26,1.26,0,0,0,56.13,135.5Z" transform="translate(5 5)"/><path class="cls-3" d="M57.77,134.55l.3-2.78h2.71v.56H58.57l-.2,1.7c.16,0,.34-.07.52-.09a4.77,4.77,0,0,1,.5,0,2.41,2.41,0,0,1,.67.1,1.62,1.62,0,0,1,.53.3,1.27,1.27,0,0,1,.34.47,1.67,1.67,0,0,1,.12.65,2,2,0,0,1-.12.68,1.58,1.58,0,0,1-.36.56A1.86,1.86,0,0,1,60,137a2.3,2.3,0,0,1-.87.14,2.56,2.56,0,0,1-1.56-.49l.17-.56a3.4,3.4,0,0,0,.63.38,1.82,1.82,0,0,0,.77.15,1.37,1.37,0,0,0,.95-.3,1.12,1.12,0,0,0,.35-.88,1.31,1.31,0,0,0-.06-.41.69.69,0,0,0-.21-.32,1,1,0,0,0-.39-.21,2.47,2.47,0,0,0-.6-.07,3.77,3.77,0,0,0-.57.05,2.42,2.42,0,0,0-.56.15Z" transform="translate(5 5)"/></g><g class="cls-4"><g class="cls-2"><rect class="cls-5" y="0.25" width="94.6" height="94.6"/></g></g><g class="cls-2"><path class="cls-3" d="M133,99.61H131.5v4.48h-.92V99.61h-1.52v-.8h4Z" transform="translate(5 5)"/><path class="cls-3" d="M134.06,100.29a1.57,1.57,0,0,1,1.09.35,1.31,1.31,0,0,1,.39,1,1.37,1.37,0,0,1,0,.19,1.25,1.25,0,0,1,0,.19.69.69,0,0,1-.05.17.53.53,0,0,1-.06.13h-2.32a2.11,2.11,0,0,0,.08.45,1.23,1.23,0,0,0,.21.37,1,1,0,0,0,.33.25,1.11,1.11,0,0,0,.46.09,2.09,2.09,0,0,0,.63-.11,2.52,2.52,0,0,0,.57-.28l.14.65a2,2,0,0,1-.26.14,2.18,2.18,0,0,1-.34.14l-.41.11a2.32,2.32,0,0,1-.46,0,1.92,1.92,0,0,1-.79-.15,1.69,1.69,0,0,1-.58-.43,1.64,1.64,0,0,1-.35-.62,2.24,2.24,0,0,1-.12-.73,2.36,2.36,0,0,1,.12-.75,1.81,1.81,0,0,1,.37-.63,1.73,1.73,0,0,1,.59-.43A2.09,2.09,0,0,1,134.06,100.29Zm0,.69a.85.85,0,0,0-.57.19,1.09,1.09,0,0,0-.34.53h1.53a.11.11,0,0,1,0,0v-.08a.61.61,0,0,0-.17-.43A.65.65,0,0,0,134,101Z" transform="translate(5 5)"/><path class="cls-3" d="M138.67,104.09l-.06-.51h0a1.48,1.48,0,0,1-.59.44,1.85,1.85,0,0,1-.76.16,1,1,0,0,1-1.08-1.06,1.28,1.28,0,0,1,.14-.59,1.22,1.22,0,0,1,.41-.44,1.82,1.82,0,0,1,.63-.27,3,3,0,0,1,.82-.1h.35v-.12a.54.54,0,0,0-.2-.46,1.23,1.23,0,0,0-.65-.14,2.16,2.16,0,0,0-1.06.26l-.17-.66a2.53,2.53,0,0,1,1.3-.31,2,2,0,0,1,1.22.33,1.22,1.22,0,0,1,.31.39,1.26,1.26,0,0,1,.13.57v2.51Zm-1.09-.62a1.19,1.19,0,0,0,.51-.12,1.22,1.22,0,0,0,.41-.33v-.73h-.16a1.94,1.94,0,0,0-1,.17.56.56,0,0,0-.3.53A.43.43,0,0,0,137.58,103.47Z" transform="translate(5 5)"/><path class="cls-3" d="M141.37,104.09h-.88V98.17h.88Z" transform="translate(5 5)"/><path class="cls-3" d="M132.54,111.52h1l-.08.42h-1l-.21,1h1l-.08.42h-1l-.37,1.78h-.52l.38-1.78h-1l-.37,1.78h-.52l.38-1.78h-.93l.08-.42h.94l.21-1h-1l.08-.42h1l.35-1.66h.52l-.35,1.66h1l.36-1.66h.51Zm-1.82,1.37h1l.21-1h-1Z" transform="translate(5 5)"/><path class="cls-3" d="M136.4,109.77a1.94,1.94,0,0,1,.91.21,2.21,2.21,0,0,1,.67.59,3,3,0,0,1,.41.86,3.88,3.88,0,0,1,.14,1,3.5,3.5,0,0,1-.15,1,2.6,2.6,0,0,1-.42.87,2.21,2.21,0,0,1-.68.61,1.89,1.89,0,0,1-.94.22,1.84,1.84,0,0,1-.9-.21,1.93,1.93,0,0,1-.65-.59,2.77,2.77,0,0,1-.39-.85,4.19,4.19,0,0,1-.13-1,3.74,3.74,0,0,1,.15-1.07,2.69,2.69,0,0,1,.41-.87,2.1,2.1,0,0,1,.67-.59A1.87,1.87,0,0,1,136.4,109.77Zm0,4.89a1.34,1.34,0,0,0,.68-.17,1.32,1.32,0,0,0,.47-.47,2.16,2.16,0,0,0,.27-.69,3.82,3.82,0,0,0,.09-.85,4.06,4.06,0,0,0-.09-.89,2.38,2.38,0,0,0-.28-.69,1.31,1.31,0,0,0-.47-.44,1.25,1.25,0,0,0-.65-.16,1.34,1.34,0,0,0-.66.15,1.19,1.19,0,0,0-.45.44,2,2,0,0,0-.25.68,3.87,3.87,0,0,0-.08.86,3,3,0,0,0,.37,1.67A1.2,1.2,0,0,0,136.36,114.66Z" transform="translate(5 5)"/><path class="cls-3" d="M141.59,109.77a1.91,1.91,0,0,1,.91.21,2.1,2.1,0,0,1,.67.59,2.74,2.74,0,0,1,.41.86,3.82,3.82,0,0,1,0,2,3.05,3.05,0,0,1-.42.87,2.37,2.37,0,0,1-.69.61,2.08,2.08,0,0,1-1.84,0,1.93,1.93,0,0,1-.65-.59,2.54,2.54,0,0,1-.38-.85,3.84,3.84,0,0,1,0-2.09,2.69,2.69,0,0,1,.41-.87,2.1,2.1,0,0,1,.67-.59A1.93,1.93,0,0,1,141.59,109.77Zm0,4.89a1.34,1.34,0,0,0,.68-.17,1.32,1.32,0,0,0,.47-.47,2,2,0,0,0,.28-.69,4.54,4.54,0,0,0,.08-.85,4.06,4.06,0,0,0-.09-.89,2.13,2.13,0,0,0-.28-.69,1.3,1.3,0,0,0-1.12-.6,1.34,1.34,0,0,0-.66.15,1.19,1.19,0,0,0-.45.44,2,2,0,0,0-.25.68,3.87,3.87,0,0,0-.08.86,3,3,0,0,0,.37,1.67A1.2,1.2,0,0,0,141.55,114.66Z" transform="translate(5 5)"/><path class="cls-3" d="M144.82,115.09s0-.1,0-.16v-.15a3.41,3.41,0,0,1,.22-1.11,7.92,7.92,0,0,1,.54-1.2,10.75,10.75,0,0,1,.73-1.16c.27-.37.53-.7.78-1H144.5v-.56h3.24v.56a8.45,8.45,0,0,0-.8,1,11.9,11.9,0,0,0-.72,1.2,8.34,8.34,0,0,0-.51,1.22,3.49,3.49,0,0,0-.2,1v.17a.76.76,0,0,0,0,.15Z" transform="translate(5 5)"/><path class="cls-3" d="M152.22,110.69a2.52,2.52,0,0,0-.64-.28,2.78,2.78,0,0,0-.85-.11,2.44,2.44,0,0,0-.91.15,1.55,1.55,0,0,0-.59.44,1.75,1.75,0,0,0-.33.67,3.49,3.49,0,0,0-.1.88,2.51,2.51,0,0,0,.48,1.66,1.8,1.8,0,0,0,1.43.56,2.75,2.75,0,0,0,.93-.15,2.06,2.06,0,0,0,.68-.35l.16.54a4.31,4.31,0,0,1-.77.34,3.23,3.23,0,0,1-1,.14,2.83,2.83,0,0,1-1.14-.21,2.25,2.25,0,0,1-.79-.59,2.21,2.21,0,0,1-.47-.85,3.42,3.42,0,0,1-.15-1,3.36,3.36,0,0,1,.16-1.06,2.68,2.68,0,0,1,.5-.87,2.41,2.41,0,0,1,.83-.59,2.91,2.91,0,0,1,1.15-.21,4.26,4.26,0,0,1,.86.09,3,3,0,0,1,.74.25Z" transform="translate(5 5)"/><path class="cls-3" d="M153.46,115.09a.81.81,0,0,1,0-.16v-.15a3.38,3.38,0,0,1,.21-1.11,7.92,7.92,0,0,1,.54-1.2,10.75,10.75,0,0,1,.73-1.16c.27-.37.53-.7.78-1h-2.58v-.56h3.25v.56a7.54,7.54,0,0,0-.81,1,11.9,11.9,0,0,0-.72,1.2,8.34,8.34,0,0,0-.51,1.22,3.49,3.49,0,0,0-.2,1v.17s0,.1,0,.15Z" transform="translate(5 5)"/><path class="cls-3" d="M159.79,112.49a.85.85,0,0,1-.24.29,1.4,1.4,0,0,1-.32.18,2.22,2.22,0,0,1-.37.09,2.34,2.34,0,0,1-.38,0,1.75,1.75,0,0,1-.82-.17,1.53,1.53,0,0,1-.48-.42,1.58,1.58,0,0,1-.24-.53,2.49,2.49,0,0,1-.06-.5,2,2,0,0,1,.09-.59,1.56,1.56,0,0,1,.3-.55,1.44,1.44,0,0,1,.53-.39,1.81,1.81,0,0,1,.78-.15,1.93,1.93,0,0,1,.84.17,1.45,1.45,0,0,1,.56.51,2.5,2.5,0,0,1,.31.78,5.38,5.38,0,0,1,.09,1,6.38,6.38,0,0,1-.09,1.08,2.92,2.92,0,0,1-.32.93,1.84,1.84,0,0,1-.61.66,1.72,1.72,0,0,1-1,.25h-.3l-.34-.06a2,2,0,0,1-.34-.12.92.92,0,0,1-.28-.19l.13-.53a1.56,1.56,0,0,0,.58.31,1.86,1.86,0,0,0,.54.08,1.22,1.22,0,0,0,.69-.17,1.19,1.19,0,0,0,.44-.45,2,2,0,0,0,.24-.62,4,4,0,0,0,.06-.69v-.23Zm-2.29-1a1.42,1.42,0,0,0,.06.42,1,1,0,0,0,.16.36.83.83,0,0,0,.32.26,1.14,1.14,0,0,0,.48.09,1.1,1.1,0,0,0,.88-.33,1.27,1.27,0,0,0,.28-.84,1.17,1.17,0,0,0-.29-.84,1,1,0,0,0-.81-.32,1,1,0,0,0-.79.32A1.28,1.28,0,0,0,157.5,111.46Z" transform="translate(5 5)"/><path class="cls-3" d="M129.68,120.78h1.19a3.22,3.22,0,0,1,.79.1,2.09,2.09,0,0,1,.6.29,1.29,1.29,0,0,1,.39.48,1.48,1.48,0,0,1,.14.65,1.43,1.43,0,0,1-.29.9,1.5,1.5,0,0,1-.88.56l2,2.33h-.74l-2-2.26-.64,0v2.28h-.6Zm1.24.52h-.64v2h.66a1.3,1.3,0,0,0,.89-.27,1,1,0,0,0,.3-.8.87.87,0,0,0-.27-.67A1.35,1.35,0,0,0,130.92,121.3Z" transform="translate(5 5)"/><path class="cls-3" d="M138.42,125.65a3.16,3.16,0,0,1-1.84.53,2.83,2.83,0,0,1-1.14-.21,2.29,2.29,0,0,1-.8-.59,2.33,2.33,0,0,1-.46-.85,3.13,3.13,0,0,1-.16-1,3.36,3.36,0,0,1,.17-1.06,2.51,2.51,0,0,1,.5-.87,2.41,2.41,0,0,1,.83-.59,2.86,2.86,0,0,1,1.14-.21,4.6,4.6,0,0,1,.91.09,4,4,0,0,1,.78.25l-.17.58a2.26,2.26,0,0,0-.66-.28,3.17,3.17,0,0,0-.9-.11,2.44,2.44,0,0,0-.91.15,1.55,1.55,0,0,0-.59.44,1.51,1.51,0,0,0-.33.67,3.49,3.49,0,0,0-.1.88,2.51,2.51,0,0,0,.48,1.66,1.78,1.78,0,0,0,1.43.56,2.84,2.84,0,0,0,.66-.08,2.45,2.45,0,0,0,.56-.18v-1.49h.6Z" transform="translate(5 5)"/><path class="cls-3" d="M139.74,120.78H141a1.78,1.78,0,0,1,1.14.35,1.22,1.22,0,0,1,.43,1,1.24,1.24,0,0,1-.13.58,1.14,1.14,0,0,1-.41.44,1.49,1.49,0,0,1,.75.5,1.37,1.37,0,0,1,.27.87,1.69,1.69,0,0,1-.12.64,1.52,1.52,0,0,1-.36.52,2,2,0,0,1-.62.35,2.51,2.51,0,0,1-.86.13c-.27,0-.51,0-.73,0l-.59-.07Zm1.08,2.25a1.09,1.09,0,0,0,.78-.25.88.88,0,0,0,.28-.7.79.79,0,0,0-.19-.56.88.88,0,0,0-.67-.22h-.68V123h.48Zm.21,2.63a1.46,1.46,0,0,0,1-.3,1.1,1.1,0,0,0,.34-.88.9.9,0,0,0-.31-.72,1.62,1.62,0,0,0-1-.26h-.68v2.13C140.54,125.65,140.78,125.66,141,125.66Z" transform="translate(5 5)"/><path class="cls-3" d="M147.69,120a5.39,5.39,0,0,0-.55.76,3.87,3.87,0,0,0-.37.8,4.28,4.28,0,0,0-.21.89,7.79,7.79,0,0,0-.06,1c0,.22,0,.46,0,.73a4.67,4.67,0,0,0,.15.84,5.12,5.12,0,0,0,.36.92,4.86,4.86,0,0,0,.66,1l-.3.1a4.79,4.79,0,0,1-1.19-1.6,4.7,4.7,0,0,1-.43-2,4.54,4.54,0,0,1,.43-1.93,5.07,5.07,0,0,1,1.19-1.62Z" transform="translate(5 5)"/><path class="cls-3" d="M149.4,126.09h-.6v-4.21l-.77.37-.17-.56,1.54-.88Z" transform="translate(5 5)"/><path class="cls-3" d="M150.74,126.71l.31-.58h-.2v-.72h.63v.84l-.58.61Z" transform="translate(5 5)"/><path class="cls-3" d="M153.5,126.09h-.6v-4.21l-.77.37-.18-.56,1.55-.88Z" transform="translate(5 5)"/><path class="cls-3" d="M154.73,121.16l.35-.15.39-.13a2.07,2.07,0,0,1,.42-.08l.4,0a2.2,2.2,0,0,1,.64.09,1.77,1.77,0,0,1,.49.27,1.25,1.25,0,0,1,.43.93,1.78,1.78,0,0,1-.25.88,5.31,5.31,0,0,1-.62.86c-.25.29-.52.58-.81.86s-.57.58-.83.87h2.56v.56h-3.24v-.56a11.09,11.09,0,0,1,.8-.91c.3-.3.57-.59.83-.87a5.85,5.85,0,0,0,.64-.84,1.57,1.57,0,0,0,.25-.84,1,1,0,0,0,0-.3.73.73,0,0,0-.15-.25.85.85,0,0,0-.28-.16,1.35,1.35,0,0,0-.43-.06l-.37,0-.39.09a3,3,0,0,0-.36.13,1.21,1.21,0,0,0-.28.15Z" transform="translate(5 5)"/><path class="cls-3" d="M159,123.55l.29-2.78H162v.56h-2.21l-.2,1.7c.16,0,.34-.07.52-.09a4.77,4.77,0,0,1,.5,0,2.41,2.41,0,0,1,.67.1,1.62,1.62,0,0,1,.53.3,1.27,1.27,0,0,1,.34.47,1.67,1.67,0,0,1,.12.65,2,2,0,0,1-.12.68,1.58,1.58,0,0,1-.36.56,1.86,1.86,0,0,1-.61.38,2.3,2.3,0,0,1-.87.14,2.62,2.62,0,0,1-1.56-.49l.17-.56a3.4,3.4,0,0,0,.63.38,1.82,1.82,0,0,0,.77.15,1.37,1.37,0,0,0,.95-.3,1.12,1.12,0,0,0,.35-.88,1.31,1.31,0,0,0-.06-.41.69.69,0,0,0-.21-.32,1,1,0,0,0-.39-.21,2.47,2.47,0,0,0-.6-.07,3.77,3.77,0,0,0-.57,0,2.42,2.42,0,0,0-.56.15Z" transform="translate(5 5)"/><path class="cls-3" d="M163.21,126.71l.31-.58h-.2v-.72H164v.84l-.58.61Z" transform="translate(5 5)"/><path class="cls-3" d="M166,126.09h-.6v-4.21l-.77.37-.18-.56,1.55-.88Z" transform="translate(5 5)"/><path class="cls-3" d="M167.21,121.16l.34-.15.4-.13a1.86,1.86,0,0,1,.41-.08l.41,0a2.08,2.08,0,0,1,.63.09,1.64,1.64,0,0,1,.49.27,1.17,1.17,0,0,1,.32.41,1.27,1.27,0,0,1,.11.52,1.68,1.68,0,0,1-.25.88,4.76,4.76,0,0,1-.62.86c-.25.29-.52.58-.81.86s-.57.58-.82.87h2.56v.56h-3.24v-.56a9.48,9.48,0,0,1,.8-.91l.82-.87a5.2,5.2,0,0,0,.64-.84,1.59,1.59,0,0,0,.26-.84,1,1,0,0,0,0-.3.73.73,0,0,0-.15-.25.76.76,0,0,0-.28-.16,1.35,1.35,0,0,0-.43-.06l-.37,0-.39.09a3,3,0,0,0-.36.13,1.46,1.46,0,0,0-.28.15Z" transform="translate(5 5)"/><path class="cls-3" d="M171.28,121.16l.34-.15.4-.13a2,2,0,0,1,.42-.08l.4,0a2.08,2.08,0,0,1,.63.09,1.64,1.64,0,0,1,.49.27,1.17,1.17,0,0,1,.32.41,1.27,1.27,0,0,1,.11.52,1.68,1.68,0,0,1-.25.88,4.76,4.76,0,0,1-.62.86c-.25.29-.52.58-.81.86s-.57.58-.82.87h2.56v.56h-3.24v-.56a9.48,9.48,0,0,1,.8-.91c.29-.3.57-.59.82-.87a5.2,5.2,0,0,0,.64-.84,1.59,1.59,0,0,0,.26-.84,1,1,0,0,0,0-.3.73.73,0,0,0-.15-.25.69.69,0,0,0-.28-.16,1.31,1.31,0,0,0-.43-.06l-.37,0-.39.09a3.82,3.82,0,0,0-.36.13,1.46,1.46,0,0,0-.28.15Z" transform="translate(5 5)"/><path class="cls-3" d="M175.38,119.92a5.22,5.22,0,0,1,1.19,1.62,4.53,4.53,0,0,1,.42,1.93,4.69,4.69,0,0,1-.42,2,4.92,4.92,0,0,1-1.19,1.6l-.3-.1a4.78,4.78,0,0,0,.65-1,4.47,4.47,0,0,0,.36-.92,4.67,4.67,0,0,0,.15-.84c0-.27,0-.51,0-.73a7.79,7.79,0,0,0-.06-1,6.09,6.09,0,0,0-.21-.89,4.48,4.48,0,0,0-.37-.8,5.48,5.48,0,0,0-.56-.76Z" transform="translate(5 5)"/><path class="cls-3" d="M133.42,132.69a2.3,2.3,0,0,0-.63-.28,2.78,2.78,0,0,0-.85-.11,2.44,2.44,0,0,0-.91.15,1.55,1.55,0,0,0-.59.44,1.51,1.51,0,0,0-.33.67,3.49,3.49,0,0,0-.1.88,2.51,2.51,0,0,0,.48,1.66,1.78,1.78,0,0,0,1.43.56,2.79,2.79,0,0,0,.93-.15,2.06,2.06,0,0,0,.68-.35l.16.54a4.66,4.66,0,0,1-.77.34,3.31,3.31,0,0,1-1,.14,2.83,2.83,0,0,1-1.14-.21,2.29,2.29,0,0,1-.8-.59,2.33,2.33,0,0,1-.46-.85,3.13,3.13,0,0,1-.16-1,3.36,3.36,0,0,1,.17-1.06,2.51,2.51,0,0,1,.5-.87,2.41,2.41,0,0,1,.83-.59,2.86,2.86,0,0,1,1.14-.21,4.28,4.28,0,0,1,.87.09,3.2,3.2,0,0,1,.74.25Z" transform="translate(5 5)"/><path class="cls-3" d="M137.06,134.19a1.14,1.14,0,0,1,.71.48,1.59,1.59,0,0,1,.25.91,1.81,1.81,0,0,1-.1.63,1.25,1.25,0,0,1-.33.51,1.51,1.51,0,0,1-.55.34,2.39,2.39,0,0,1-.79.12,2.2,2.2,0,0,1-.82-.13,1.39,1.39,0,0,1-.85-.86,2,2,0,0,1-.09-.59,1.56,1.56,0,0,1,.25-.9,1.3,1.3,0,0,1,.72-.5v0a1.09,1.09,0,0,1-.5-.39,1.23,1.23,0,0,1-.21-.73,1.18,1.18,0,0,1,.39-.93,1.62,1.62,0,0,1,1.11-.35,1.66,1.66,0,0,1,1.11.34,1.13,1.13,0,0,1,.4.91,1.18,1.18,0,0,1-.7,1.14Zm.3,1.45a1.67,1.67,0,0,0-.06-.44,1,1,0,0,0-.2-.37,1,1,0,0,0-.35-.27,1.27,1.27,0,0,0-.5-.1,1.3,1.3,0,0,0-.52.1,1.06,1.06,0,0,0-.54.64,1.67,1.67,0,0,0-.06.44,1,1,0,0,0,.29.78,1.15,1.15,0,0,0,.83.28,1.13,1.13,0,0,0,.82-.28A1,1,0,0,0,137.36,135.64Zm-.26-2.56a.92.92,0,0,0-.18-.57.81.81,0,0,0-.67-.24.85.85,0,0,0-.67.23.92.92,0,0,0-.19.58.93.93,0,0,0,.22.65.8.8,0,0,0,.64.25.78.78,0,0,0,.63-.25A.93.93,0,0,0,137.1,133.08Z" transform="translate(5 5)"/><path class="cls-3" d="M139.1,132.16l.31-.15.36-.13a1.53,1.53,0,0,1,.37-.08l.34,0a1.71,1.71,0,0,1,1.14.35,1.23,1.23,0,0,1,.44,1,1,1,0,0,1-.22.62,1.84,1.84,0,0,1-.54.46,1.5,1.5,0,0,1,.74.48,1.25,1.25,0,0,1,.27.84,1.69,1.69,0,0,1-.12.64,1.42,1.42,0,0,1-.37.52,1.81,1.81,0,0,1-.61.35,2.57,2.57,0,0,1-.87.13,2.67,2.67,0,0,1-.86-.13,2.72,2.72,0,0,1-.7-.36l.16-.54a2.22,2.22,0,0,0,.63.37,2,2,0,0,0,.75.14,1.46,1.46,0,0,0,1-.3,1.14,1.14,0,0,0,.34-.88.93.93,0,0,0-.31-.72,1.58,1.58,0,0,0-1-.27h-.21V134h.25a1.13,1.13,0,0,0,.78-.25.93.93,0,0,0,.27-.7.84.84,0,0,0-.19-.57.88.88,0,0,0-.67-.21,2.22,2.22,0,0,0-.37,0l-.35.08-.32.13a.9.9,0,0,0-.24.15Z" transform="translate(5 5)"/><path class="cls-3" d="M148.12,136.34l1.79-4.53h.77v5.28h-.6v-4l-1.62,4h-.72l-1.62-4v4h-.6v-5.28h.81Z" transform="translate(5 5)"/><path class="cls-3" d="M154.07,131.77a1.91,1.91,0,0,1,.91.21,2.1,2.1,0,0,1,.67.59,2.74,2.74,0,0,1,.41.86,3.82,3.82,0,0,1,0,2,3.05,3.05,0,0,1-.42.87,2.37,2.37,0,0,1-.69.61,2.08,2.08,0,0,1-1.84,0,1.93,1.93,0,0,1-.65-.59,2.54,2.54,0,0,1-.38-.85,3.84,3.84,0,0,1,0-2.09,2.69,2.69,0,0,1,.41-.87,2.1,2.1,0,0,1,.67-.59A1.93,1.93,0,0,1,154.07,131.77Zm0,4.89a1.34,1.34,0,0,0,.68-.17,1.32,1.32,0,0,0,.47-.47,2,2,0,0,0,.28-.69,4.54,4.54,0,0,0,.08-.85,4.06,4.06,0,0,0-.09-.89,2.13,2.13,0,0,0-.28-.69,1.3,1.3,0,0,0-1.12-.6,1.34,1.34,0,0,0-.66.15,1.19,1.19,0,0,0-.45.44,2,2,0,0,0-.25.68,3.87,3.87,0,0,0-.08.86,3,3,0,0,0,.37,1.67A1.2,1.2,0,0,0,154,136.66Z" transform="translate(5 5)"/><path class="cls-3" d="M158,131.81h.71l1.67,2.53,1.62-2.53h.7l-2,3.11v2.17H160V135Z" transform="translate(5 5)"/><path class="cls-3" d="M165.81,135.41h-.55v1.68h-.6v-1.68h-2.27v-.56l2.23-3h.64v3h.55Zm-1.15-.56v-2.17l-1.59,2.17Z" transform="translate(5 5)"/><path class="cls-3" d="M168,137.09h-.6v-4.21l-.77.37-.17-.56,1.54-.88Z" transform="translate(5 5)"/><path class="cls-3" d="M172.09,134.3a4.85,4.85,0,0,0,.41-.3c.12-.1.26-.23.41-.38a9.6,9.6,0,0,0,.79-.86c.27-.31.51-.63.74-.95h.69q-.19.28-.42.57l-.47.58q-.24.28-.48.54c-.15.17-.3.32-.44.46l-.17.16-.14.14,2.44,2.83h-.74l-2.14-2.45-.48.36v2.09h-.6v-5.28h.6Z" transform="translate(5 5)"/><path class="cls-3" d="M176.1,132.16l.31-.15.36-.13a1.55,1.55,0,0,1,.36-.08l.35,0a1.73,1.73,0,0,1,1.14.35,1.22,1.22,0,0,1,.43,1,1,1,0,0,1-.22.62,1.61,1.61,0,0,1-.54.46,1.53,1.53,0,0,1,.75.48,1.25,1.25,0,0,1,.27.84,1.69,1.69,0,0,1-.12.64,1.42,1.42,0,0,1-.37.52,1.81,1.81,0,0,1-.61.35,2.57,2.57,0,0,1-.87.13,2.67,2.67,0,0,1-.86-.13,2.72,2.72,0,0,1-.7-.36l.16-.54a2.22,2.22,0,0,0,.63.37,2,2,0,0,0,.75.14,1.46,1.46,0,0,0,1-.3,1.14,1.14,0,0,0,.34-.88.93.93,0,0,0-.31-.72,1.58,1.58,0,0,0-1-.27h-.21V134h.24a1.09,1.09,0,0,0,.78-.25.9.9,0,0,0,.28-.7.84.84,0,0,0-.19-.57.88.88,0,0,0-.67-.21,2.22,2.22,0,0,0-.37,0l-.35.08-.32.13a.9.9,0,0,0-.24.15Z" transform="translate(5 5)"/><path class="cls-3" d="M180.86,134.47a1.16,1.16,0,0,1,.24-.29,2,2,0,0,1,.32-.18,2.22,2.22,0,0,1,.37-.09l.38,0a1.75,1.75,0,0,1,.82.17,1.43,1.43,0,0,1,.48.42,1.41,1.41,0,0,1,.24.53,2.49,2.49,0,0,1,.06.5,2,2,0,0,1-.09.59,1.71,1.71,0,0,1-.29.55,1.62,1.62,0,0,1-.53.39,1.87,1.87,0,0,1-.78.15,1.82,1.82,0,0,1-.85-.17,1.52,1.52,0,0,1-.56-.51,2.19,2.19,0,0,1-.3-.78,4.58,4.58,0,0,1-.1-1,6.38,6.38,0,0,1,.09-1.08,2.92,2.92,0,0,1,.32-.93,1.93,1.93,0,0,1,.61-.66,1.72,1.72,0,0,1,1-.25h.3a2,2,0,0,1,.34.06,2,2,0,0,1,.34.12,1.21,1.21,0,0,1,.29.19l-.14.53a1.6,1.6,0,0,0-.57-.31,2,2,0,0,0-.55-.08,1.24,1.24,0,0,0-.69.17,1.27,1.27,0,0,0-.44.45,1.77,1.77,0,0,0-.23.62,3.23,3.23,0,0,0-.07.69v.12a.45.45,0,0,0,0,.11Zm2.29,1a1.86,1.86,0,0,0-.05-.42,1,1,0,0,0-.17-.36.88.88,0,0,0-.31-.26,1.16,1.16,0,0,0-.49-.09,1.1,1.1,0,0,0-.88.33,1.33,1.33,0,0,0-.28.84,1.17,1.17,0,0,0,.29.84,1.06,1.06,0,0,0,.82.32,1,1,0,0,0,.78-.32A1.26,1.26,0,0,0,183.15,135.5Z" transform="translate(5 5)"/></g><g class="cls-6"><g class="cls-2"><rect class="cls-7" x="128.89" y="0.25" width="94.6" height="94.6"/></g></g><g class="cls-2"><path class="cls-3" d="M388.29,103.29h2.2v.8h-3.12V98.81h.92Z" transform="translate(5 5)"/><path class="cls-3" d="M391.06,99.22a.54.54,0,0,1,.05-.21.55.55,0,0,1,.12-.19.46.46,0,0,1,.18-.13.54.54,0,0,1,.22,0,.59.59,0,0,1,.22,0,.46.46,0,0,1,.18.13.85.85,0,0,1,.14.19.52.52,0,0,1,0,.21.51.51,0,0,1,0,.22.62.62,0,0,1-.14.18.46.46,0,0,1-.18.13.57.57,0,0,1-.22,0,.52.52,0,0,1-.4-.17A.54.54,0,0,1,391.06,99.22Zm1,4.87h-.88v-3.68h.88Z" transform="translate(5 5)"/><path class="cls-3" d="M393.66,102.93a1,1,0,0,1-.52-.47,1.53,1.53,0,0,1-.16-.7,1.58,1.58,0,0,1,.11-.58,1.12,1.12,0,0,1,.3-.47,1.43,1.43,0,0,1,.47-.31,1.73,1.73,0,0,1,.63-.11,2,2,0,0,1,.41,0,1.2,1.2,0,0,1,.35.11,4,4,0,0,0,.62,0,4.54,4.54,0,0,0,.53-.12l.07.06-.09.6,0,0-.57-.06v0a1.28,1.28,0,0,1,.27.81,1.56,1.56,0,0,1-.1.53,1.37,1.37,0,0,1-.29.42,1.43,1.43,0,0,1-.48.29,1.83,1.83,0,0,1-.64.11h-.24a.47.47,0,0,0-.21.12.21.21,0,0,0-.07.16.17.17,0,0,0,.08.15.7.7,0,0,0,.28.09l.77.09a2.34,2.34,0,0,1,.49.12,1.17,1.17,0,0,1,.4.21.86.86,0,0,1,.27.33.92.92,0,0,1,.1.44,1.13,1.13,0,0,1-.11.48,1.14,1.14,0,0,1-.32.41,1.69,1.69,0,0,1-.57.28,2.83,2.83,0,0,1-.82.1,3.38,3.38,0,0,1-.75-.08,1.91,1.91,0,0,1-.54-.23,1,1,0,0,1-.34-.34.79.79,0,0,1-.12-.42.91.91,0,0,1,.06-.32.76.76,0,0,1,.15-.28,1.75,1.75,0,0,1,.23-.24.89.89,0,0,1,.29-.15v0a.58.58,0,0,1-.26-.22.52.52,0,0,1,0-.58.76.76,0,0,1,.32-.22Zm.61,1.33a.91.91,0,0,0-.46.23.56.56,0,0,0-.2.41.43.43,0,0,0,.26.39,1.7,1.7,0,0,0,.73.13,1.76,1.76,0,0,0,.75-.14.43.43,0,0,0,.28-.42.41.41,0,0,0-.31-.41A4.62,4.62,0,0,0,394.27,104.26Zm.25-1.78a.58.58,0,0,0,.49-.21.76.76,0,0,0,.17-.52,1,1,0,0,0,0-.29.84.84,0,0,0-.13-.27.67.67,0,0,0-.22-.19.58.58,0,0,0-.3-.08.56.56,0,0,0-.3.07.46.46,0,0,0-.21.18.75.75,0,0,0-.13.25,1.35,1.35,0,0,0,0,.28.93.93,0,0,0,.05.29.85.85,0,0,0,.13.25.69.69,0,0,0,.53.24Z" transform="translate(5 5)"/><path class="cls-3" d="M398,101a1.48,1.48,0,0,1,.52-.51,1.58,1.58,0,0,1,.71-.15,1.43,1.43,0,0,1,.46.07,1,1,0,0,1,.4.22,1.08,1.08,0,0,1,.27.4,1.51,1.51,0,0,1,.1.6v2.51h-.88v-2.43a.78.78,0,0,0-.14-.5.53.53,0,0,0-.39-.16,1.19,1.19,0,0,0-.32,0,1.23,1.23,0,0,0-.31.14,1.37,1.37,0,0,0-.25.23,1.05,1.05,0,0,0-.17.31v2.36h-.88V98.17H398Z" transform="translate(5 5)"/><path class="cls-3" d="M401.74,100.94h-.45v-.48l.52-.08L402,99.3h.67v1.11h.71v.53h-.71v2.12a.75.75,0,0,0,.05.32c0,.06.09.08.18.08a.52.52,0,0,0,.21,0,1.62,1.62,0,0,0,.31-.15l.14.63a1,1,0,0,1-.43.21,2.08,2.08,0,0,1-.55.07,1.07,1.07,0,0,1-.39-.06.48.48,0,0,1-.25-.19.68.68,0,0,1-.12-.3,2.29,2.29,0,0,1,0-.39Z" transform="translate(5 5)"/><path class="cls-3" d="M410.44,103.65a3.35,3.35,0,0,1-.83.39,3.25,3.25,0,0,1-1,.14,2.88,2.88,0,0,1-1.15-.21,2.25,2.25,0,0,1-.79-.59,2.35,2.35,0,0,1-.47-.85,3.42,3.42,0,0,1-.15-1,3.1,3.1,0,0,1,.17-1.06A2.38,2.38,0,0,1,407.53,99a3,3,0,0,1,1.16-.21,4.41,4.41,0,0,1,.89.09,3.86,3.86,0,0,1,.79.25l-.26.83a3.72,3.72,0,0,0-.63-.27,2.57,2.57,0,0,0-.82-.12,2.17,2.17,0,0,0-.77.13,1.32,1.32,0,0,0-.51.38,1.66,1.66,0,0,0-.28.6,3.12,3.12,0,0,0-.09.79c0,1.3.56,2,1.66,2a1.92,1.92,0,0,0,.47-.05l.38-.11v-1.33h.92Z" transform="translate(5 5)"/><path class="cls-3" d="M413.44,101.21a.84.84,0,0,0-.25-.11,1.81,1.81,0,0,0-.29,0,.42.42,0,0,0-.26.08.91.91,0,0,0-.19.2,1.2,1.2,0,0,0-.13.28c0,.11-.07.22-.11.33v2.14h-.88v-3.68H412l0,.77h0l.17-.33a2.11,2.11,0,0,1,.2-.29,1.28,1.28,0,0,1,.26-.2.78.78,0,0,1,.35-.07,1,1,0,0,1,.6.21Z" transform="translate(5 5)"/><path class="cls-3" d="M416.49,104.09l-.06-.51h0a1.48,1.48,0,0,1-.59.44,1.85,1.85,0,0,1-.76.16,1,1,0,0,1-1.08-1.06,1.28,1.28,0,0,1,.14-.59,1.32,1.32,0,0,1,.41-.44,1.82,1.82,0,0,1,.63-.27,3,3,0,0,1,.82-.1h.35v-.12a.54.54,0,0,0-.2-.46,1.23,1.23,0,0,0-.65-.14,2.16,2.16,0,0,0-1.06.26l-.16-.66a2.47,2.47,0,0,1,1.29-.31,2,2,0,0,1,1.22.33,1.22,1.22,0,0,1,.31.39,1.14,1.14,0,0,1,.13.57v2.51Zm-1.09-.62a1.19,1.19,0,0,0,.51-.12,1.13,1.13,0,0,0,.41-.33v-.73h-.15a2,2,0,0,0-1,.17.56.56,0,0,0-.3.53A.43.43,0,0,0,415.4,103.47Z" transform="translate(5 5)"/><path class="cls-3" d="M419.76,103l1-2.61h.85l-1.52,3.71a6,6,0,0,1-.31.63,3.7,3.7,0,0,1-.47.65,2.47,2.47,0,0,1-.6.52,1.28,1.28,0,0,1-.73.22h-.09l-.08,0-.15-.69.06,0h.13a1.39,1.39,0,0,0,.3,0,1,1,0,0,0,.3-.13,1.63,1.63,0,0,0,.5-.51,5,5,0,0,0,.42-.81l-1.84-3.56h.92Z" transform="translate(5 5)"/><path class="cls-3" d="M390.31,111.52h1l-.08.42h-1l-.21,1h1l-.08.42h-1l-.38,1.78H389l.37-1.78h-1l-.38,1.78h-.51l.37-1.78H387l.08-.42H388l.21-1h-1l.08-.42h1l.35-1.66h.51l-.35,1.66h1l.35-1.66h.51Zm-1.82,1.37h1l.21-1h-1Z" transform="translate(5 5)"/><path class="cls-3" d="M392.37,109.79h1.74a3.44,3.44,0,0,1,1,.16,2.42,2.42,0,0,1,.79.44,2.24,2.24,0,0,1,.62.92,3.58,3.58,0,0,1,.19,1.19,3.4,3.4,0,0,1-.15,1,2.44,2.44,0,0,1-.47.85,2.39,2.39,0,0,1-.8.58,2.81,2.81,0,0,1-1.13.21h-1a4,4,0,0,1-.81-.07Zm1.79.52H393v4.3c.33,0,.73,0,1.2,0a1.8,1.8,0,0,0,1.44-.56,2.46,2.46,0,0,0,.48-1.65,3.85,3.85,0,0,0-.1-.87,1.8,1.8,0,0,0-.33-.68,1.49,1.49,0,0,0-.6-.43A2.16,2.16,0,0,0,394.16,110.31Z" transform="translate(5 5)"/><path class="cls-3" d="M400.24,112.19a1.09,1.09,0,0,1,.71.48,1.6,1.6,0,0,1,.26.91,1.81,1.81,0,0,1-.11.63,1.34,1.34,0,0,1-.32.51,1.56,1.56,0,0,1-.56.34,2.34,2.34,0,0,1-.79.12,2.24,2.24,0,0,1-.82-.13,1.49,1.49,0,0,1-.54-.35,1.32,1.32,0,0,1-.3-.51,1.7,1.7,0,0,1-.1-.59,1.49,1.49,0,0,1,.26-.9,1.27,1.27,0,0,1,.71-.5v0a1.07,1.07,0,0,1-.49-.39,1.17,1.17,0,0,1-.22-.73,1.16,1.16,0,0,1,.4-.93,1.94,1.94,0,0,1,2.21,0,1.13,1.13,0,0,1,.4.91,1.25,1.25,0,0,1-.2.72,1.18,1.18,0,0,1-.5.42Zm.3,1.45a1.67,1.67,0,0,0-.06-.44,1,1,0,0,0-.19-.37,1.06,1.06,0,0,0-.35-.27,1.29,1.29,0,0,0-.51-.1,1.34,1.34,0,0,0-.52.1,1,1,0,0,0-.34.27,1,1,0,0,0-.19.37,1.67,1.67,0,0,0-.06.44,1,1,0,0,0,.28.78,1.37,1.37,0,0,0,1.66,0A1,1,0,0,0,400.54,113.64Zm-.25-2.56a.93.93,0,0,0-.19-.57,1.06,1.06,0,0,0-1.33,0,.87.87,0,0,0-.2.58,1,1,0,0,0,.22.65.94.94,0,0,0,1.28,0A1,1,0,0,0,400.29,111.08Z" transform="translate(5 5)"/><path class="cls-3" d="M402.46,109.79h1.75a3.37,3.37,0,0,1,1,.16,2.47,2.47,0,0,1,.8.44,2.13,2.13,0,0,1,.61.92,3.58,3.58,0,0,1,.2,1.19,3.4,3.4,0,0,1-.16,1,2.42,2.42,0,0,1-.46.85,2.5,2.5,0,0,1-.8.58,2.83,2.83,0,0,1-1.14.21h-1a4,4,0,0,1-.81-.07Zm1.79.52h-1.19v4.3c.34,0,.74,0,1.21,0a1.8,1.8,0,0,0,1.43-.56,2.46,2.46,0,0,0,.48-1.65,3.35,3.35,0,0,0-.1-.87,1.66,1.66,0,0,0-.33-.68,1.53,1.53,0,0,0-.59-.43A2.25,2.25,0,0,0,404.25,110.31Z" transform="translate(5 5)"/><path class="cls-3" d="M410.62,112.49a.85.85,0,0,1-.24.29,1.4,1.4,0,0,1-.32.18,2.22,2.22,0,0,1-.37.09,2.34,2.34,0,0,1-.38,0,1.75,1.75,0,0,1-.82-.17,1.53,1.53,0,0,1-.48-.42,1.58,1.58,0,0,1-.24-.53,2.49,2.49,0,0,1-.06-.5,2,2,0,0,1,.09-.59,1.56,1.56,0,0,1,.3-.55,1.44,1.44,0,0,1,.53-.39,1.81,1.81,0,0,1,.78-.15,1.93,1.93,0,0,1,.84.17,1.45,1.45,0,0,1,.56.51,2.5,2.5,0,0,1,.31.78,5.38,5.38,0,0,1,.09,1,6.38,6.38,0,0,1-.09,1.08,2.92,2.92,0,0,1-.32.93,1.84,1.84,0,0,1-.61.66,1.72,1.72,0,0,1-1,.25h-.3l-.34-.06a2,2,0,0,1-.34-.12.92.92,0,0,1-.28-.19l.13-.53a1.56,1.56,0,0,0,.58.31,1.86,1.86,0,0,0,.54.08,1.22,1.22,0,0,0,.69-.17,1.19,1.19,0,0,0,.44-.45,2,2,0,0,0,.24-.62,4,4,0,0,0,.06-.69v-.23Zm-2.29-1a1.42,1.42,0,0,0,.06.42,1,1,0,0,0,.16.36.83.83,0,0,0,.32.26,1.14,1.14,0,0,0,.48.09,1.1,1.1,0,0,0,.88-.33,1.27,1.27,0,0,0,.28-.84,1.17,1.17,0,0,0-.29-.84,1,1,0,0,0-.81-.32,1,1,0,0,0-.79.32A1.28,1.28,0,0,0,408.33,111.46Z" transform="translate(5 5)"/><path class="cls-3" d="M412.51,109.79h1.74a3.39,3.39,0,0,1,1,.16,2.47,2.47,0,0,1,.8.44,2.22,2.22,0,0,1,.61.92,3.58,3.58,0,0,1,.19,1.19,3.4,3.4,0,0,1-.15,1,2.44,2.44,0,0,1-.47.85,2.35,2.35,0,0,1-.79.58,2.83,2.83,0,0,1-1.14.21h-1a4,4,0,0,1-.81-.07Zm1.79.52h-1.19v4.3c.34,0,.74,0,1.21,0a1.8,1.8,0,0,0,1.43-.56,2.46,2.46,0,0,0,.48-1.65,3.35,3.35,0,0,0-.1-.87,1.8,1.8,0,0,0-.33-.68,1.53,1.53,0,0,0-.59-.43A2.25,2.25,0,0,0,414.3,110.31Z" transform="translate(5 5)"/><path class="cls-3" d="M420.67,112.49a.85.85,0,0,1-.24.29,1.65,1.65,0,0,1-.32.18,2.22,2.22,0,0,1-.37.09,2.43,2.43,0,0,1-.38,0,1.75,1.75,0,0,1-.82-.17,1.43,1.43,0,0,1-.48-.42,1.41,1.41,0,0,1-.24-.53,2.49,2.49,0,0,1-.06-.5,2,2,0,0,1,.09-.59,1.56,1.56,0,0,1,.3-.55,1.48,1.48,0,0,1,.52-.39,1.87,1.87,0,0,1,.78-.15,2,2,0,0,1,.85.17,1.45,1.45,0,0,1,.56.51,2.5,2.5,0,0,1,.31.78,5.38,5.38,0,0,1,.09,1,6.38,6.38,0,0,1-.09,1.08,2.92,2.92,0,0,1-.32.93,1.93,1.93,0,0,1-.61.66,1.72,1.72,0,0,1-1,.25H419a2,2,0,0,1-.34-.06,2,2,0,0,1-.34-.12,1,1,0,0,1-.29-.19l.14-.53a1.56,1.56,0,0,0,.58.31,1.86,1.86,0,0,0,.54.08,1.22,1.22,0,0,0,.69-.17,1.19,1.19,0,0,0,.44-.45,1.77,1.77,0,0,0,.23-.62,3.23,3.23,0,0,0,.07-.69v-.12a.45.45,0,0,0,0-.11Zm-2.29-1a1.86,1.86,0,0,0,.05.42,1,1,0,0,0,.17.36.88.88,0,0,0,.31.26,1.19,1.19,0,0,0,.49.09,1.1,1.1,0,0,0,.88-.33,1.33,1.33,0,0,0,.28-.84,1.17,1.17,0,0,0-.29-.84,1,1,0,0,0-.82-.32,1,1,0,0,0-.78.32A1.28,1.28,0,0,0,418.38,111.46Z" transform="translate(5 5)"/><path class="cls-3" d="M387.45,120.78h1.2a3.2,3.2,0,0,1,.78.1,2,2,0,0,1,.6.29,1.43,1.43,0,0,1,.4.48,1.56,1.56,0,0,1-.15,1.55,1.53,1.53,0,0,1-.89.56l2,2.33h-.74l-2-2.26-.64,0v2.28h-.6Zm1.24.52h-.64v2h.66a1.3,1.3,0,0,0,.89-.27,1,1,0,0,0,.3-.8.87.87,0,0,0-.27-.67A1.34,1.34,0,0,0,388.69,121.3Z" transform="translate(5 5)"/><path class="cls-3" d="M396.2,125.65a3.45,3.45,0,0,1-.82.39,3.33,3.33,0,0,1-1,.14,2.83,2.83,0,0,1-1.14-.21,2.25,2.25,0,0,1-.79-.59,2.35,2.35,0,0,1-.47-.85,3.42,3.42,0,0,1-.15-1,3.1,3.1,0,0,1,.17-1.06,2.38,2.38,0,0,1,1.32-1.46,2.91,2.91,0,0,1,1.15-.21,4.43,4.43,0,0,1,.9.09,3.86,3.86,0,0,1,.79.25l-.17.58a2.26,2.26,0,0,0-.66-.28,3.2,3.2,0,0,0-.91-.11,2.35,2.35,0,0,0-.9.15,1.51,1.51,0,0,0-.6.44,1.75,1.75,0,0,0-.33.67,4,4,0,0,0-.1.88,2.51,2.51,0,0,0,.48,1.66,1.8,1.8,0,0,0,1.43.56,2.71,2.71,0,0,0,.66-.08,2.38,2.38,0,0,0,.57-.18v-1.49h.6Z" transform="translate(5 5)"/><path class="cls-3" d="M397.51,120.78h1.23a1.79,1.79,0,0,1,1.15.35,1.25,1.25,0,0,1,.43,1,1.37,1.37,0,0,1-.13.58,1.17,1.17,0,0,1-.42.44,1.56,1.56,0,0,1,.76.5,1.37,1.37,0,0,1,.27.87,1.69,1.69,0,0,1-.12.64,1.42,1.42,0,0,1-.37.52,1.86,1.86,0,0,1-.62.35,2.47,2.47,0,0,1-.86.13c-.26,0-.5,0-.73,0l-.59-.07ZM398.6,123a1.13,1.13,0,0,0,.78-.25.91.91,0,0,0,.27-.7.79.79,0,0,0-.19-.56.88.88,0,0,0-.67-.22h-.68V123h.49Zm.21,2.63a1.42,1.42,0,0,0,1-.3,1.1,1.1,0,0,0,.34-.88.92.92,0,0,0-.3-.72,1.65,1.65,0,0,0-1-.26h-.68v2.13C398.32,125.65,398.55,125.66,398.81,125.66Z" transform="translate(5 5)"/><path class="cls-3" d="M405.47,120a5.48,5.48,0,0,0-.56.76,4.48,4.48,0,0,0-.37.8,6.09,6.09,0,0,0-.21.89,7.79,7.79,0,0,0-.06,1c0,.22,0,.46,0,.73a4.67,4.67,0,0,0,.15.84,5.12,5.12,0,0,0,.36.92,4.78,4.78,0,0,0,.65,1l-.29.1a4.81,4.81,0,0,1-1.2-1.6,4.69,4.69,0,0,1-.42-2,4.53,4.53,0,0,1,.42-1.93,5.1,5.1,0,0,1,1.2-1.62Z" transform="translate(5 5)"/><path class="cls-3" d="M406.09,121.16l.34-.15.4-.13a1.86,1.86,0,0,1,.41-.08l.41,0a2.08,2.08,0,0,1,.63.09,1.77,1.77,0,0,1,.49.27,1.17,1.17,0,0,1,.32.41,1.27,1.27,0,0,1,.11.52,1.68,1.68,0,0,1-.25.88,5.31,5.31,0,0,1-.62.86c-.25.29-.52.58-.81.86s-.57.58-.83.87h2.56v.56H406v-.56a11.09,11.09,0,0,1,.8-.91c.3-.3.57-.59.83-.87a5.85,5.85,0,0,0,.64-.84,1.57,1.57,0,0,0,.25-.84,1,1,0,0,0,0-.3.73.73,0,0,0-.15-.25.76.76,0,0,0-.28-.16,1.35,1.35,0,0,0-.43-.06l-.37,0-.39.09a3,3,0,0,0-.36.13,1.21,1.21,0,0,0-.28.15Z" transform="translate(5 5)"/><path class="cls-3" d="M411.45,126.09h-.6v-4.21l-.76.37-.18-.56,1.54-.88Z" transform="translate(5 5)"/><path class="cls-3" d="M412.89,126.09a.81.81,0,0,1,0-.16v-.15a3.38,3.38,0,0,1,.21-1.11,7.92,7.92,0,0,1,.54-1.2,10.75,10.75,0,0,1,.73-1.16c.27-.37.53-.7.78-1h-2.57v-.56h3.24v.56a6.78,6.78,0,0,0-.8,1,9.08,9.08,0,0,0-.72,1.2,7.44,7.44,0,0,0-.52,1.22,3.49,3.49,0,0,0-.2,1v.17s0,.1,0,.15Z" transform="translate(5 5)"/><path class="cls-3" d="M415.26,126.71l.31-.58h-.2v-.72H416v.84l-.58.61Z" transform="translate(5 5)"/><path class="cls-3" d="M417.11,121.16l.34-.15.4-.13a2,2,0,0,1,.41-.08l.41,0a2.08,2.08,0,0,1,.63.09,1.64,1.64,0,0,1,.49.27,1.17,1.17,0,0,1,.32.41,1.27,1.27,0,0,1,.11.52,1.68,1.68,0,0,1-.25.88,4.76,4.76,0,0,1-.62.86c-.25.29-.52.58-.81.86s-.57.58-.82.87h2.56v.56H417v-.56a9.48,9.48,0,0,1,.8-.91c.29-.3.57-.59.82-.87a5.2,5.2,0,0,0,.64-.84,1.59,1.59,0,0,0,.26-.84,1,1,0,0,0-.05-.3.73.73,0,0,0-.15-.25.69.69,0,0,0-.28-.16,1.31,1.31,0,0,0-.43-.06l-.37,0-.39.09a3,3,0,0,0-.36.13,1.46,1.46,0,0,0-.28.15Z" transform="translate(5 5)"/><path class="cls-3" d="M422.48,126.09h-.6v-4.21l-.77.37-.18-.56,1.55-.88Z" transform="translate(5 5)"/><path class="cls-3" d="M426.3,123.19a1.14,1.14,0,0,1,.72.48,1.67,1.67,0,0,1,.25.91,2.08,2.08,0,0,1-.1.63,1.25,1.25,0,0,1-.33.51,1.6,1.6,0,0,1-.55.34,2.41,2.41,0,0,1-.8.12,2.15,2.15,0,0,1-.81-.13,1.45,1.45,0,0,1-.55-.35,1.32,1.32,0,0,1-.3-.51,1.7,1.7,0,0,1-.1-.59,1.56,1.56,0,0,1,.26-.9,1.31,1.31,0,0,1,.71-.5v0a1.07,1.07,0,0,1-.49-.39,1.23,1.23,0,0,1-.21-.73,1.18,1.18,0,0,1,.39-.93,1.94,1.94,0,0,1,2.21,0,1.13,1.13,0,0,1,.4.91,1.18,1.18,0,0,1-.2.72,1.12,1.12,0,0,1-.5.42Zm.3,1.45a1.67,1.67,0,0,0-.06-.44,1,1,0,0,0-.19-.37,1.06,1.06,0,0,0-.35-.27,1.35,1.35,0,0,0-1,0,1,1,0,0,0-.35.27,1,1,0,0,0-.19.37,1.67,1.67,0,0,0-.06.44,1,1,0,0,0,.29.78,1.13,1.13,0,0,0,.82.28,1.15,1.15,0,0,0,.83-.28A1,1,0,0,0,426.6,124.64Zm-.25-2.56a.87.87,0,0,0-.19-.57.8.8,0,0,0-.67-.24.84.84,0,0,0-.66.23.86.86,0,0,0-.19.58.93.93,0,0,0,.22.65.78.78,0,0,0,.63.25.8.8,0,0,0,.64-.25A.93.93,0,0,0,426.35,122.08Z" transform="translate(5 5)"/><path class="cls-3" d="M428.28,126.71l.31-.58h-.2v-.72H429v.84l-.58.61Z" transform="translate(5 5)"/><path class="cls-3" d="M430.12,121.16l.35-.15.39-.13a2.07,2.07,0,0,1,.42-.08l.4,0a2.2,2.2,0,0,1,.64.09,1.77,1.77,0,0,1,.49.27,1.25,1.25,0,0,1,.43.93,1.78,1.78,0,0,1-.25.88,5.31,5.31,0,0,1-.62.86c-.25.29-.52.58-.81.86s-.57.58-.83.87h2.56v.56h-3.24v-.56a11.09,11.09,0,0,1,.8-.91c.3-.3.57-.59.83-.87a5.85,5.85,0,0,0,.64-.84,1.57,1.57,0,0,0,.25-.84,1,1,0,0,0,0-.3.73.73,0,0,0-.15-.25.85.85,0,0,0-.28-.16,1.35,1.35,0,0,0-.43-.06l-.37,0-.39.09a3,3,0,0,0-.36.13,1.21,1.21,0,0,0-.28.15Z" transform="translate(5 5)"/><path class="cls-3" d="M435.49,126.09h-.6v-4.21l-.77.37-.17-.56,1.54-.88Z" transform="translate(5 5)"/><path class="cls-3" d="M436.92,126.09v-.31a3.38,3.38,0,0,1,.21-1.11,7.92,7.92,0,0,1,.54-1.2,10.75,10.75,0,0,1,.73-1.16c.27-.37.53-.7.78-1H436.6v-.56h3.24v.56a8.45,8.45,0,0,0-.8,1,11.9,11.9,0,0,0-.72,1.2,8.34,8.34,0,0,0-.51,1.22,3.49,3.49,0,0,0-.2,1v.17s0,.1,0,.15Z" transform="translate(5 5)"/><path class="cls-3" d="M440.41,119.92a5.07,5.07,0,0,1,1.19,1.62,4.39,4.39,0,0,1,.43,1.93,4.54,4.54,0,0,1-.43,2,4.79,4.79,0,0,1-1.19,1.6l-.29-.1a5.25,5.25,0,0,0,.65-1,5.12,5.12,0,0,0,.36-.92,4.67,4.67,0,0,0,.15-.84c0-.27,0-.51,0-.73a6.28,6.28,0,0,0-.07-1,5,5,0,0,0-.2-.89,3.91,3.91,0,0,0-.38-.8,4.7,4.7,0,0,0-.55-.76Z" transform="translate(5 5)"/><path class="cls-3" d="M391.2,132.69a2.3,2.3,0,0,0-.63-.28,2.89,2.89,0,0,0-.86-.11,2.35,2.35,0,0,0-.9.15,1.51,1.51,0,0,0-.6.44,1.75,1.75,0,0,0-.33.67,3.49,3.49,0,0,0-.1.88,2.51,2.51,0,0,0,.48,1.66,1.8,1.8,0,0,0,1.43.56,2.75,2.75,0,0,0,.93-.15,2.06,2.06,0,0,0,.68-.35l.16.54a4.31,4.31,0,0,1-.77.34,3.23,3.23,0,0,1-1,.14,2.83,2.83,0,0,1-1.14-.21,2.25,2.25,0,0,1-.79-.59,2.35,2.35,0,0,1-.47-.85,3.42,3.42,0,0,1-.15-1,3.1,3.1,0,0,1,.17-1.06,2.38,2.38,0,0,1,1.32-1.46,2.91,2.91,0,0,1,1.15-.21,4.19,4.19,0,0,1,.86.09,3.29,3.29,0,0,1,.75.25Z" transform="translate(5 5)"/><path class="cls-3" d="M393.54,137.09h-.6v-4.21l-.77.37-.17-.56,1.54-.88Z" transform="translate(5 5)"/><path class="cls-3" d="M396.08,137.09h-.6v-4.21l-.77.37-.18-.56,1.55-.88Z" transform="translate(5 5)"/><path class="cls-3" d="M402.22,136.34l1.79-4.53h.77v5.28h-.6v-4l-1.61,4h-.72l-1.63-4v4h-.6v-5.28h.81Z" transform="translate(5 5)"/><path class="cls-3" d="M406.21,137.09v-.31a3.38,3.38,0,0,1,.21-1.11,7.92,7.92,0,0,1,.54-1.2,10.75,10.75,0,0,1,.73-1.16c.27-.37.53-.7.78-1h-2.58v-.56h3.24v.56a8.45,8.45,0,0,0-.8,1,11.9,11.9,0,0,0-.72,1.2,8.34,8.34,0,0,0-.51,1.22,3.49,3.49,0,0,0-.2,1.05v.17a.76.76,0,0,0,0,.15Z" transform="translate(5 5)"/><path class="cls-3" d="M410.53,131.81h.71l1.67,2.53,1.62-2.53h.69l-2,3.11v2.17h-.6V135Z" transform="translate(5 5)"/><path class="cls-3" d="M416.88,137.09h-.59v-4.21l-.77.37-.18-.56,1.54-.88Z" transform="translate(5 5)"/><path class="cls-3" d="M419.42,137.09h-.6v-4.21l-.77.37-.17-.56,1.54-.88Z" transform="translate(5 5)"/><path class="cls-3" d="M423.56,134.3a4.85,4.85,0,0,0,.41-.3c.12-.1.26-.23.41-.38a9.6,9.6,0,0,0,.79-.86c.27-.31.51-.63.74-.95h.69q-.19.28-.42.57l-.47.58q-.24.28-.48.54c-.15.17-.3.32-.44.46l-.17.16a1.85,1.85,0,0,0-.14.14l2.44,2.83h-.74L424,134.64l-.48.36v2.09H423v-5.28h.6Z" transform="translate(5 5)"/><path class="cls-3" d="M429.56,131.77a1.87,1.87,0,0,1,.9.21,2,2,0,0,1,.67.59,2.74,2.74,0,0,1,.41.86,3.82,3.82,0,0,1,0,2,3.05,3.05,0,0,1-.42.87,2.21,2.21,0,0,1-.68.61,1.92,1.92,0,0,1-.94.22,1.88,1.88,0,0,1-.91-.21,1.9,1.9,0,0,1-.64-.59,2.77,2.77,0,0,1-.39-.85,3.75,3.75,0,0,1-.13-1,4.13,4.13,0,0,1,.14-1.07,2.93,2.93,0,0,1,.42-.87,2,2,0,0,1,.67-.59A1.87,1.87,0,0,1,429.56,131.77Zm0,4.89a1.37,1.37,0,0,0,.68-.17,1.32,1.32,0,0,0,.47-.47,2.16,2.16,0,0,0,.27-.69,3.82,3.82,0,0,0,.09-.85,4.06,4.06,0,0,0-.09-.89,2.38,2.38,0,0,0-.28-.69,1.31,1.31,0,0,0-.47-.44,1.29,1.29,0,0,0-.66-.16,1.4,1.4,0,0,0-.66.15,1.35,1.35,0,0,0-.45.44,2.47,2.47,0,0,0-.25.68,4.57,4.57,0,0,0-.08.86,3.13,3.13,0,0,0,.37,1.67A1.21,1.21,0,0,0,429.52,136.66Z" transform="translate(5 5)"/></g><g class="cls-8"><g class="cls-2"><rect class="cls-9" x="386.66" width="94.6" height="94.6"/></g></g><g class="cls-2"><path class="cls-3" d="M519.7,102.69V98.81h.92v5.28h-1.13l-2.32-3.87v3.87h-.92V98.81h1.13Z" transform="translate(5 5)"/><path class="cls-3" d="M524,104.09l-.07-.51h0a1.41,1.41,0,0,1-.59.44,1.84,1.84,0,0,1-.75.16,1.07,1.07,0,0,1-.8-.29,1,1,0,0,1-.28-.77,1.17,1.17,0,0,1,.14-.59,1.19,1.19,0,0,1,.4-.44,2,2,0,0,1,.63-.27,3,3,0,0,1,.83-.1h.34v-.12a.54.54,0,0,0-.2-.46A1.23,1.23,0,0,0,523,101a2.15,2.15,0,0,0-1,.26l-.17-.66a2.52,2.52,0,0,1,1.29-.31,1.93,1.93,0,0,1,1.22.33,1.24,1.24,0,0,1,.32.39,1.26,1.26,0,0,1,.12.57v2.51Zm-1.1-.62a1.19,1.19,0,0,0,.51-.12,1.13,1.13,0,0,0,.41-.33v-.73h-.15a2,2,0,0,0-1,.17.56.56,0,0,0-.3.53A.43.43,0,0,0,522.94,103.47Z" transform="translate(5 5)"/><path class="cls-3" d="M527.87,104.09H526.8l-1.47-3.68h.92l1.11,3,1.16-3h.87Z" transform="translate(5 5)"/><path class="cls-3" d="M531.65,103l1-2.61h.85L532,104.12a4.73,4.73,0,0,1-.77,1.28,2.67,2.67,0,0,1-.6.52,1.3,1.3,0,0,1-.73.22h-.1l-.07,0-.15-.69,0,0h.14a1.53,1.53,0,0,0,.3,0,1,1,0,0,0,.3-.13,1.74,1.74,0,0,0,.5-.51,5.07,5.07,0,0,0,.41-.81l-1.83-3.56h.92Z" transform="translate(5 5)"/><path class="cls-3" d="M519.2,111.52h1l-.09.42h-1l-.21,1h1l-.08.42h-1l-.37,1.78h-.52l.38-1.78h-1l-.37,1.78h-.51l.37-1.78h-.93l.08-.42h.94l.21-1h-1l.08-.42h1l.35-1.66H518l-.35,1.66h1l.35-1.66h.51Zm-1.82,1.37h1l.21-1h-1Z" transform="translate(5 5)"/><path class="cls-3" d="M520.91,110.16l.34-.15.4-.13a2,2,0,0,1,.42-.08l.4,0a2.08,2.08,0,0,1,.63.09,1.64,1.64,0,0,1,.49.27,1.17,1.17,0,0,1,.32.41,1.27,1.27,0,0,1,.11.52,1.68,1.68,0,0,1-.25.88,4.76,4.76,0,0,1-.62.86,10.76,10.76,0,0,1-.81.86c-.29.29-.57.58-.82.87h2.56v.56h-3.24v-.56a9.48,9.48,0,0,1,.8-.91c.29-.3.57-.59.82-.87a5.2,5.2,0,0,0,.64-.84,1.59,1.59,0,0,0,.26-.84,1,1,0,0,0-.05-.3.73.73,0,0,0-.15-.25.69.69,0,0,0-.28-.16,1.31,1.31,0,0,0-.43-.06l-.37,0-.39.09-.36.13a1.46,1.46,0,0,0-.28.15Z" transform="translate(5 5)"/><path class="cls-3" d="M525.17,115.09v-.31a3.38,3.38,0,0,1,.21-1.11,7.92,7.92,0,0,1,.54-1.2,10.75,10.75,0,0,1,.73-1.16c.27-.37.53-.7.78-1h-2.58v-.56h3.24v.56a8.45,8.45,0,0,0-.8,1,11.9,11.9,0,0,0-.72,1.2,8.34,8.34,0,0,0-.51,1.22,3.49,3.49,0,0,0-.2,1v.17a.76.76,0,0,0,0,.15Z" transform="translate(5 5)"/><path class="cls-3" d="M531.41,113.41h-.55v1.68h-.6v-1.68H528v-.56l2.23-3h.64v3h.55Zm-1.15-.56v-2.17l-1.59,2.17Z" transform="translate(5 5)"/><path class="cls-3" d="M537,115.09h-.67l-.78-1.78h-2.36l-.7,1.78h-.65l2.12-5.28h.72Zm-3.59-2.34h1.89l-1-2.27Z" transform="translate(5 5)"/><path class="cls-3" d="M538,112.47a.85.85,0,0,1,.24-.29,1.4,1.4,0,0,1,.32-.18,2.11,2.11,0,0,1,.36-.09,2.56,2.56,0,0,1,.39,0,1.78,1.78,0,0,1,.82.17,1.65,1.65,0,0,1,.48.42,1.55,1.55,0,0,1,.23.53,2,2,0,0,1,.07.5,2,2,0,0,1-.09.59,1.74,1.74,0,0,1-.3.55,1.52,1.52,0,0,1-.53.39,1.81,1.81,0,0,1-.78.15,1.84,1.84,0,0,1-.85-.17,1.49,1.49,0,0,1-.55-.51,2.2,2.2,0,0,1-.31-.78,5.26,5.26,0,0,1-.1-1,6.38,6.38,0,0,1,.1-1.08,2.92,2.92,0,0,1,.32-.93,1.84,1.84,0,0,1,.61-.66,1.67,1.67,0,0,1,1-.25h.29a2.14,2.14,0,0,1,.35.06,2,2,0,0,1,.34.12,1.15,1.15,0,0,1,.28.19l-.13.53a1.64,1.64,0,0,0-.58-.31,1.86,1.86,0,0,0-.54-.08,1.25,1.25,0,0,0-1.14.62,2.28,2.28,0,0,0-.23.62,4,4,0,0,0-.07.69v.12s0,.07,0,.11Zm2.28,1a1.42,1.42,0,0,0-.05-.42.86.86,0,0,0-.17-.36.8.8,0,0,0-.31-.26,1.14,1.14,0,0,0-.48-.09,1.1,1.1,0,0,0-.88.33,1.27,1.27,0,0,0-.28.84,1.17,1.17,0,0,0,.29.84,1.16,1.16,0,0,0,1.6,0A1.26,1.26,0,0,0,540.32,113.5Z" transform="translate(5 5)"/><path class="cls-3" d="M542,110.16l.31-.15.36-.13a1.53,1.53,0,0,1,.37-.08l.34,0a1.74,1.74,0,0,1,1.15.35,1.25,1.25,0,0,1,.43,1,1,1,0,0,1-.22.62,1.84,1.84,0,0,1-.54.46,1.53,1.53,0,0,1,.75.48,1.3,1.3,0,0,1,.26.84,1.69,1.69,0,0,1-.12.64,1.42,1.42,0,0,1-.37.52,1.81,1.81,0,0,1-.61.35,2.51,2.51,0,0,1-.86.13,2.56,2.56,0,0,1-1.57-.49l.16-.54a2.22,2.22,0,0,0,.63.37,2,2,0,0,0,.75.14,1.46,1.46,0,0,0,1-.3,1.11,1.11,0,0,0,.34-.88.9.9,0,0,0-.31-.72,1.55,1.55,0,0,0-1-.27H543V112h.25a1.13,1.13,0,0,0,.78-.25.93.93,0,0,0,.27-.7.84.84,0,0,0-.19-.57.88.88,0,0,0-.67-.21,2.31,2.31,0,0,0-.37,0l-.35.08-.32.13a.9.9,0,0,0-.24.15Z" transform="translate(5 5)"/><path class="cls-3" d="M516.34,120.78h1.19a3.22,3.22,0,0,1,.79.1,2.09,2.09,0,0,1,.6.29,1.29,1.29,0,0,1,.39.48,1.35,1.35,0,0,1,.14.65,1.48,1.48,0,0,1-.28.9,1.56,1.56,0,0,1-.89.56l2,2.33h-.74l-2-2.26-.64,0v2.28h-.6Zm1.24.52h-.64v2h.66a1.3,1.3,0,0,0,.89-.27,1,1,0,0,0,.3-.8.87.87,0,0,0-.27-.67A1.35,1.35,0,0,0,517.58,121.3Z" transform="translate(5 5)"/><path class="cls-3" d="M525.08,125.65a3.2,3.2,0,0,1-.81.39,3.33,3.33,0,0,1-1,.14,2.83,2.83,0,0,1-1.14-.21,2.25,2.25,0,0,1-.79-.59,2.21,2.21,0,0,1-.47-.85,3.42,3.42,0,0,1-.15-1,3.36,3.36,0,0,1,.16-1.06,2.51,2.51,0,0,1,.5-.87,2.41,2.41,0,0,1,.83-.59,2.88,2.88,0,0,1,1.15-.21,4.5,4.5,0,0,1,.9.09,4,4,0,0,1,.78.25l-.16.58a2.52,2.52,0,0,0-.66-.28,3.24,3.24,0,0,0-.91-.11,2.44,2.44,0,0,0-.91.15,1.55,1.55,0,0,0-.59.44,1.62,1.62,0,0,0-.33.67,3.49,3.49,0,0,0-.1.88,2.51,2.51,0,0,0,.48,1.66,1.8,1.8,0,0,0,1.43.56,2.71,2.71,0,0,0,.66-.08,2.53,2.53,0,0,0,.57-.18v-1.49h.59Z" transform="translate(5 5)"/><path class="cls-3" d="M526.4,120.78h1.23a1.76,1.76,0,0,1,1.14.35,1.23,1.23,0,0,1,.44,1,1.24,1.24,0,0,1-.14.58,1.07,1.07,0,0,1-.41.44,1.49,1.49,0,0,1,.75.5,1.37,1.37,0,0,1,.28.87,1.69,1.69,0,0,1-.12.64,1.55,1.55,0,0,1-.37.52,1.86,1.86,0,0,1-.62.35,2.47,2.47,0,0,1-.86.13c-.26,0-.51,0-.73,0l-.59-.07Zm1.09,2.25a1.13,1.13,0,0,0,.78-.25.91.91,0,0,0,.27-.7.79.79,0,0,0-.19-.56.88.88,0,0,0-.67-.22H527V123h.49Zm.2,2.63a1.46,1.46,0,0,0,1-.3,1.1,1.1,0,0,0,.34-.88.9.9,0,0,0-.31-.72,1.62,1.62,0,0,0-1-.26H527v2.13Q527.32,125.66,527.69,125.66Z" transform="translate(5 5)"/><path class="cls-3" d="M534.36,120a4.78,4.78,0,0,0-.56.76,3.87,3.87,0,0,0-.37.8,4.28,4.28,0,0,0-.21.89,7.79,7.79,0,0,0-.06,1c0,.22,0,.46,0,.73a4.67,4.67,0,0,0,.15.84,5.12,5.12,0,0,0,.36.92,4.86,4.86,0,0,0,.66,1l-.3.1a4.79,4.79,0,0,1-1.19-1.6,4.69,4.69,0,0,1-.42-2,4.53,4.53,0,0,1,.42-1.93,5.07,5.07,0,0,1,1.19-1.62Z" transform="translate(5 5)"/><path class="cls-3" d="M537.8,124.41h-.55v1.68h-.6v-1.68h-2.28v-.56l2.24-3h.64v3h.55Zm-1.15-.56v-2.17l-1.6,2.17Z" transform="translate(5 5)"/><path class="cls-3" d="M540.79,120.77a1.94,1.94,0,0,1,.91.21,2.21,2.21,0,0,1,.67.59,3,3,0,0,1,.41.86,3.88,3.88,0,0,1,.14,1,3.5,3.5,0,0,1-.15,1,2.6,2.6,0,0,1-.42.87,2.21,2.21,0,0,1-.68.61,1.92,1.92,0,0,1-.94.22,1.84,1.84,0,0,1-.9-.21,1.93,1.93,0,0,1-.65-.59,2.77,2.77,0,0,1-.39-.85,4.19,4.19,0,0,1-.13-1,3.74,3.74,0,0,1,.15-1.07,2.69,2.69,0,0,1,.41-.87,2,2,0,0,1,.67-.59A1.87,1.87,0,0,1,540.79,120.77Zm0,4.89a1.34,1.34,0,0,0,.68-.17,1.32,1.32,0,0,0,.47-.47,2.16,2.16,0,0,0,.27-.69,3.82,3.82,0,0,0,.09-.85,4.06,4.06,0,0,0-.09-.89,2.38,2.38,0,0,0-.28-.69,1.31,1.31,0,0,0-.47-.44,1.25,1.25,0,0,0-.65-.16,1.34,1.34,0,0,0-.66.15,1.19,1.19,0,0,0-.45.44,2,2,0,0,0-.25.68,3.87,3.87,0,0,0-.08.86,3,3,0,0,0,.37,1.67A1.2,1.2,0,0,0,540.75,125.66Z" transform="translate(5 5)"/><path class="cls-3" d="M543.59,126.71l.31-.58h-.2v-.72h.63v.84l-.58.61Z" transform="translate(5 5)"/><path class="cls-3" d="M545.63,126.09a.81.81,0,0,1,0-.16v-.15a3.38,3.38,0,0,1,.21-1.11,7.92,7.92,0,0,1,.54-1.2,13.37,13.37,0,0,1,1.51-2.14h-2.57v-.56h3.24v.56a7.52,7.52,0,0,0-.8,1,9.08,9.08,0,0,0-.72,1.2,8.42,8.42,0,0,0-.52,1.22,3.44,3.44,0,0,0-.19,1v.17a.76.76,0,0,0,0,.15Z" transform="translate(5 5)"/><path class="cls-3" d="M549.26,123.55l.3-2.78h2.71v.56h-2.21l-.21,1.7c.17,0,.34-.07.52-.09a4.75,4.75,0,0,1,.51,0,2.28,2.28,0,0,1,.66.1,1.44,1.44,0,0,1,.53.3,1.29,1.29,0,0,1,.35.47,1.67,1.67,0,0,1,.12.65,2,2,0,0,1-.12.68,1.58,1.58,0,0,1-.36.56,1.91,1.91,0,0,1-.62.38,2.25,2.25,0,0,1-.86.14,2.63,2.63,0,0,1-.86-.13,2.57,2.57,0,0,1-.7-.36l.17-.56a3.33,3.33,0,0,0,.62.38,1.87,1.87,0,0,0,.78.15,1.41,1.41,0,0,0,.95-.3,1.11,1.11,0,0,0,.34-.88,1.32,1.32,0,0,0,0-.41.69.69,0,0,0-.21-.32,1,1,0,0,0-.39-.21,2.47,2.47,0,0,0-.6-.07,3.9,3.9,0,0,0-.58,0,2.73,2.73,0,0,0-.56.15Z" transform="translate(5 5)"/><path class="cls-3" d="M553.49,126.71l.31-.58h-.2v-.72h.64v.84l-.59.61Z" transform="translate(5 5)"/><path class="cls-3" d="M556.25,126.09h-.6v-4.21l-.77.37-.17-.56,1.54-.88Z" transform="translate(5 5)"/><path class="cls-3" d="M559.65,120.77a1.87,1.87,0,0,1,.9.21,2,2,0,0,1,.67.59,2.74,2.74,0,0,1,.41.86,3.82,3.82,0,0,1,0,2,3.05,3.05,0,0,1-.42.87,2.21,2.21,0,0,1-.68.61,2,2,0,0,1-.94.22,1.88,1.88,0,0,1-.91-.21,1.9,1.9,0,0,1-.64-.59,2.77,2.77,0,0,1-.39-.85,3.75,3.75,0,0,1-.13-1,4.13,4.13,0,0,1,.14-1.07,2.93,2.93,0,0,1,.42-.87,2,2,0,0,1,.67-.59A1.87,1.87,0,0,1,559.65,120.77Zm0,4.89a1.37,1.37,0,0,0,.68-.17,1.41,1.41,0,0,0,.47-.47,2.16,2.16,0,0,0,.27-.69,3.82,3.82,0,0,0,.09-.85,4.06,4.06,0,0,0-.09-.89,2.69,2.69,0,0,0-.28-.69,1.4,1.4,0,0,0-.47-.44,1.29,1.29,0,0,0-.66-.16,1.4,1.4,0,0,0-.66.15,1.35,1.35,0,0,0-.45.44,2.18,2.18,0,0,0-.25.68,4.57,4.57,0,0,0-.08.86,3,3,0,0,0,.37,1.67A1.21,1.21,0,0,0,559.61,125.66Z" transform="translate(5 5)"/><path class="cls-3" d="M564.84,120.77a1.94,1.94,0,0,1,.91.21,2.07,2.07,0,0,1,.66.59,3,3,0,0,1,.42.86,3.88,3.88,0,0,1,.13,1,3.49,3.49,0,0,1-.14,1,3.05,3.05,0,0,1-.42.87,2.21,2.21,0,0,1-.68.61,1.92,1.92,0,0,1-.94.22,1.88,1.88,0,0,1-.91-.21,1.9,1.9,0,0,1-.64-.59,2.77,2.77,0,0,1-.39-.85,3.75,3.75,0,0,1-.13-1,4.13,4.13,0,0,1,.14-1.07,2.93,2.93,0,0,1,.42-.87,2,2,0,0,1,.67-.59A1.87,1.87,0,0,1,564.84,120.77Zm0,4.89a1.34,1.34,0,0,0,.68-.17A1.32,1.32,0,0,0,566,125a2.16,2.16,0,0,0,.27-.69,3.82,3.82,0,0,0,.09-.85,4.06,4.06,0,0,0-.09-.89,2.38,2.38,0,0,0-.28-.69,1.31,1.31,0,0,0-.47-.44,1.29,1.29,0,0,0-.66-.16,1.4,1.4,0,0,0-.66.15,1.24,1.24,0,0,0-.44.44,2.19,2.19,0,0,0-.26.68,4.57,4.57,0,0,0-.08.86,3,3,0,0,0,.38,1.67A1.18,1.18,0,0,0,564.8,125.66Z" transform="translate(5 5)"/><path class="cls-3" d="M567.53,119.92a5.07,5.07,0,0,1,1.19,1.62,4.39,4.39,0,0,1,.43,1.93,4.54,4.54,0,0,1-.43,2,4.79,4.79,0,0,1-1.19,1.6l-.29-.1a5.25,5.25,0,0,0,.65-1,5.12,5.12,0,0,0,.36-.92,4.67,4.67,0,0,0,.15-.84c0-.27,0-.51,0-.73a6.28,6.28,0,0,0-.07-1,5,5,0,0,0-.2-.89,3.91,3.91,0,0,0-.38-.8,4.7,4.7,0,0,0-.55-.76Z" transform="translate(5 5)"/><path class="cls-3" d="M520.08,132.69a2.3,2.3,0,0,0-.63-.28,2.78,2.78,0,0,0-.85-.11,2.44,2.44,0,0,0-.91.15,1.55,1.55,0,0,0-.59.44,1.75,1.75,0,0,0-.33.67,3.49,3.49,0,0,0-.1.88,2.51,2.51,0,0,0,.48,1.66,1.8,1.8,0,0,0,1.43.56,2.75,2.75,0,0,0,.93-.15,2.06,2.06,0,0,0,.68-.35l.16.54a4.31,4.31,0,0,1-.77.34,3.23,3.23,0,0,1-1,.14,2.83,2.83,0,0,1-1.14-.21,2.38,2.38,0,0,1-.8-.59,2.33,2.33,0,0,1-.46-.85,3.42,3.42,0,0,1-.16-1,3.36,3.36,0,0,1,.17-1.06,2.68,2.68,0,0,1,.5-.87,2.41,2.41,0,0,1,.83-.59,2.91,2.91,0,0,1,1.15-.21,4.26,4.26,0,0,1,.86.09,3.2,3.2,0,0,1,.74.25Z" transform="translate(5 5)"/><path class="cls-3" d="M523.72,134.19a1.12,1.12,0,0,1,.71.48,1.59,1.59,0,0,1,.25.91,1.81,1.81,0,0,1-.1.63,1.34,1.34,0,0,1-.32.51,1.65,1.65,0,0,1-.56.34,2.34,2.34,0,0,1-.79.12,2.24,2.24,0,0,1-.82-.13,1.49,1.49,0,0,1-.54-.35,1.32,1.32,0,0,1-.3-.51,1.7,1.7,0,0,1-.1-.59,1.49,1.49,0,0,1,.26-.9,1.27,1.27,0,0,1,.71-.5v0a1.14,1.14,0,0,1-.5-.39,1.23,1.23,0,0,1-.21-.73,1.18,1.18,0,0,1,.39-.93,1.67,1.67,0,0,1,1.12-.35,1.63,1.63,0,0,1,1.1.34,1.13,1.13,0,0,1,.4.91,1.18,1.18,0,0,1-.7,1.14Zm.3,1.45a1.67,1.67,0,0,0-.06-.44.89.89,0,0,0-.2-.37,1,1,0,0,0-.34-.27,1.29,1.29,0,0,0-.51-.1,1.34,1.34,0,0,0-.52.1,1,1,0,0,0-.34.27,1,1,0,0,0-.19.37,1.67,1.67,0,0,0-.06.44,1,1,0,0,0,.28.78,1.37,1.37,0,0,0,1.66,0A1,1,0,0,0,524,135.64Zm-.26-2.56a.92.92,0,0,0-.18-.57,1.06,1.06,0,0,0-1.33,0,.87.87,0,0,0-.2.58,1,1,0,0,0,.22.65.8.8,0,0,0,.64.25.77.77,0,0,0,.63-.25A.93.93,0,0,0,523.76,133.08Z" transform="translate(5 5)"/><path class="cls-3" d="M528.18,134.19a1.14,1.14,0,0,1,.72.48,1.59,1.59,0,0,1,.25.91,1.81,1.81,0,0,1-.11.63,1.14,1.14,0,0,1-.32.51,1.6,1.6,0,0,1-.55.34,2.41,2.41,0,0,1-.8.12,2.15,2.15,0,0,1-.81-.13,1.45,1.45,0,0,1-.55-.35,1.32,1.32,0,0,1-.3-.51,2,2,0,0,1-.1-.59,1.56,1.56,0,0,1,.26-.9,1.31,1.31,0,0,1,.71-.5v0a1.07,1.07,0,0,1-.49-.39,1.23,1.23,0,0,1-.21-.73,1.18,1.18,0,0,1,.39-.93,1.62,1.62,0,0,1,1.11-.35,1.66,1.66,0,0,1,1.11.34,1.15,1.15,0,0,1,.39.91,1.18,1.18,0,0,1-.7,1.14Zm.31,1.45a1.68,1.68,0,0,0-.07-.44,1,1,0,0,0-.19-.37,1.06,1.06,0,0,0-.35-.27,1.35,1.35,0,0,0-1,0,1.06,1.06,0,0,0-.35.27,1,1,0,0,0-.19.37,1.67,1.67,0,0,0-.06.44,1.06,1.06,0,0,0,.28.78,1.17,1.17,0,0,0,.83.28,1.15,1.15,0,0,0,.83-.28A1,1,0,0,0,528.49,135.64Zm-.26-2.56a.87.87,0,0,0-.19-.57.8.8,0,0,0-.67-.24.84.84,0,0,0-.66.23.86.86,0,0,0-.19.58.93.93,0,0,0,.22.65.78.78,0,0,0,.63.25.8.8,0,0,0,.64-.25A.93.93,0,0,0,528.23,133.08Z" transform="translate(5 5)"/><path class="cls-3" d="M535,136.34l1.8-4.53h.77v5.28h-.61v-4l-1.61,4h-.72l-1.63-4v4h-.59v-5.28h.8Z" transform="translate(5 5)"/><path class="cls-3" d="M539.41,134.47a1.16,1.16,0,0,1,.24-.29A2,2,0,0,1,540,134a2.22,2.22,0,0,1,.37-.09l.38,0a1.75,1.75,0,0,1,.82.17,1.43,1.43,0,0,1,.48.42,1.41,1.41,0,0,1,.24.53,2.49,2.49,0,0,1,.06.5,2,2,0,0,1-.09.59,1.71,1.71,0,0,1-.29.55,1.62,1.62,0,0,1-.53.39,1.87,1.87,0,0,1-.78.15,1.82,1.82,0,0,1-.85-.17,1.52,1.52,0,0,1-.56-.51,2.19,2.19,0,0,1-.3-.78,4.58,4.58,0,0,1-.1-1,6.38,6.38,0,0,1,.09-1.08,2.92,2.92,0,0,1,.32-.93,1.93,1.93,0,0,1,.61-.66,1.72,1.72,0,0,1,1-.25h.3a2,2,0,0,1,.34.06,2,2,0,0,1,.34.12,1.21,1.21,0,0,1,.29.19l-.14.53a1.6,1.6,0,0,0-.57-.31,2,2,0,0,0-.55-.08,1.24,1.24,0,0,0-.69.17,1.27,1.27,0,0,0-.44.45,1.77,1.77,0,0,0-.23.62,3.23,3.23,0,0,0-.07.69v.12a.45.45,0,0,0,0,.11Zm2.29,1a1.86,1.86,0,0,0-.05-.42,1,1,0,0,0-.17-.36.88.88,0,0,0-.31-.26,1.16,1.16,0,0,0-.49-.09,1.1,1.1,0,0,0-.88.33,1.33,1.33,0,0,0-.28.84,1.17,1.17,0,0,0,.29.84,1.06,1.06,0,0,0,.82.32,1,1,0,0,0,.78-.32A1.26,1.26,0,0,0,541.7,135.5Z" transform="translate(5 5)"/><path class="cls-3" d="M544.47,137.09h-.6v-4.21l-.77.37-.18-.56,1.55-.88Z" transform="translate(5 5)"/><path class="cls-3" d="M546.56,131.81h.71l1.67,2.53,1.62-2.53h.69l-2,3.11v2.17h-.6V135Z" transform="translate(5 5)"/><path class="cls-3" d="M551.79,132.16l.31-.15.35-.13a1.76,1.76,0,0,1,.37-.08l.35,0a1.73,1.73,0,0,1,1.14.35,1.22,1.22,0,0,1,.43,1,1,1,0,0,1-.22.62,1.84,1.84,0,0,1-.54.46,1.53,1.53,0,0,1,.75.48,1.25,1.25,0,0,1,.27.84,1.69,1.69,0,0,1-.12.64,1.55,1.55,0,0,1-.37.52,1.86,1.86,0,0,1-.62.35,2.47,2.47,0,0,1-.86.13,2.63,2.63,0,0,1-.86-.13,2.57,2.57,0,0,1-.7-.36l.16-.54a2.17,2.17,0,0,0,.62.37,2,2,0,0,0,.75.14,1.43,1.43,0,0,0,1-.3,1.11,1.11,0,0,0,.34-.88.92.92,0,0,0-.3-.72,1.6,1.6,0,0,0-1-.27h-.22V134H553a1.09,1.09,0,0,0,.78-.25.9.9,0,0,0,.28-.7.84.84,0,0,0-.2-.57.87.87,0,0,0-.67-.21l-.37,0-.35.08-.31.13a1.18,1.18,0,0,0-.25.15Z" transform="translate(5 5)"/><path class="cls-3" d="M558.77,134.49a.85.85,0,0,1-.24.29,1.4,1.4,0,0,1-.32.18,2.11,2.11,0,0,1-.36.09l-.39,0a1.68,1.68,0,0,1-.81-.17,1.57,1.57,0,0,1-.49-.42,1.55,1.55,0,0,1-.23-.53,2,2,0,0,1-.07-.5,2,2,0,0,1,.09-.59,1.56,1.56,0,0,1,.3-.55,1.52,1.52,0,0,1,.53-.39,1.81,1.81,0,0,1,.78-.15,2,2,0,0,1,.85.17,1.49,1.49,0,0,1,.55.51,2.28,2.28,0,0,1,.31.78,5.34,5.34,0,0,1,.1,1,6.38,6.38,0,0,1-.1,1.08,2.69,2.69,0,0,1-.32.93,1.84,1.84,0,0,1-.61.66,1.69,1.69,0,0,1-1,.25h-.3l-.34-.06a2,2,0,0,1-.34-.12.92.92,0,0,1-.28-.19l.13-.53a1.64,1.64,0,0,0,.58.31,1.86,1.86,0,0,0,.54.08,1.28,1.28,0,0,0,.7-.17,1.16,1.16,0,0,0,.43-.45,2,2,0,0,0,.24-.62,4,4,0,0,0,.07-.69v-.12s0-.07,0-.11Zm-2.28-1a1.42,1.42,0,0,0,0,.42.86.86,0,0,0,.17.36.8.8,0,0,0,.31.26,1.14,1.14,0,0,0,.48.09,1.1,1.1,0,0,0,.88-.33,1.27,1.27,0,0,0,.28-.84,1.13,1.13,0,0,0-.29-.84,1.16,1.16,0,0,0-1.6,0A1.27,1.27,0,0,0,556.49,133.46Z" transform="translate(5 5)"/><path class="cls-3" d="M563.22,134.3a4.63,4.63,0,0,0,.4-.3c.13-.1.26-.23.42-.38a11.36,11.36,0,0,0,.79-.86,10.47,10.47,0,0,0,.73-.95h.69q-.19.28-.42.57l-.46.58q-.24.28-.48.54l-.44.46-.17.16-.15.14,2.45,2.83h-.74l-2.15-2.45-.47.36v2.09h-.6v-5.28h.6Z" transform="translate(5 5)"/><path class="cls-3" d="M567.23,132.16l.31-.15.35-.13a1.76,1.76,0,0,1,.37-.08l.35,0a1.73,1.73,0,0,1,1.14.35,1.22,1.22,0,0,1,.43,1,1,1,0,0,1-.22.62,1.84,1.84,0,0,1-.54.46,1.53,1.53,0,0,1,.75.48,1.25,1.25,0,0,1,.27.84,1.69,1.69,0,0,1-.12.64,1.55,1.55,0,0,1-.37.52,1.86,1.86,0,0,1-.62.35,2.47,2.47,0,0,1-.86.13,2.63,2.63,0,0,1-.86-.13,2.43,2.43,0,0,1-.7-.36l.16-.54a2.17,2.17,0,0,0,.62.37,2.06,2.06,0,0,0,.76.14,1.42,1.42,0,0,0,1-.3,1.11,1.11,0,0,0,.34-.88.9.9,0,0,0-.31-.72,1.55,1.55,0,0,0-1-.27h-.22V134h.25a1.09,1.09,0,0,0,.78-.25.93.93,0,0,0,.28-.7.89.89,0,0,0-.19-.57.91.91,0,0,0-.68-.21,2.19,2.19,0,0,0-.36,0l-.36.08-.31.13a1.18,1.18,0,0,0-.25.15Z" transform="translate(5 5)"/><path class="cls-3" d="M573.49,131.77a1.91,1.91,0,0,1,.91.21,2,2,0,0,1,.67.59,2.74,2.74,0,0,1,.41.86,3.82,3.82,0,0,1,0,2,3.05,3.05,0,0,1-.42.87,2.37,2.37,0,0,1-.69.61,2.08,2.08,0,0,1-1.84,0,2,2,0,0,1-.65-.59,2.54,2.54,0,0,1-.38-.85,4.11,4.11,0,0,1,0-2.09,2.69,2.69,0,0,1,.41-.87,2.21,2.21,0,0,1,.67-.59A1.93,1.93,0,0,1,573.49,131.77Zm0,4.89a1.34,1.34,0,0,0,.68-.17,1.25,1.25,0,0,0,.47-.47,2,2,0,0,0,.28-.69,3.84,3.84,0,0,0,.08-.85,4.06,4.06,0,0,0-.09-.89,2.13,2.13,0,0,0-.28-.69,1.3,1.3,0,0,0-1.12-.6,1.34,1.34,0,0,0-.66.15,1.26,1.26,0,0,0-.45.44,2.18,2.18,0,0,0-.25.68,4.57,4.57,0,0,0-.08.86,3,3,0,0,0,.37,1.67A1.2,1.2,0,0,0,573.45,136.66Z" transform="translate(5 5)"/></g><g class="cls-10"><g class="cls-2"><rect class="cls-11" x="515.55" y="0.25" width="94.6" height="94.6"/></g></g><g class="cls-2"><path class="cls-3" d="M263.89,104.09h-.76l-1.44-4-1.43,4h-.76l-2-5.28h1l1.35,4.09,1.36-4.09h.91l1.35,4.09,1.35-4.09h1Z" transform="translate(5 5)"/><path class="cls-3" d="M267.29,101a1.51,1.51,0,0,1,.53-.51,1.54,1.54,0,0,1,.7-.15,1.49,1.49,0,0,1,.47.07.94.94,0,0,1,.39.22,1,1,0,0,1,.28.4,1.71,1.71,0,0,1,.1.6v2.51h-.88v-2.43a.73.73,0,0,0-.15-.5.5.5,0,0,0-.39-.16,1.25,1.25,0,0,0-.32,0,1.17,1.17,0,0,0-.3.14,1.43,1.43,0,0,0-.26.23,1.34,1.34,0,0,0-.17.31v2.36h-.88V98.17h.88Z" transform="translate(5 5)"/><path class="cls-3" d="M270.7,99.22a.52.52,0,0,1,0-.21.59.59,0,0,1,.13-.19.46.46,0,0,1,.18-.13.54.54,0,0,1,.22,0,.61.61,0,0,1,.4.18.59.59,0,0,1,.13.19.41.41,0,0,1,.05.21.4.4,0,0,1-.05.22.46.46,0,0,1-.13.18.5.5,0,0,1-.19.13.49.49,0,0,1-.21,0,.51.51,0,0,1-.4-.17A.54.54,0,0,1,270.7,99.22Zm1,4.87h-.88v-3.68h.88Z" transform="translate(5 5)"/><path class="cls-3" d="M273,100.94h-.46v-.48l.52-.08.15-1.08h.67v1.11h.7v.53h-.7v2.12a.75.75,0,0,0,.05.32c0,.06.09.08.18.08a.52.52,0,0,0,.21,0,1.36,1.36,0,0,0,.3-.15l.15.63a1.08,1.08,0,0,1-.43.21,2.08,2.08,0,0,1-.55.07,1.07,1.07,0,0,1-.39-.06.48.48,0,0,1-.25-.19.68.68,0,0,1-.12-.3,2.29,2.29,0,0,1,0-.39Z" transform="translate(5 5)"/><path class="cls-3" d="M277.14,100.29a1.59,1.59,0,0,1,1.09.35,1.34,1.34,0,0,1,.38,1,1.28,1.28,0,0,1,0,.19l0,.19c0,.07,0,.12-.05.17a.53.53,0,0,1-.06.13h-2.33a1.63,1.63,0,0,0,.09.45,1.23,1.23,0,0,0,.21.37,1,1,0,0,0,.33.25,1.08,1.08,0,0,0,.46.09,2.09,2.09,0,0,0,.63-.11,2.25,2.25,0,0,0,.56-.28l.15.65a2,2,0,0,1-.26.14L278,104l-.42.11a2.25,2.25,0,0,1-.46,0,2,2,0,0,1-.79-.15,1.81,1.81,0,0,1-.93-1,2.24,2.24,0,0,1-.12-.73,2.36,2.36,0,0,1,.13-.75,1.72,1.72,0,0,1,1-1.06A2.09,2.09,0,0,1,277.14,100.29Zm0,.69a.88.88,0,0,0-.58.19,1.16,1.16,0,0,0-.34.53h1.53a.07.07,0,0,0,0,0,.19.19,0,0,0,0-.08.58.58,0,0,0-.18-.43A.64.64,0,0,0,277.12,101Z" transform="translate(5 5)"/><path class="cls-3" d="M261.17,111.52h1l-.08.42h-1l-.2,1h1l-.08.42h-1l-.38,1.78h-.51l.38-1.78h-1l-.38,1.78h-.51l.38-1.78h-.93l.08-.42h.93l.21-1h-1l.08-.42h1l.35-1.66H260l-.35,1.66h1l.35-1.66h.51Zm-1.81,1.37h1l.21-1h-1Z" transform="translate(5 5)"/><path class="cls-3" d="M265.5,112.57h-1.67v2.52h-.6v-5.28h2.85v.56h-2.25V112h1.67Z" transform="translate(5 5)"/><path class="cls-3" d="M269.34,112.57h-1.67v2.52h-.6v-5.28h2.85v.56h-2.25V112h1.67Z" transform="translate(5 5)"/><path class="cls-3" d="M273.18,112.57h-1.67v2.52h-.6v-5.28h2.85v.56h-2.25V112h1.67Z" transform="translate(5 5)"/><path class="cls-3" d="M277,112.57h-1.67v2.52h-.6v-5.28h2.85v.56h-2.25V112H277Z" transform="translate(5 5)"/><path class="cls-3" d="M280.86,112.57h-1.67v2.52h-.6v-5.28h2.85v.56h-2.25V112h1.67Z" transform="translate(5 5)"/><path class="cls-3" d="M284.7,112.57H283v2.52h-.6v-5.28h2.85v.56H283V112h1.67Z" transform="translate(5 5)"/><path class="cls-3" d="M258.32,120.78h1.19a3.08,3.08,0,0,1,.78.1,2,2,0,0,1,.61.29,1.53,1.53,0,0,1,.39.48,1.56,1.56,0,0,1-.15,1.55,1.53,1.53,0,0,1-.89.56l2,2.33h-.75l-2-2.26-.64,0v2.28h-.6Zm1.24.52h-.64v2h.65a1.28,1.28,0,0,0,.89-.27,1,1,0,0,0,.3-.8.9.9,0,0,0-.26-.67A1.37,1.37,0,0,0,259.56,121.3Z" transform="translate(5 5)"/><path class="cls-3" d="M267.06,125.65a3.27,3.27,0,0,1-.82.39,3.33,3.33,0,0,1-1,.14,2.81,2.81,0,0,1-1.13-.21,2.29,2.29,0,0,1-.8-.59,2.35,2.35,0,0,1-.47-.85,3.42,3.42,0,0,1-.15-1,3.36,3.36,0,0,1,.17-1.06,2.51,2.51,0,0,1,.5-.87,2.37,2.37,0,0,1,.82-.59,2.91,2.91,0,0,1,1.15-.21,4.43,4.43,0,0,1,.9.09,3.86,3.86,0,0,1,.79.25l-.17.58a2.26,2.26,0,0,0-.66-.28,3.2,3.2,0,0,0-.91-.11,2.39,2.39,0,0,0-.9.15,1.51,1.51,0,0,0-.6.44,1.75,1.75,0,0,0-.33.67,4,4,0,0,0-.1.88,2.51,2.51,0,0,0,.48,1.66,1.8,1.8,0,0,0,1.44.56,2.84,2.84,0,0,0,.66-.08,2.45,2.45,0,0,0,.56-.18v-1.49h.6Z" transform="translate(5 5)"/><path class="cls-3" d="M268.37,120.78h1.23a1.79,1.79,0,0,1,1.15.35,1.22,1.22,0,0,1,.43,1,1.24,1.24,0,0,1-.13.58,1.22,1.22,0,0,1-.41.44,1.49,1.49,0,0,1,.75.5,1.37,1.37,0,0,1,.27.87,1.69,1.69,0,0,1-.12.64,1.42,1.42,0,0,1-.37.52,1.81,1.81,0,0,1-.61.35,2.57,2.57,0,0,1-.87.13c-.26,0-.5,0-.73,0l-.59-.07Zm1.09,2.25a1.09,1.09,0,0,0,.78-.25.92.92,0,0,0,.28-.7.8.8,0,0,0-.2-.56.87.87,0,0,0-.67-.22H269V123h.49Zm.21,2.63a1.46,1.46,0,0,0,1-.3,1.13,1.13,0,0,0,.34-.88.93.93,0,0,0-.31-.72,1.65,1.65,0,0,0-1-.26H269v2.13C269.18,125.65,269.41,125.66,269.67,125.66Z" transform="translate(5 5)"/><path class="cls-3" d="M276.33,120a4.7,4.7,0,0,0-.55.76,3.91,3.91,0,0,0-.38.8,5,5,0,0,0-.2.89,6.28,6.28,0,0,0-.07,1c0,.22,0,.46,0,.73a4.67,4.67,0,0,0,.15.84,5.12,5.12,0,0,0,.36.92,5.25,5.25,0,0,0,.65,1l-.29.1a4.79,4.79,0,0,1-1.19-1.6,4.54,4.54,0,0,1-.43-2,4.39,4.39,0,0,1,.43-1.93,5.07,5.07,0,0,1,1.19-1.62Z" transform="translate(5 5)"/><path class="cls-3" d="M277,121.16l.34-.15.4-.13a1.86,1.86,0,0,1,.41-.08l.41,0a2.08,2.08,0,0,1,.63.09,1.64,1.64,0,0,1,.49.27,1.17,1.17,0,0,1,.32.41,1.27,1.27,0,0,1,.11.52,1.68,1.68,0,0,1-.25.88,4.76,4.76,0,0,1-.62.86c-.25.29-.52.58-.81.86s-.57.58-.82.87h2.56v.56h-3.24v-.56a9.48,9.48,0,0,1,.8-.91l.82-.87a5.2,5.2,0,0,0,.64-.84,1.59,1.59,0,0,0,.26-.84,1,1,0,0,0,0-.3.73.73,0,0,0-.15-.25.69.69,0,0,0-.28-.16,1.31,1.31,0,0,0-.43-.06l-.37,0-.39.09a3,3,0,0,0-.36.13,1.46,1.46,0,0,0-.28.15Z" transform="translate(5 5)"/><path class="cls-3" d="M281.19,123.55l.29-2.78h2.72v.56H282l-.21,1.7c.17,0,.34-.07.52-.09a4.77,4.77,0,0,1,.5,0,2.35,2.35,0,0,1,.67.1,1.53,1.53,0,0,1,.53.3,1.17,1.17,0,0,1,.34.47,1.51,1.51,0,0,1,.13.65,2,2,0,0,1-.12.68,1.48,1.48,0,0,1-.37.56,1.76,1.76,0,0,1-.61.38,2.25,2.25,0,0,1-.86.14,2.63,2.63,0,0,1-.86-.13,2.43,2.43,0,0,1-.7-.36l.17-.56a3,3,0,0,0,.62.38,1.87,1.87,0,0,0,.78.15,1.41,1.41,0,0,0,1-.3,1.11,1.11,0,0,0,.34-.88,1.31,1.31,0,0,0-.06-.41.69.69,0,0,0-.21-.32.92.92,0,0,0-.38-.21,2.47,2.47,0,0,0-.6-.07,3.9,3.9,0,0,0-.58,0,2.56,2.56,0,0,0-.56.15Z" transform="translate(5 5)"/><path class="cls-3" d="M285.49,123.55l.3-2.78h2.71v.56h-2.21l-.21,1.7c.17,0,.34-.07.52-.09a5,5,0,0,1,.51,0,2.41,2.41,0,0,1,.67.1,1.48,1.48,0,0,1,.52.3,1.19,1.19,0,0,1,.35.47,1.67,1.67,0,0,1,.12.65,2,2,0,0,1-.12.68,1.58,1.58,0,0,1-.36.56,2,2,0,0,1-.61.38,2.34,2.34,0,0,1-.87.14,2.67,2.67,0,0,1-.86-.13,2.57,2.57,0,0,1-.7-.36l.17-.56a3.69,3.69,0,0,0,.62.38,1.87,1.87,0,0,0,.78.15,1.39,1.39,0,0,0,.95-.3,1.12,1.12,0,0,0,.35-.88,1.31,1.31,0,0,0-.06-.41.69.69,0,0,0-.21-.32,1,1,0,0,0-.39-.21,2.47,2.47,0,0,0-.6-.07,3.9,3.9,0,0,0-.58,0,2.73,2.73,0,0,0-.56.15Z" transform="translate(5 5)"/><path class="cls-3" d="M289.72,126.71l.32-.58h-.2v-.72h.63v.84l-.59.61Z" transform="translate(5 5)"/><path class="cls-3" d="M291.57,121.16l.35-.15c.12-.05.26-.09.39-.13a2.07,2.07,0,0,1,.42-.08l.4,0a2.08,2.08,0,0,1,.63.09,1.7,1.7,0,0,1,.5.27,1.14,1.14,0,0,1,.31.41,1.13,1.13,0,0,1,.11.52,1.77,1.77,0,0,1-.24.88,6,6,0,0,1-.62.86,10.93,10.93,0,0,1-.82.86c-.29.29-.56.58-.82.87h2.56v.56H291.5v-.56a11.09,11.09,0,0,1,.8-.91c.29-.3.57-.59.82-.87a5.2,5.2,0,0,0,.64-.84,1.59,1.59,0,0,0,.26-.84,1,1,0,0,0,0-.3.63.63,0,0,0-.16-.25.69.69,0,0,0-.28-.16,1.25,1.25,0,0,0-.42-.06l-.38,0a2.34,2.34,0,0,0-.38.09,3,3,0,0,0-.36.13,1,1,0,0,0-.28.15Z" transform="translate(5 5)"/><path class="cls-3" d="M295.81,123.55l.3-2.78h2.71v.56h-2.21l-.21,1.7c.17,0,.34-.07.52-.09a5,5,0,0,1,.51,0,2.41,2.41,0,0,1,.67.1,1.48,1.48,0,0,1,.52.3,1.19,1.19,0,0,1,.35.47,1.67,1.67,0,0,1,.12.65,2,2,0,0,1-.12.68,1.58,1.58,0,0,1-.36.56,1.86,1.86,0,0,1-.61.38,2.34,2.34,0,0,1-.87.14,2.67,2.67,0,0,1-.86-.13,2.57,2.57,0,0,1-.7-.36l.17-.56a3.69,3.69,0,0,0,.62.38,1.87,1.87,0,0,0,.78.15,1.39,1.39,0,0,0,.95-.3,1.12,1.12,0,0,0,.35-.88,1.31,1.31,0,0,0-.06-.41.69.69,0,0,0-.21-.32,1,1,0,0,0-.39-.21,2.47,2.47,0,0,0-.6-.07,3.9,3.9,0,0,0-.58,0,2.73,2.73,0,0,0-.56.15Z" transform="translate(5 5)"/><path class="cls-3" d="M300.12,123.55l.29-2.78h2.71v.56h-2.2l-.21,1.7c.16,0,.34-.07.52-.09a4.77,4.77,0,0,1,.5,0,2.41,2.41,0,0,1,.67.1,1.53,1.53,0,0,1,.53.3,1.27,1.27,0,0,1,.34.47,1.67,1.67,0,0,1,.13.65,2,2,0,0,1-.12.68,1.61,1.61,0,0,1-.37.56,1.76,1.76,0,0,1-.61.38,2.28,2.28,0,0,1-.86.14,2.63,2.63,0,0,1-.86-.13,2.43,2.43,0,0,1-.7-.36l.16-.56a3.4,3.4,0,0,0,.63.38,1.86,1.86,0,0,0,.77.15,1.42,1.42,0,0,0,1-.3,1.11,1.11,0,0,0,.34-.88,1.31,1.31,0,0,0-.06-.41.69.69,0,0,0-.21-.32,1,1,0,0,0-.39-.21,2.47,2.47,0,0,0-.6-.07,3.88,3.88,0,0,0-.57,0,2.42,2.42,0,0,0-.56.15Z" transform="translate(5 5)"/><path class="cls-3" d="M304.35,126.71l.31-.58h-.2v-.72h.63v.84l-.58.61Z" transform="translate(5 5)"/><path class="cls-3" d="M306.2,121.16l.34-.15.4-.13a1.86,1.86,0,0,1,.41-.08l.41,0a2.08,2.08,0,0,1,.63.09,1.77,1.77,0,0,1,.49.27,1.17,1.17,0,0,1,.32.41,1.27,1.27,0,0,1,.11.52,1.68,1.68,0,0,1-.25.88,5.31,5.31,0,0,1-.62.86c-.25.29-.52.58-.81.86s-.57.58-.83.87h2.56v.56h-3.24v-.56a11.09,11.09,0,0,1,.8-.91c.3-.3.57-.59.83-.87a5.85,5.85,0,0,0,.64-.84,1.57,1.57,0,0,0,.25-.84,1,1,0,0,0,0-.3.73.73,0,0,0-.15-.25.76.76,0,0,0-.28-.16,1.35,1.35,0,0,0-.43-.06l-.37,0-.39.09a3,3,0,0,0-.36.13,1.21,1.21,0,0,0-.28.15Z" transform="translate(5 5)"/><path class="cls-3" d="M310.44,123.55l.29-2.78h2.71v.56h-2.2L311,123c.16,0,.34-.07.52-.09a4.77,4.77,0,0,1,.5,0,2.41,2.41,0,0,1,.67.1,1.53,1.53,0,0,1,.53.3,1.27,1.27,0,0,1,.34.47,1.67,1.67,0,0,1,.13.65,2,2,0,0,1-.12.68,1.61,1.61,0,0,1-.37.56,1.76,1.76,0,0,1-.61.38,2.28,2.28,0,0,1-.86.14,2.63,2.63,0,0,1-.86-.13,2.43,2.43,0,0,1-.7-.36l.16-.56a3.4,3.4,0,0,0,.63.38,1.82,1.82,0,0,0,.77.15,1.42,1.42,0,0,0,1-.3,1.11,1.11,0,0,0,.34-.88,1.31,1.31,0,0,0-.06-.41.69.69,0,0,0-.21-.32,1,1,0,0,0-.39-.21,2.47,2.47,0,0,0-.6-.07,3.88,3.88,0,0,0-.57,0,2.42,2.42,0,0,0-.56.15Z" transform="translate(5 5)"/><path class="cls-3" d="M314.74,123.55l.3-2.78h2.71v.56h-2.21l-.21,1.7c.17,0,.34-.07.52-.09a4.75,4.75,0,0,1,.51,0,2.28,2.28,0,0,1,.66.1,1.44,1.44,0,0,1,.53.3,1.29,1.29,0,0,1,.35.47,1.67,1.67,0,0,1,.12.65,2,2,0,0,1-.12.68,1.58,1.58,0,0,1-.36.56,1.91,1.91,0,0,1-.62.38,2.25,2.25,0,0,1-.86.14,2.63,2.63,0,0,1-.86-.13,2.57,2.57,0,0,1-.7-.36l.17-.56a3.33,3.33,0,0,0,.62.38,1.87,1.87,0,0,0,.78.15,1.41,1.41,0,0,0,.95-.3,1.11,1.11,0,0,0,.34-.88,1.31,1.31,0,0,0-.06-.41.76.76,0,0,0-.2-.32,1,1,0,0,0-.39-.21,2.47,2.47,0,0,0-.6-.07,3.9,3.9,0,0,0-.58,0,2.56,2.56,0,0,0-.56.15Z" transform="translate(5 5)"/><path class="cls-3" d="M318.9,119.92a5.07,5.07,0,0,1,1.19,1.62,4.54,4.54,0,0,1,.43,1.93,4.7,4.7,0,0,1-.43,2,4.79,4.79,0,0,1-1.19,1.6l-.3-.1a4.86,4.86,0,0,0,.66-1,5.12,5.12,0,0,0,.36-.92,4.67,4.67,0,0,0,.15-.84c0-.27,0-.51,0-.73a7.72,7.72,0,0,0-.07-1,4.28,4.28,0,0,0-.21-.89,3.87,3.87,0,0,0-.37-.8,5.39,5.39,0,0,0-.55-.76Z" transform="translate(5 5)"/><path class="cls-3" d="M262.06,132.69a2.3,2.3,0,0,0-.63-.28,2.85,2.85,0,0,0-.86-.11,2.35,2.35,0,0,0-.9.15,1.51,1.51,0,0,0-.6.44,1.75,1.75,0,0,0-.33.67,4,4,0,0,0-.1.88,2.51,2.51,0,0,0,.48,1.66,1.8,1.8,0,0,0,1.44.56,2.73,2.73,0,0,0,.92-.15,2,2,0,0,0,.68-.35l.16.54a4.31,4.31,0,0,1-.77.34,3.23,3.23,0,0,1-1,.14,2.81,2.81,0,0,1-1.13-.21,2.29,2.29,0,0,1-.8-.59,2.35,2.35,0,0,1-.47-.85,3.42,3.42,0,0,1-.15-1,3.36,3.36,0,0,1,.17-1.06,2.51,2.51,0,0,1,.5-.87,2.37,2.37,0,0,1,.82-.59,2.91,2.91,0,0,1,1.15-.21,4.12,4.12,0,0,1,.86.09,3.29,3.29,0,0,1,.75.25Z" transform="translate(5 5)"/><path class="cls-3" d="M265.26,131.77a1.94,1.94,0,0,1,.91.21,2.21,2.21,0,0,1,.67.59,3,3,0,0,1,.41.86,3.88,3.88,0,0,1,.14,1,3.5,3.5,0,0,1-.15,1,2.6,2.6,0,0,1-.42.87,2.21,2.21,0,0,1-.68.61,1.89,1.89,0,0,1-.94.22,1.84,1.84,0,0,1-.9-.21,1.93,1.93,0,0,1-.65-.59,2.77,2.77,0,0,1-.39-.85,4.19,4.19,0,0,1-.13-1,3.74,3.74,0,0,1,.15-1.07,2.69,2.69,0,0,1,.41-.87,2.1,2.1,0,0,1,.67-.59A1.87,1.87,0,0,1,265.26,131.77Zm0,4.89a1.34,1.34,0,0,0,.68-.17,1.32,1.32,0,0,0,.47-.47,2,2,0,0,0,.27-.69,3.82,3.82,0,0,0,.09-.85,4.06,4.06,0,0,0-.09-.89,2.13,2.13,0,0,0-.28-.69,1.31,1.31,0,0,0-.47-.44,1.23,1.23,0,0,0-.65-.16,1.34,1.34,0,0,0-.66.15,1.19,1.19,0,0,0-.45.44,2,2,0,0,0-.25.68,3.87,3.87,0,0,0-.08.86,3,3,0,0,0,.37,1.67A1.2,1.2,0,0,0,265.22,136.66Z" transform="translate(5 5)"/><path class="cls-3" d="M273.2,136.34l1.8-4.53h.76v5.28h-.6v-4l-1.61,4h-.72l-1.63-4v4h-.6v-5.28h.81Z" transform="translate(5 5)"/><path class="cls-3" d="M279.16,131.77a1.87,1.87,0,0,1,.9.21,2,2,0,0,1,.67.59,2.74,2.74,0,0,1,.41.86,3.82,3.82,0,0,1,0,2,3.05,3.05,0,0,1-.42.87,2.21,2.21,0,0,1-.68.61,2,2,0,0,1-.94.22,1.88,1.88,0,0,1-.91-.21,1.9,1.9,0,0,1-.64-.59,2.77,2.77,0,0,1-.39-.85,3.75,3.75,0,0,1-.13-1,4.13,4.13,0,0,1,.14-1.07,2.93,2.93,0,0,1,.42-.87,2,2,0,0,1,.67-.59A1.87,1.87,0,0,1,279.16,131.77Zm0,4.89a1.37,1.37,0,0,0,.68-.17,1.32,1.32,0,0,0,.47-.47,2.16,2.16,0,0,0,.27-.69,3.82,3.82,0,0,0,.09-.85,4.06,4.06,0,0,0-.09-.89,2.69,2.69,0,0,0-.28-.69,1.4,1.4,0,0,0-.47-.44,1.29,1.29,0,0,0-.66-.16,1.4,1.4,0,0,0-.66.15,1.35,1.35,0,0,0-.45.44,2.47,2.47,0,0,0-.25.68,4.57,4.57,0,0,0-.08.86,3.13,3.13,0,0,0,.37,1.67A1.21,1.21,0,0,0,279.12,136.66Z" transform="translate(5 5)"/><path class="cls-3" d="M283,131.81h.72l1.67,2.53,1.61-2.53h.7l-2,3.11v2.17h-.6V135Z" transform="translate(5 5)"/><path class="cls-3" d="M290.26,131.77a1.94,1.94,0,0,1,.91.21,2.21,2.21,0,0,1,.67.59,3,3,0,0,1,.41.86,3.88,3.88,0,0,1,.14,1,3.5,3.5,0,0,1-.15,1,2.6,2.6,0,0,1-.42.87,2.21,2.21,0,0,1-.68.61,1.89,1.89,0,0,1-.94.22,1.84,1.84,0,0,1-.9-.21,1.93,1.93,0,0,1-.65-.59,2.77,2.77,0,0,1-.39-.85,4.19,4.19,0,0,1-.13-1,3.74,3.74,0,0,1,.15-1.07,2.69,2.69,0,0,1,.41-.87,2.1,2.1,0,0,1,.67-.59A1.87,1.87,0,0,1,290.26,131.77Zm0,4.89a1.34,1.34,0,0,0,.68-.17,1.32,1.32,0,0,0,.47-.47,2,2,0,0,0,.27-.69,3.82,3.82,0,0,0,.09-.85,4.06,4.06,0,0,0-.09-.89,2.13,2.13,0,0,0-.28-.69,1.31,1.31,0,0,0-.47-.44,1.23,1.23,0,0,0-.65-.16,1.34,1.34,0,0,0-.66.15,1.19,1.19,0,0,0-.45.44,2,2,0,0,0-.25.68,3.87,3.87,0,0,0-.08.86,3,3,0,0,0,.37,1.67A1.2,1.2,0,0,0,290.22,136.66Z" transform="translate(5 5)"/><path class="cls-3" d="M296.2,134.3a4.85,4.85,0,0,0,.41-.3c.12-.1.26-.23.41-.38a9.6,9.6,0,0,0,.79-.86c.27-.31.51-.63.74-.95h.69q-.19.28-.42.57l-.47.58-.48.54-.44.46-.17.16-.14.14,2.44,2.83h-.74l-2.14-2.45-.48.36v2.09h-.6v-5.28h.6Z" transform="translate(5 5)"/><path class="cls-3" d="M302.2,131.77a1.87,1.87,0,0,1,.9.21,2,2,0,0,1,.67.59,2.74,2.74,0,0,1,.41.86,3.82,3.82,0,0,1,0,2,3.05,3.05,0,0,1-.42.87,2.21,2.21,0,0,1-.68.61,2,2,0,0,1-.94.22,1.88,1.88,0,0,1-.91-.21,1.9,1.9,0,0,1-.64-.59,2.77,2.77,0,0,1-.39-.85,3.75,3.75,0,0,1-.13-1,4.13,4.13,0,0,1,.14-1.07,2.93,2.93,0,0,1,.42-.87,2,2,0,0,1,.67-.59A1.87,1.87,0,0,1,302.2,131.77Zm0,4.89a1.37,1.37,0,0,0,.68-.17,1.32,1.32,0,0,0,.47-.47,2.16,2.16,0,0,0,.27-.69,3.82,3.82,0,0,0,.09-.85,4.06,4.06,0,0,0-.09-.89,2.69,2.69,0,0,0-.28-.69,1.4,1.4,0,0,0-.47-.44,1.29,1.29,0,0,0-.66-.16,1.4,1.4,0,0,0-.66.15,1.35,1.35,0,0,0-.45.44,2.47,2.47,0,0,0-.25.68,4.57,4.57,0,0,0-.08.86,3.13,3.13,0,0,0,.37,1.67A1.21,1.21,0,0,0,302.16,136.66Z" transform="translate(5 5)"/></g><g class="cls-12"><g class="cls-2"><rect class="cls-13" x="257.77" y="0.25" width="94.6" height="94.6"/></g></g><g class="cls-2"><rect class="cls-14" x="262.77" y="5.25" width="84.6" height="84.6"/></g><g class="cls-15"><g class="cls-2"><rect class="cls-13" x="0.25" y="185.25" width="241.1" height="29.9"/></g></g><g class="cls-2"><rect class="cls-14" x="5.25" y="190.25" width="231.1" height="19.9"/></g><g class="cls-16"><g class="cls-2"><rect class="cls-7" x="231.6" y="185" width="137.2" height="30.4"/></g></g><g class="cls-17"><g class="cls-2"><rect class="cls-5" x="358.8" y="185" width="137.2" height="30.4"/></g></g><g class="cls-18"><g class="cls-2"><rect class="cls-9" x="486" y="185" width="66.95" height="30.4"/></g></g><g class="cls-19"><g class="cls-2"><rect class="cls-11" x="543.2" y="185" width="66.95" height="30.4"/></g></g></svg>